<?xml version="1.0" standalone="no"?>
<!DOCTYPE svg PUBLIC "-//W3C//DTD SVG 1.1//EN" "http://www.w3.org/Graphics/SVG/1.1/DTD/svg11.dtd" >
<svg>
<metadata>
Created by FontForge 20110222 at Sat Aug  2 19:23:55 2014
 By Orthosie Webhosting
Copyright (C)1995 TypeMarket Ltd.  Moscow, 119136, Box 20; phone:(095)1427712; Created by A.Shevtsov
</metadata>
<defs>
<font id="EuropeCondRegular" horiz-adv-x="435" >
  <font-face 
    font-family="EuropeCondRegular"
    font-weight="400"
    font-stretch="normal"
    units-per-em="1000"
    panose-1="4 0 5 0 0 0 0 0 0 0"
    ascent="759"
    descent="-241"
    x-height="525"
    cap-height="749"
    bbox="-55 -241 1150 992"
    underline-thickness="49"
    underline-position="-46"
    unicode-range="U+0020-2122"
  />
<missing-glyph horiz-adv-x="500" 
 />
    <glyph glyph-name=".notdef" horiz-adv-x="500" 
 />
    <glyph glyph-name=".null" horiz-adv-x="0" 
 />
    <glyph glyph-name="nonmarkingreturn" horiz-adv-x="333" 
 />
    <glyph glyph-name="space" unicode=" " horiz-adv-x="257" 
 />
    <glyph glyph-name="space" unicode="&#xa0;" horiz-adv-x="257" 
 />
    <glyph glyph-name="exclam" unicode="!" horiz-adv-x="258" 
d="M94 0v99h75v-99h-75zM94 197v552h75v-552h-75z" />
    <glyph glyph-name="quotedbl" unicode="&#x22;" horiz-adv-x="286" 
d="M100 728v-278h-52v278h52zM238 728v-278h-52v278h52z" />
    <glyph glyph-name="numbersign" unicode="#" horiz-adv-x="795" 
d="M463 734l-85 -244h133l88 244h64l-86 -244h159l-19 -54h-160l-50 -140h172l-18 -54h-172l-86 -242h-65l87 242h-135l-88 -242h-64l86 242h-165l20 54h165l50 140h-178l17 54h180l86 244h64zM492 436h-134l-49 -140h134z" />
    <glyph glyph-name="dollar" unicode="$" horiz-adv-x="518" 
d="M237 422v274q-55 -4 -75.5 -26.5t-20.5 -75.5v-80q0 -44 20.5 -64.5t75.5 -27.5zM288 343v-289q56 4 76.5 27.5t20.5 80.5v85q0 48 -21.5 70t-75.5 26zM237 -92v83q-101 4 -140 41t-39 129v64h73v-51q0 -68 21 -94t81 -26h4v295q-98 11 -133 45t-35 122v68
q0 51 11.5 84.5t35.5 52t51.5 26.5t69.5 12v62h51v-62q97 -9 133 -46t36 -124v-44h-72v30q0 67 -20 93.5t-77 27.5v-278q99 -15 134 -57.5t35 -140.5q0 -67 -5 -103.5t-22.5 -66.5t-50.5 -42t-91 -17v-83h-51z" />
    <glyph glyph-name="percent" unicode="%" horiz-adv-x="841" 
d="M218 -9l342 767h62l-342 -767h-62zM263 467v103q0 73 -12.5 97t-63.5 24t-64 -22t-13 -94v-108q0 -73 13 -97t64 -24t63.5 23.5t12.5 97.5zM328 461q0 -94 -24 -134.5t-89 -40.5h-56q-66 0 -90 40.5t-24 134.5v115q0 94 24 134.5t90 40.5h56q65 0 89 -41t24 -134v-115z
M730 177v103q0 73 -12.5 97t-63.5 24t-64 -22t-13 -94v-108q0 -73 13 -97t64 -24t63.5 23.5t12.5 97.5zM795 171q0 -94 -24 -134.5t-89 -40.5h-56q-66 0 -90 40.5t-24 134.5v115q0 94 24 134.5t90 40.5h56q65 0 89 -41t24 -134v-115z" />
    <glyph glyph-name="ampersand" unicode="&#x26;" horiz-adv-x="537" 
d="M425 555h-65v38q0 58 -18 78t-77 20q-58 0 -83.5 -18.5t-25.5 -62.5q0 -37 26 -73l213 -281v164h64v-237l109 -136l-53 -51l-74 93q-16 -54 -58 -76t-121 -22q-116 0 -161 38t-45 141v120q0 64 26.5 102t76.5 46l-30 38q-18 24 -25.5 35.5t-15.5 38t-8 61.5
q0 75 45.5 111t138.5 36q95 0 128 -34.5t33 -125.5v-43zM388 151l-177 226q-1 0 -4.5 0.5t-5.5 0.5q-33 0 -51.5 -29t-18.5 -82v-72q0 -82 29 -113t107 -31q63 0 92 23t29 74v3z" />
    <glyph glyph-name="quotesingle" unicode="'" horiz-adv-x="148" 
d="M100 728v-278h-52v278h52z" />
    <glyph glyph-name="parenleft" unicode="(" horiz-adv-x="325" 
d="M265 758v-66q-62 0 -79 -36.5t-17 -139.5v-284q0 -103 17 -139.5t79 -36.5v-65h-5q-94 0 -128.5 58t-34.5 200v250q0 143 35 201t133 58z" />
    <glyph glyph-name="parenright" unicode=")" horiz-adv-x="325" 
d="M60 692v66q98 0 133 -58t35 -201v-250q0 -142 -34.5 -200t-128.5 -58h-5v65q62 0 79 36.5t17 139.5v284q0 103 -17 139.5t-79 36.5z" />
    <glyph glyph-name="asterisk" unicode="*" horiz-adv-x="403" 
d="M140 536h-126v62h126v-62zM144 608l-61 125l52 34l62 -126zM260 598h127v-62h-127v62zM252 608l-53 33l62 126l52 -34zM253 527l61 -125l-53 -34l-61 126zM143 527l53 -33l-61 -126l-53 34z" />
    <glyph glyph-name="plus" unicode="+" horiz-adv-x="861" 
d="M456 616v-283h277v-50h-277v-283h-50v283h-278v50h278v283h50z" />
    <glyph glyph-name="comma" unicode="," horiz-adv-x="258" 
d="M91 99h75v-116q0 -50 -14 -72t-50 -22q-8 0 -16 2v39q19 1 26.5 8.5t7.5 26.5v35h-29v99z" />
    <glyph glyph-name="hyphen" unicode="-" horiz-adv-x="311" 
d="M43 248v62h225v-62h-225z" />
    <glyph glyph-name="hyphen" unicode="&#xad;" horiz-adv-x="311" 
d="M43 248v62h225v-62h-225z" />
    <glyph glyph-name="period" unicode="." horiz-adv-x="258" 
d="M91 0v99h75v-99h-75z" />
    <glyph glyph-name="slash" unicode="/" horiz-adv-x="248" 
d="M-40 -95l244 855h56l-244 -855h-56z" />
    <glyph glyph-name="zero" unicode="0" horiz-adv-x="517" 
d="M219 -9q-95 0 -130.5 58.5t-35.5 194.5v260q0 136 35.5 195t130.5 59h80q95 0 130.5 -59t35.5 -195v-260q0 -136 -35.5 -194.5t-130.5 -58.5h-80zM237 61h43q70 0 90 38t20 143v264q0 106 -19.5 144t-89.5 38h-44q-70 0 -89.5 -38t-19.5 -144v-264q0 -105 19.5 -143
t89.5 -38z" />
    <glyph glyph-name="one" unicode="1" horiz-adv-x="517" 
d="M340 749v-749h-70v668l-155 -191l-46 44l185 228h86z" />
    <glyph glyph-name="two" unicode="2" horiz-adv-x="517" 
d="M138 511h-75v21q0 122 35.5 174t130.5 52h61q95 0 130 -48t35 -162v-75q0 -75 -30.5 -111t-95.5 -59l-117 -42q-46 -17 -67 -55t-21 -108v-26h326v-72h-396v98q0 58 7.5 97.5t24 61.5t30.5 32t39 20l158 64q39 16 50.5 44t11.5 90v59q0 67 -22 94.5t-75 27.5h-40
q-64 0 -82 -31t-18 -120v-26z" />
    <glyph glyph-name="three" unicode="3" horiz-adv-x="517" 
d="M141 523h-72v10q0 121 34 173t125 52h58q90 0 124 -47t34 -157q0 -79 -18.5 -115.5t-75.5 -50.5q56 -20 78.5 -59t22.5 -108q0 -128 -34 -179t-133 -51h-61q-96 0 -132 51.5t-36 173.5v30h75v-35q0 -88 18.5 -119t82.5 -31h41q54 0 76.5 28t22.5 94v59q0 62 -22 84.5
t-86 22.5h-50v67h54q55 0 78.5 23t23.5 77v50q0 66 -21.5 94t-72.5 28h-40q-61 0 -77.5 -31t-16.5 -120v-14z" />
    <glyph glyph-name="four" unicode="4" horiz-adv-x="517" 
d="M411 749v-508h71v-70h-71v-171h-70v171h-300v105l269 473h101zM341 241v429l-245 -429h245z" />
    <glyph glyph-name="five" unicode="5" horiz-adv-x="517" 
d="M81 749h348v-70h-278v-225q30 55 128 55q91 0 132.5 -48.5t41.5 -152.5v-86q0 -127 -34 -179t-131 -52h-61q-88 0 -126 48t-38 156v20h74v-16q0 -80 19.5 -109t79.5 -29h41q52 0 74 28t22 95v84q0 105 -20.5 138t-99.5 33q-96 0 -108 -68h-64v378z" />
    <glyph glyph-name="six" unicode="6" horiz-adv-x="517" 
d="M229 61h59q65 0 85 31.5t20 117.5v27q0 87 -19 118t-84 31h-61q-64 0 -82 -31t-18 -119v-26q0 -88 18 -118.5t82 -30.5zM451 569h-71v9q0 60 -22 85t-74 25h-59q-64 0 -82.5 -31t-18.5 -120v-141q33 36 70.5 50t90.5 14q94 0 136 -40t42 -132v-72q0 -122 -35.5 -173.5
t-131.5 -51.5h-75q-96 0 -131.5 51.5t-35.5 173.5v317q0 122 35.5 173.5t131.5 51.5h71q159 0 159 -182v-7z" />
    <glyph glyph-name="seven" unicode="7" horiz-adv-x="517" 
d="M105 0l271 679h-313v70h373v-113l-253 -636h-78z" />
    <glyph glyph-name="eight" unicode="8" horiz-adv-x="517" 
d="M299 758q90 0 125.5 -48t35.5 -157q0 -77 -20 -114t-78 -51q57 -20 81 -59t24 -107q0 -127 -35.5 -179t-135.5 -52h-77q-100 0 -134.5 51.5t-34.5 179.5q0 68 23 107t80 59q-57 14 -76.5 50.5t-19.5 114.5q0 110 34.5 157.5t124.5 47.5h83zM132 593v-73q0 -53 23.5 -76
t77.5 -23h49q54 0 78.5 23t24.5 76v73q0 53 -24 75.5t-79 22.5h-49q-54 0 -77.5 -22t-23.5 -76zM130 241v-60q0 -67 23 -95t78 -28h53q54 0 78.5 28.5t24.5 94.5v60q0 58 -25.5 83t-85.5 25h-37q-60 0 -84.5 -25t-24.5 -83z" />
    <glyph glyph-name="nine" unicode="9" horiz-adv-x="517" 
d="M47 180h72v-9q0 -60 21 -85t74 -25h74q64 0 82.5 31t18.5 119v149q-33 -36 -69.5 -49.5t-90.5 -13.5q-95 0 -137 39t-42 130v67q0 122 35.5 173.5t131.5 51.5h75q96 0 131.5 -51.5t35.5 -173.5v-317q0 -122 -35.5 -173.5t-131.5 -51.5h-86q-81 0 -120 44.5t-39 136.5v8z
M284 688h-61q-64 0 -81 -28.5t-17 -115.5v-30q0 -87 17 -116t81 -29h61q64 0 82 30t18 117v26q0 87 -18 116.5t-82 29.5z" />
    <glyph glyph-name="colon" unicode=":" horiz-adv-x="281" 
d="M103 424v99h75v-99h-75zM103 0v99h75v-99h-75z" />
    <glyph glyph-name="semicolon" unicode=";" horiz-adv-x="281" 
d="M103 99h75v-116q0 -50 -14 -72t-50 -22q-8 0 -16 2v39q19 1 26.5 8.5t7.5 26.5v35h-29v99zM103 424v99h75v-99h-75z" />
    <glyph glyph-name="less" unicode="&#x3c;" horiz-adv-x="861" 
d="M728 520l-516 -210l516 -209v-55l-595 243v42l595 244v-55z" />
    <glyph glyph-name="equal" unicode="=" horiz-adv-x="861" 
d="M733 428v-49h-605v49h605zM733 241v-49h-605v49h605z" />
    <glyph glyph-name="greater" unicode="&#x3e;" horiz-adv-x="861" 
d="M728 331v-42l-595 -243v55l516 209l-516 210v55z" />
    <glyph glyph-name="question" unicode="?" horiz-adv-x="470" 
d="M156 0v99h75v-99h-75zM104 517h-70v64q0 90 36.5 133.5t116.5 43.5h79q84 0 122 -39t38 -126v-75q0 -78 -26.5 -121t-92.5 -69q-49 -20 -62.5 -34.5t-13.5 -44.5v-53h-75v63q0 54 18 76.5t85 53.5q58 27 75 53t17 82v64q0 59 -20 79.5t-82 20.5h-52q-50 0 -71.5 -23
t-21.5 -74v-74z" />
    <glyph glyph-name="at" unicode="@" horiz-adv-x="1034" 
d="M611 239l31 125q-10 47 -39 73.5t-70 26.5q-78 0 -128 -67.5t-50 -169.5q0 -56 27.5 -88t76.5 -32q53 0 95 36.5t57 95.5zM655 424l30 64h48l-71 -284q-8 -35 -8 -46q0 -22 14.5 -34.5t40.5 -12.5q90 0 149.5 86.5t59.5 200.5q0 127 -99 210t-258 83q-199 0 -321 -122
t-122 -308q0 -162 111.5 -260.5t286.5 -98.5q179 0 320 97l20 -28q-148 -111 -330 -111q-206 0 -336 111.5t-130 301.5q0 197 142.5 330t359.5 133q175 0 293.5 -95t118.5 -246q0 -133 -78 -231.5t-200 -98.5q-98 0 -98 77q0 2 0.5 7t0.5 8q-52 -92 -148 -92
q-77 0 -118 42.5t-41 123.5q0 117 69 196.5t166 79.5q95 0 128 -83z" />
    <glyph glyph-name="A" unicode="A" horiz-adv-x="504" 
d="M141 231h221l-106 417zM215 749h86l203 -749h-81l-42 161h-260l-47 -161h-74z" />
    <glyph glyph-name="B" unicode="B" horiz-adv-x="542" 
d="M137 679v-251h114q85 0 116.5 17.5t31.5 72.5v84q0 48 -32.5 62.5t-115.5 14.5h-114zM62 0v749h197q121 0 168 -30.5t47 -125.5v-66q0 -54 -21.5 -85t-70.5 -47q55 -15 80 -51.5t25 -102.5v-72q0 -96 -48.5 -132.5t-165.5 -36.5h-211zM137 358v-288h119q88 0 122 20.5
t34 86.5v69q0 67 -34.5 89.5t-121.5 22.5h-119z" />
    <glyph glyph-name="C" unicode="C" horiz-adv-x="508" 
d="M478 507h-80v9q0 94 -23 132t-88 38h-41q-67 0 -89 -39.5t-22 -142.5v-252q0 -50 1.5 -77t7.5 -52.5t18.5 -36t32 -17t51.5 -6.5h42q71 0 90.5 33.5t19.5 137.5v18h80v-44q0 -111 -43 -164t-133 -53h-72q-54 0 -90 17.5t-54 52t-24.5 73t-6.5 93.5v277q0 133 45 193.5
t149 60.5h40q102 0 145.5 -50.5t43.5 -165.5v-35z" />
    <glyph glyph-name="D" unicode="D" horiz-adv-x="566" 
d="M62 0v749h189q147 0 203.5 -60.5t56.5 -211.5v-206q0 -151 -56.5 -211t-203.5 -60h-189zM138 679v-609h98q64 0 102.5 9.5t59 35t27 59t6.5 92.5v209q0 63 -6.5 99t-28 61.5t-58.5 34.5t-101 9h-99z" />
    <glyph glyph-name="E" unicode="E" horiz-adv-x="425" 
d="M62 749h335v-72h-260v-249h241v-70h-241v-286h260v-72h-335v749z" />
    <glyph glyph-name="F" unicode="F" horiz-adv-x="395" 
d="M62 749h323v-72h-248v-249h228v-70h-228v-358h-75v749z" />
    <glyph glyph-name="G" unicode="G" horiz-adv-x="550" 
d="M495 526h-80q0 88 -24 124t-87 36h-57q-68 0 -90 -39.5t-22 -142.5v-252q0 -116 19 -152.5t93 -36.5h64q32 0 51.5 6.5t32 17t18.5 36t7.5 52.5t1.5 77v49h-131v72h211v-146q0 -115 -36.5 -175.5t-139.5 -60.5h-95q-103 0 -139.5 60t-36.5 176v277q0 132 45.5 193
t149.5 61h56q101 0 145 -48.5t44 -157.5v-26z" />
    <glyph glyph-name="H" unicode="H" horiz-adv-x="572" 
d="M137 749v-321h298v321h75v-749h-75v358h-298v-358h-75v749h75z" />
    <glyph glyph-name="I" unicode="I" horiz-adv-x="205" 
d="M140 749v-749h-75v749h75z" />
    <glyph glyph-name="J" unicode="J" horiz-adv-x="443" 
d="M306 749h75v-584q0 -99 -40 -136.5t-143 -37.5t-143 37.5t-40 136.5v88h75v-60q0 -75 21 -103.5t86 -28.5t87 28.5t22 103.5v556z" />
    <glyph glyph-name="K" unicode="K" horiz-adv-x="532" 
d="M137 749v-321h39l238 321h84l-265 -355l299 -394h-94l-271 358h-30v-358h-75v749h75z" />
    <glyph glyph-name="L" unicode="L" horiz-adv-x="368" 
d="M137 749v-677h221v-72h-296v749h75z" />
    <glyph glyph-name="M" unicode="M" horiz-adv-x="790" 
d="M62 0v749h119l209 -659l224 659h114v-749h-68v685l-233 -685h-75l-222 685v-685h-68z" />
    <glyph glyph-name="N" unicode="N" horiz-adv-x="585" 
d="M62 749h110l278 -666v666h73v-749h-115l-273 654v-654h-73v749z" />
    <glyph glyph-name="O" unicode="O" horiz-adv-x="563" 
d="M250 758h64q105 0 149.5 -60.5t44.5 -193.5v-260q0 -133 -44.5 -193t-149.5 -60h-64q-105 0 -150 60t-45 193v260q0 133 45 193.5t150 60.5zM305 686h-46q-75 0 -99.5 -39.5t-24.5 -142.5v-260q0 -103 24 -142t99 -39h46q75 0 99.5 39t24.5 142v260q0 103 -24 142.5
t-99 39.5z" />
    <glyph glyph-name="P" unicode="P" horiz-adv-x="524" 
d="M137 679v-317h116q84 0 113.5 16.5t29.5 77.5v129q0 62 -29 78t-114 16h-116zM137 292v-292h-75v749h202q122 0 167 -35.5t45 -148.5v-87q0 -114 -45 -150t-167 -36h-127z" />
    <glyph glyph-name="Q" unicode="Q" horiz-adv-x="563" 
d="M557 73l-37 -54l-51 42q-43 -70 -156 -70h-64q-105 0 -149.5 60t-44.5 193v260q0 133 44.5 193.5t149.5 60.5h64q104 0 149.5 -61t45.5 -193v-260q0 -78 -11 -121zM242 249l38 54l145 -121q3 24 3 62v260q0 103 -24.5 142.5t-99.5 39.5h-45q-75 0 -99.5 -39.5
t-24.5 -142.5v-260q0 -103 24.5 -142t99.5 -39h45q80 0 104 48z" />
    <glyph glyph-name="R" unicode="R" horiz-adv-x="547" 
d="M137 679v-308h125q84 0 113.5 20.5t29.5 94.5v98q0 63 -29.5 79t-113.5 16h-125zM137 299v-299h-75v749h211q123 0 167.5 -35.5t44.5 -148.5v-72q0 -72 -27 -109.5t-87 -44.5q109 -21 109 -156v-183h-75v150q0 88 -28 118.5t-112 30.5h-128z" />
    <glyph glyph-name="S" unicode="S" horiz-adv-x="524" 
d="M476 544h-80v26q0 65 -21 90.5t-78 25.5h-61q-54 0 -74 -22.5t-20 -78.5v-81q0 -38 24.5 -53t115.5 -30q110 -17 152 -49t42 -111v-108q0 -83 -43.5 -122.5t-135.5 -39.5h-67q-107 0 -144.5 47.5t-37.5 166.5v38h78v-64q0 -65 21.5 -90.5t79.5 -25.5h74q54 0 74.5 22.5
t20.5 78.5v65q0 31 -6 50t-14.5 31t-34 19.5t-47 11.5t-72.5 10q-90 11 -125 43t-35 109v94q0 82 44 121.5t135 39.5h54q99 0 140 -44t41 -147v-23z" />
    <glyph glyph-name="T" unicode="T" horiz-adv-x="411" 
d="M7 749h397v-72h-161v-677h-75v677h-161v72z" />
    <glyph glyph-name="U" unicode="U" horiz-adv-x="541" 
d="M62 749h75v-540q0 -87 24 -116.5t101 -29.5h21q77 0 99 29t22 117v540h75v-577q0 -96 -47 -138.5t-153 -42.5h-17q-106 0 -153 42.5t-47 138.5v577z" />
    <glyph glyph-name="V" unicode="V" horiz-adv-x="491" 
d="M6 749h80l155 -649l169 649h75l-203 -749h-86z" />
    <glyph glyph-name="W" unicode="W" horiz-adv-x="779" 
d="M6 749h74l133 -653l140 653h74l133 -653l139 653h74l-171 -749h-87l-126 601l-134 -601h-87z" />
    <glyph glyph-name="X" unicode="X" horiz-adv-x="465" 
d="M15 749h80l141 -308l139 308h74l-169 -370l183 -379h-83l-152 332l-151 -332h-75l183 394z" />
    <glyph glyph-name="Y" unicode="Y" horiz-adv-x="461" 
d="M0 749h83l151 -362l152 362h75l-189 -436v-313h-75v313z" />
    <glyph glyph-name="Z" unicode="Z" horiz-adv-x="423" 
d="M35 749h358v-70l-291 -607h296v-72h-373v69l291 608h-281v72z" />
    <glyph glyph-name="bracketleft" unicode="[" horiz-adv-x="325" 
d="M114 -60v869h136v-60h-69v-749h69v-60h-136z" />
    <glyph glyph-name="backslash" unicode="\" horiz-adv-x="248" 
d="M44 760l244 -855h-56l-244 855h56z" />
    <glyph glyph-name="bracketright" unicode="]" horiz-adv-x="325" 
d="M211 809v-869h-136v60h69v749h-69v60h136z" />
    <glyph glyph-name="asciicircum" unicode="^" horiz-adv-x="1033" 
d="M551 735l268 -280h-72l-231 229l-232 -229h-72l269 280h70z" />
    <glyph glyph-name="underscore" unicode="_" horiz-adv-x="518" 
d="M518 -174v-51h-518v51h518z" />
    <glyph glyph-name="grave" unicode="`" horiz-adv-x="517" 
d="M329 580h-54l-141 177h90z" />
    <glyph glyph-name="a" unicode="a" horiz-adv-x="423" 
d="M131 381h-69v24q0 69 36.5 99t116.5 30q88 0 121 -32.5t33 -119.5v-382h-67v48q-18 -32 -47.5 -44.5t-78.5 -12.5q-130 0 -130 133v70q0 133 138 133q84 0 118 -44v81q0 65 -17 86.5t-73 21.5q-43 0 -62 -14.5t-19 -51.5v-25zM202 53q57 0 79.5 25.5t22.5 85.5
q0 59 -19.5 80t-74.5 21q-56 0 -75 -23t-19 -89q0 -53 19.5 -76.5t66.5 -23.5z" />
    <glyph glyph-name="b" unicode="b" 
d="M121 304v-84q0 -90 22 -128.5t84 -38.5q51 0 70.5 38t19.5 126v90q0 87 -19.5 126t-70.5 39q-62 0 -84 -39t-22 -129zM54 0v762h67v-295q44 67 125 67q78 0 109.5 -53.5t31.5 -170.5v-80q0 -128 -30.5 -183.5t-108.5 -55.5q-83 0 -131 70v-61h-63z" />
    <glyph glyph-name="c" unicode="c" horiz-adv-x="419" 
d="M376 353h-70v9q0 58 -21 81.5t-71 23.5q-61 0 -78.5 -29t-17.5 -112v-125q0 -83 18.5 -113t80.5 -30q59 0 78.5 24.5t19.5 90.5v21h70v-22q0 -95 -39.5 -138t-125.5 -43q-96 0 -134 46.5t-38 163.5v124q0 116 38 162.5t135 46.5q82 0 118.5 -36.5t36.5 -119.5v-25z" />
    <glyph glyph-name="d" unicode="d" 
d="M381 762v-762h-62v61q-48 -70 -132 -70q-78 0 -108.5 55.5t-30.5 183.5v80q0 116 32 170t110 54q80 0 124 -67v295h67zM314 304q0 90 -22 129t-84 39q-51 0 -70.5 -38.5t-19.5 -125.5v-92q0 -87 19 -125t71 -38q62 0 84 38.5t22 128.5v84z" />
    <glyph glyph-name="e" unicode="e" horiz-adv-x="439" 
d="M391 248h-273v-48q0 -85 18 -113.5t83 -28.5q62 0 85.5 18.5t23.5 70.5v16h63v-16q0 -84 -41 -120t-131 -36q-96 0 -133.5 47t-37.5 164v124q0 116 37.5 162t134.5 46q96 0 133.5 -46t37.5 -162v-78zM118 310h206v38q0 71 -21 97.5t-82 26.5q-60 0 -81.5 -26.5
t-21.5 -97.5v-38z" />
    <glyph glyph-name="f" unicode="f" horiz-adv-x="273" 
d="M260 760v-60q-18 2 -37 2q-44 0 -61 -20t-17 -70v-89h115v-62h-115v-461h-67v461h-64v62h64v94q0 76 33.5 110.5t107.5 34.5q11 0 41 -2z" />
    <glyph glyph-name="g" unicode="g" 
d="M319 525h62v-545q0 -95 -37.5 -134.5t-129.5 -39.5q-156 0 -156 109v26h68v-12q0 -33 21 -47t67 -14q65 0 82.5 27t17.5 105v87q-43 -66 -124 -66q-78 0 -110 53t-32 169v51q0 127 30.5 183.5t108.5 56.5q82 0 132 -72v63zM314 249v54q0 90 -22 129.5t-84 39.5
q-51 0 -70.5 -39.5t-19.5 -127.5v-59q0 -88 18 -125.5t69 -37.5q62 0 85.5 39t23.5 127z" />
    <glyph glyph-name="h" unicode="h" 
d="M121 762v-291q42 63 123 63q74 0 105.5 -43.5t31.5 -139.5v-351h-67v333q0 74 -18 106.5t-67 32.5q-61 0 -84.5 -42.5t-23.5 -136.5v-293h-67v762h67z" />
    <glyph glyph-name="i" unicode="i" horiz-adv-x="175" 
d="M54 625v88h67v-88h-67zM121 525v-525h-67v525h67z" />
    <glyph glyph-name="j" unicode="j" horiz-adv-x="175" 
d="M54 525h67v-569q0 -84 -20 -116.5t-81 -32.5q-10 0 -24 3v61h10q32 0 40 16.5t8 67.5v570zM54 625v88h67v-88h-67z" />
    <glyph glyph-name="k" unicode="k" horiz-adv-x="391" 
d="M121 762v-452h26l141 215h73l-155 -237l185 -288h-79l-158 248h-33v-248h-67v762h67z" />
    <glyph glyph-name="l" unicode="l" horiz-adv-x="175" 
d="M121 762v-762h-67v762h67z" />
    <glyph glyph-name="m" unicode="m" horiz-adv-x="669" 
d="M117 525v-61q37 70 122 70q93 0 119 -77q37 77 125 77q72 0 102 -43t30 -140v-351h-67v333q0 74 -17.5 106.5t-63.5 32.5q-57 0 -78 -42t-21 -136v-294h-67v333q0 74 -17.5 106.5t-63.5 32.5q-57 0 -78 -42t-21 -136v-294h-67v525h63z" />
    <glyph glyph-name="n" unicode="n" 
d="M116 525v-61q40 70 128 70q75 0 106 -43t31 -140v-351h-67v333q0 75 -18 107t-67 32q-61 0 -84.5 -42t-23.5 -136v-294h-67v525h62z" />
    <glyph glyph-name="o" unicode="o" horiz-adv-x="440" 
d="M392 326v-124q0 -117 -37.5 -164t-133.5 -47t-134.5 47t-38.5 163v124q0 116 38.5 162.5t135.5 46.5q96 0 133 -46t37 -162zM118 326v-125q0 -83 19.5 -113t83.5 -30q63 0 82 29.5t19 112.5v125q0 84 -18.5 113t-82.5 29t-83.5 -29t-19.5 -112z" />
    <glyph glyph-name="p" unicode="p" 
d="M117 525v-62q49 71 131 71q78 0 108.5 -56t30.5 -183v-81q0 -116 -31.5 -169.5t-109.5 -53.5q-82 0 -125 67v-252h-67v719h63zM121 304v-84q0 -89 22 -128t84 -39q51 0 70.5 38.5t19.5 125.5v90q0 88 -19.5 126.5t-70.5 38.5q-62 0 -84 -39t-22 -129z" />
    <glyph glyph-name="q" unicode="q" 
d="M314 221v84q0 89 -22 128t-84 39q-51 0 -70.5 -38t-19.5 -126v-90q0 -87 19.5 -126t70.5 -39q62 0 84 39t22 129zM381 525v-719h-67v253q-44 -68 -124 -68q-79 0 -110.5 54t-31.5 169v85q0 124 30.5 179.5t108.5 55.5q82 0 131 -71v62h63z" />
    <glyph glyph-name="r" unicode="r" horiz-adv-x="350" 
d="M116 525v-68q36 77 122 77q58 0 83 -34t25 -109v-41h-62v25q0 54 -14.5 77.5t-50.5 23.5q-56 0 -77 -34t-21 -111v-331h-67v525h62z" />
    <glyph glyph-name="s" unicode="s" horiz-adv-x="413" 
d="M363 389h-66v14q0 39 -15 54t-53 15h-34q-42 0 -58.5 -14.5t-16.5 -51.5v-50q0 -28 23.5 -39.5t99.5 -19.5q72 -8 99 -34.5t27 -80.5v-70q0 -121 -138 -121h-59q-74 0 -101 27t-27 97v53h66v-32q0 -49 12 -66t56 -17h47q41 0 57.5 15t16.5 52v49q0 39 -20.5 50.5
t-95.5 23.5q-78 12 -105.5 30t-27.5 70v70q0 121 138 121h47q74 0 101 -27t27 -97v-21z" />
    <glyph glyph-name="t" unicode="t" horiz-adv-x="349" 
d="M140 652v-126h170v-62h-170v-301q0 -64 11 -87t52 -23q34 0 47.5 18.5t13.5 59.5v50h60v-38q0 -80 -29.5 -116t-99.5 -36q-71 0 -96.5 34.5t-25.5 116.5v322h-54v62h54v126h67z" />
    <glyph glyph-name="u" unicode="u" 
d="M54 525h67v-333q0 -75 18.5 -107t67.5 -32q61 0 84 42t23 136v294h67v-525h-62v61q-40 -70 -128 -70q-75 0 -106 43t-31 140v351z" />
    <glyph glyph-name="v" unicode="v" horiz-adv-x="388" 
d="M12 525h71l113 -460l113 460h67l-135 -525h-94z" />
    <glyph glyph-name="w" unicode="w" horiz-adv-x="634" 
d="M12 525h69l93 -458l99 458h88l99 -458l93 458h69l-113 -525h-91l-101 468l-100 -468h-91z" />
    <glyph glyph-name="x" unicode="x" horiz-adv-x="390" 
d="M16 525h77l103 -192l102 192h71l-139 -247l158 -278h-78l-118 212l-119 -212h-71l155 273z" />
    <glyph glyph-name="y" unicode="y" horiz-adv-x="388" 
d="M12 525h71l113 -460l113 460h67l-135 -525q-27 -105 -57 -150t-89 -45q-17 0 -45 6v62q10 -2 24 -2q36 0 57.5 21t32.5 66l10 42h-27z" />
    <glyph glyph-name="z" unicode="z" horiz-adv-x="343" 
d="M50 525h265v-68l-220 -395h220v-62h-287v69l220 394h-198v62z" />
    <glyph glyph-name="braceleft" unicode="{" horiz-adv-x="506" 
d="M406 748v-54h-19q-68 0 -90 -26.5t-22 -100.5v-122q0 -80 -19.5 -118.5t-79.5 -55.5q60 -17 79.5 -55.5t19.5 -118.5v-122q0 -73 21 -100t87 -27h23v-53h-24q-103 0 -136 38.5t-33 146.5v124q0 73 -24 103t-79 38v53q55 7 79 37t24 104v123q0 108 33.5 147t135.5 39h24z
" />
    <glyph glyph-name="bar" unicode="|" horiz-adv-x="518" 
d="M287 793v-1034h-55v1034h55z" />
    <glyph glyph-name="braceright" unicode="}" horiz-adv-x="506" 
d="M100 694v54h24q102 0 135.5 -39t33.5 -147v-123q0 -74 24 -104t79 -37v-53q-55 -8 -79 -38t-24 -103v-124q0 -108 -33 -146.5t-136 -38.5h-24v53h23q66 0 87 27t21 100v122q0 80 19.5 118.5t79.5 55.5q-60 17 -79.5 55.5t-19.5 118.5v122q0 74 -22 100.5t-90 26.5h-19z
" />
    <glyph glyph-name="asciitilde" unicode="~" horiz-adv-x="861" 
d="M772 323q-102 -72 -196 -72q-54 0 -146 34.5t-144 34.5q-81 0 -196 -80v57q106 73 196 73q55 0 148 -35t142 -35q83 0 196 80v-57z" />
    <glyph glyph-name="currency" unicode="&#xa4;" horiz-adv-x="626" 
d="M182 608q58 46 131 46q76 0 132 -46l104 104l33 -33l-104 -104q45 -58 45 -131q0 -72 -45 -130l104 -105l-33 -33l-104 104q-58 -46 -132 -46q-72 0 -131 46l-104 -104l-33 33l104 105q-46 60 -46 130q0 71 46 131l-104 104l33 33zM476 445q0 67 -47 114.5t-115 47.5
t-116 -47.5t-48 -114.5t48 -115.5t116 -48.5t115 48.5t47 115.5z" />
    <glyph glyph-name="brokenbar" unicode="&#xa6;" horiz-adv-x="518" 
d="M287 725v-382h-55v382h55zM287 209v-382h-55v382h55z" />
    <glyph glyph-name="section" unicode="&#xa7;" horiz-adv-x="518" 
d="M413 599h-65v25q0 37 -20 53.5t-63 16.5q-104 0 -104 -63q0 -34 22 -53.5t81 -49.5l75 -38q63 -31 91 -63.5t28 -82.5q0 -75 -66 -128q33 -48 33 -96q0 -64 -44 -98t-127 -34q-88 0 -128.5 28t-40.5 91v55h66v-38q0 -76 97 -76q107 0 107 71q0 33 -22 52.5t-81 49.5
l-75 37q-62 29 -90.5 63t-28.5 84q0 75 66 128q-33 48 -33 95q0 130 171 130q151 0 151 -117v-42zM167 498q-41 -33 -41 -89q0 -29 22 -50.5t69 -44.5l131 -64q42 34 42 90q0 30 -21.5 50.5t-69.5 43.5z" />
    <glyph glyph-name="copyright" unicode="&#xa9;" horiz-adv-x="861" 
d="M430 735q154 0 262 -107t108 -263q0 -157 -108.5 -263.5t-261.5 -106.5q-151 0 -260 108t-109 262q0 149 106 259.5t263 110.5zM430 695q-138 0 -233.5 -98t-95.5 -232q0 -139 98 -234.5t231 -95.5t231.5 95t98.5 235q0 141 -97.5 235.5t-232.5 94.5zM541 462
q-9 40 -37.5 62.5t-71.5 22.5q-61 0 -97.5 -48.5t-36.5 -134.5q0 -84 37 -132.5t97 -48.5q45 0 76 26.5t39 71.5h59q-6 -63 -55.5 -104t-121.5 -41q-88 0 -140.5 61.5t-52.5 169.5q0 103 55.5 165t142.5 62q68 0 114 -36.5t52 -95.5h-59z" />
    <glyph glyph-name="guillemotleft" unicode="&#xab;" horiz-adv-x="398" 
d="M139 103l-90 162l90 163h72l-88 -163l88 -162h-72zM289 103l-90 162l90 163h73l-90 -163l90 -162h-73z" />
    <glyph glyph-name="logicalnot" unicode="&#xac;" horiz-adv-x="861" 
d="M733 304v-267h-62v202h-543v65h605z" />
    <glyph glyph-name="registered" unicode="&#xae;" horiz-adv-x="861" 
d="M430 735q159 0 264.5 -108.5t105.5 -261.5q0 -158 -109 -264t-261 -106t-260.5 108t-108.5 262q0 149 104.5 259.5t264.5 110.5zM430 695q-140 0 -234.5 -99.5t-94.5 -230.5q0 -137 97.5 -233.5t231.5 -96.5q133 0 231.5 96t98.5 233q0 142 -97 236.5t-233 94.5zM286 158
v426h155q89 0 132.5 -28.5t43.5 -89.5q0 -44 -27 -74.5t-73 -36.5l95 -197h-74l-89 187h-99v-187h-64zM350 541v-153h79q65 0 93.5 16t28.5 58t-29.5 60.5t-92.5 18.5h-79z" />
    <glyph glyph-name="degree" unicode="&#xb0;" horiz-adv-x="339" 
d="M170 759q58 0 98.5 -41t40.5 -99q0 -57 -41 -98.5t-99 -41.5t-98.5 40.5t-40.5 99.5q0 58 41 99t99 41zM274 619q0 44 -30.5 74.5t-73.5 30.5q-44 0 -74.5 -31t-30.5 -74q0 -44 30.5 -74.5t74.5 -30.5t74 30.5t30 74.5z" />
    <glyph glyph-name="plusminus" unicode="&#xb1;" horiz-adv-x="861" 
d="M456 592v-176h277v-49h-277v-175h-50v175h-278v49h278v176h50zM733 77v-49h-605v49h605z" />
    <glyph glyph-name="mu" unicode="&#xb5;" horiz-adv-x="561" 
d="M104 541h70l-63 -299q-8 -36 -8 -70q0 -59 28.5 -90t83.5 -31q63 0 109 53t68 156l61 281h70l-82 -388q-11 -50 -11 -67q0 -35 34 -35q9 0 19 2l-11 -55q-26 -7 -43 -7q-70 0 -70 75v7q-21 -39 -60.5 -60.5t-90.5 -21.5q-94 0 -135 79l-58 -281h-70z" />
    <glyph glyph-name="mu" unicode="&#x3bc;" horiz-adv-x="561" 
d="M104 541h70l-63 -299q-8 -36 -8 -70q0 -59 28.5 -90t83.5 -31q63 0 109 53t68 156l61 281h70l-82 -388q-11 -50 -11 -67q0 -35 34 -35q9 0 19 2l-11 -55q-26 -7 -43 -7q-70 0 -70 75v7q-21 -39 -60.5 -60.5t-90.5 -21.5q-94 0 -135 79l-58 -281h-70z" />
    <glyph glyph-name="paragraph" unicode="&#xb6;" horiz-adv-x="518" 
d="M475 711h-65v-711h-41v711h-95v-711h-41v395q-86 0 -138 49.5t-52 126.5q0 78 54 126.5t144 48.5h234v-35z" />
    <glyph glyph-name="periodcentered" unicode="&#xb7;" horiz-adv-x="258" 
d="M73 374q0 22 16.5 39t39.5 17t39.5 -16.5t16.5 -39.5t-16.5 -39.5t-39.5 -16.5t-39.5 16.5t-16.5 39.5z" />
    <glyph glyph-name="periodcentered" unicode="&#x2219;" horiz-adv-x="258" 
d="M73 374q0 22 16.5 39t39.5 17t39.5 -16.5t16.5 -39.5t-16.5 -39.5t-39.5 -16.5t-39.5 16.5t-16.5 39.5z" />
    <glyph glyph-name="guillemotright" unicode="&#xbb;" horiz-adv-x="398" 
d="M110 428l89 -163l-89 -162h-74l90 162l-90 163h74zM259 428l91 -163l-91 -162h-72l89 162l-89 163h72z" />
    <glyph glyph-name="afii10023" unicode="&#x401;" horiz-adv-x="425" 
d="M62 749h335v-72h-260v-249h241v-70h-241v-286h260v-72h-335v749zM108 847v94h80v-94h-80zM269 847v94h80v-94h-80z" />
    <glyph glyph-name="afii10051" unicode="&#x402;" horiz-adv-x="581" 
d="M7 748h397v-72h-161v-248h118q106 0 147 -40.5t41 -135.5v-67q0 -101 -38.5 -143t-135.5 -42h-61v70h48q59 0 85.5 21.5t26.5 73.5v91q0 57 -23 79.5t-84 22.5h-124v-358h-75v676h-161v72z" />
    <glyph glyph-name="afii10052" unicode="&#x403;" horiz-adv-x="419" 
d="M62 749h347v-72h-272v-677h-75v749zM177 815l105 177h90l-141 -177h-54z" />
    <glyph glyph-name="afii10053" unicode="&#x404;" horiz-adv-x="510" 
d="M478 507h-80v9q0 95 -22 132.5t-87 37.5h-43q-67 0 -89 -39.5t-22 -142.5v-76h174v-70h-174v-110q0 -116 18 -150.5t93 -34.5h41q72 0 91.5 33.5t19.5 137.5v18h80v-44q0 -111 -43 -164t-133 -53h-72q-54 0 -90 16.5t-54 49.5t-24.5 71t-6.5 92v284q0 133 45 193.5
t149 60.5h40q102 0 145.5 -50.5t43.5 -165.5v-35z" />
    <glyph glyph-name="afii10054" unicode="&#x405;" horiz-adv-x="524" 
d="M476 544h-80v26q0 65 -21 90.5t-78 25.5h-61q-54 0 -74 -22.5t-20 -78.5v-81q0 -38 24.5 -53t115.5 -30q110 -17 152 -49t42 -111v-108q0 -83 -43.5 -122.5t-135.5 -39.5h-67q-107 0 -144.5 47.5t-37.5 166.5v38h78v-64q0 -65 21.5 -90.5t79.5 -25.5h74q54 0 74.5 22.5
t20.5 78.5v65q0 31 -6 50t-14.5 31t-34 19.5t-47 11.5t-72.5 10q-90 11 -125 43t-35 109v94q0 82 44 121.5t135 39.5h54q99 0 140 -44t41 -147v-23z" />
    <glyph glyph-name="afii10055" unicode="&#x406;" horiz-adv-x="205" 
d="M140 749v-749h-75v749h75z" />
    <glyph glyph-name="afii10056" unicode="&#x407;" horiz-adv-x="205" 
d="M140 749v-749h-75v749h75zM-18 847v94h80v-94h-80zM143 847v94h80v-94h-80z" />
    <glyph glyph-name="afii10057" unicode="&#x408;" horiz-adv-x="443" 
d="M306 749h75v-584q0 -99 -40 -136.5t-143 -37.5t-143 37.5t-40 136.5v88h75v-60q0 -75 21 -103.5t86 -28.5t87 28.5t22 103.5v556z" />
    <glyph glyph-name="afii10058" unicode="&#x409;" horiz-adv-x="932" 
d="M113 749h448v-321h127q122 0 167 -35.5t45 -149.5v-57q0 -113 -45 -149.5t-167 -36.5h-202v677h-298v-459q0 -110 -28.5 -164t-97.5 -54h-47v73h18q45 0 62.5 26t17.5 111v539zM561 358v-288h116q84 0 113.5 16.5t29.5 78.5v99q0 61 -29.5 77.5t-113.5 16.5h-116z" />
    <glyph glyph-name="afii10059" unicode="&#x40a;" horiz-adv-x="881" 
d="M137 749v-321h298v321h75v-321h127q122 0 167 -35.5t45 -149.5v-57q0 -113 -45 -149.5t-167 -36.5h-202v358h-298v-358h-75v749h75zM510 358v-288h116q84 0 113.5 16.5t29.5 78.5v99q0 61 -29.5 77.5t-113.5 16.5h-116z" />
    <glyph glyph-name="afii10060" unicode="&#x40b;" horiz-adv-x="603" 
d="M7 748h397v-72h-161v-248h125q104 0 142 -39.5t38 -136.5v-252h-75v257q0 57 -22.5 79t-83.5 22h-124v-358h-75v676h-161v72z" />
    <glyph glyph-name="afii10061" unicode="&#x40c;" horiz-adv-x="532" 
d="M137 749v-321h39l238 321h84l-265 -355l299 -394h-94l-271 358h-30v-358h-75v749h75zM231 815l105 177h90l-141 -177h-54z" />
    <glyph glyph-name="afii10062" unicode="&#x40e;" horiz-adv-x="487" 
d="M0 749h80l173 -519l158 519h76l-196 -632q-18 -59 -50 -92t-67 -33h-70v73h36q33 0 48.5 11t23.5 49zM313 932h50q0 -69 -27 -93t-98 -24q-69 0 -96.5 24t-27.5 93h50q0 -39 18 -51.5t56 -12.5q39 0 57 12.5t18 51.5z" />
    <glyph glyph-name="afii10145" unicode="&#x40f;" horiz-adv-x="572" 
d="M137 749v-677h298v677h75v-749h-189v-182h-70v182h-189v749h75z" />
    <glyph glyph-name="afii10017" unicode="&#x410;" horiz-adv-x="504" 
d="M141 231h221l-106 417zM215 749h86l203 -749h-81l-42 161h-260l-47 -161h-74z" />
    <glyph glyph-name="afii10018" unicode="&#x411;" horiz-adv-x="524" 
d="M137 358v-288h116q84 0 113.5 16.5t29.5 78.5v99q0 61 -29.5 77.5t-113.5 16.5h-116zM62 0v749h364v-70h-289v-251h127q122 0 167 -35.5t45 -149.5v-57q0 -113 -45 -149.5t-167 -36.5h-202z" />
    <glyph glyph-name="afii10019" unicode="&#x412;" horiz-adv-x="542" 
d="M137 679v-251h114q85 0 116.5 17.5t31.5 72.5v84q0 48 -32.5 62.5t-115.5 14.5h-114zM62 0v749h197q121 0 168 -30.5t47 -125.5v-66q0 -54 -21.5 -85t-70.5 -47q55 -15 80 -51.5t25 -102.5v-72q0 -96 -48.5 -132.5t-165.5 -36.5h-211zM137 358v-288h119q88 0 122 20.5
t34 86.5v69q0 67 -34.5 89.5t-121.5 22.5h-119z" />
    <glyph glyph-name="afii10020" unicode="&#x413;" horiz-adv-x="419" 
d="M62 749h347v-72h-272v-677h-75v749z" />
    <glyph glyph-name="afii10021" unicode="&#x414;" horiz-adv-x="575" 
d="M439 677h-243v-328q0 -121 -9.5 -167.5t-41.5 -109.5h294v605zM12 72h54q34 71 44.5 119.5t10.5 165.5v392h393v-677h49v-254h-70v182h-411v-182h-70v254z" />
    <glyph glyph-name="afii10022" unicode="&#x415;" horiz-adv-x="425" 
d="M62 749h335v-72h-260v-249h241v-70h-241v-286h260v-72h-335v749z" />
    <glyph glyph-name="afii10024" unicode="&#x416;" horiz-adv-x="771" 
d="M423 749v-321h24l213 321h82l-235 -354l264 -395h-87l-240 358h-21v-358h-75v358h-21l-240 -358h-87l264 395l-235 354h82l213 -321h24v321h75z" />
    <glyph glyph-name="afii10025" unicode="&#x417;" horiz-adv-x="506" 
d="M141 523h-72v10q0 121 34 173t125 52h58q90 0 127.5 -48.5t37.5 -157.5q0 -76 -21.5 -113t-79.5 -51q56 -20 78.5 -58t22.5 -107q0 -128 -34 -180t-133 -52h-61q-96 0 -132 51.5t-36 173.5v30h75v-35q0 -88 18.5 -119t82.5 -31h42q54 0 76 28t22 94v59q0 62 -22 84.5
t-86 22.5h-50v70h53q56 0 80.5 22t24.5 75v50q0 66 -22.5 94t-73.5 28h-40q-61 0 -77.5 -31t-16.5 -120v-14z" />
    <glyph glyph-name="afii10026" unicode="&#x418;" horiz-adv-x="589" 
d="M137 749v-666l278 666h112v-749h-75v654l-273 -654h-117v749h75z" />
    <glyph glyph-name="afii10027" unicode="&#x419;" horiz-adv-x="589" 
d="M137 749v-666l278 666h112v-749h-75v654l-273 -654h-117v749h75zM367 932h50q0 -69 -27 -93t-98 -24q-69 0 -96.5 24t-27.5 93h50q0 -39 18 -51.5t56 -12.5q39 0 57 12.5t18 51.5z" />
    <glyph glyph-name="afii10028" unicode="&#x41a;" horiz-adv-x="532" 
d="M137 749v-321h39l238 321h84l-265 -355l299 -394h-94l-271 358h-30v-358h-75v749h75z" />
    <glyph glyph-name="afii10029" unicode="&#x41b;" horiz-adv-x="623" 
d="M113 749h448v-749h-75v677h-298v-459q0 -110 -28.5 -164t-97.5 -54h-47v73h18q45 0 62.5 26t17.5 111v539z" />
    <glyph glyph-name="afii10030" unicode="&#x41c;" horiz-adv-x="790" 
d="M62 0v749h119l209 -659l224 659h114v-749h-68v685l-233 -685h-75l-222 685v-685h-68z" />
    <glyph glyph-name="afii10031" unicode="&#x41d;" horiz-adv-x="572" 
d="M137 749v-321h298v321h75v-749h-75v358h-298v-358h-75v749h75z" />
    <glyph glyph-name="afii10032" unicode="&#x41e;" horiz-adv-x="563" 
d="M250 758h64q105 0 149.5 -60.5t44.5 -193.5v-260q0 -133 -44.5 -193t-149.5 -60h-64q-105 0 -150 60t-45 193v260q0 133 45 193.5t150 60.5zM305 686h-46q-75 0 -99.5 -39.5t-24.5 -142.5v-260q0 -103 24 -142t99 -39h46q75 0 99.5 39t24.5 142v260q0 103 -24 142.5
t-99 39.5z" />
    <glyph glyph-name="afii10033" unicode="&#x41f;" horiz-adv-x="572" 
d="M62 0v749h448v-749h-75v677h-298v-677h-75z" />
    <glyph glyph-name="afii10034" unicode="&#x420;" horiz-adv-x="524" 
d="M137 679v-317h116q84 0 113.5 16.5t29.5 77.5v129q0 62 -29 78t-114 16h-116zM137 292v-292h-75v749h202q122 0 167 -35.5t45 -148.5v-87q0 -114 -45 -150t-167 -36h-127z" />
    <glyph glyph-name="afii10035" unicode="&#x421;" horiz-adv-x="508" 
d="M478 507h-80v9q0 94 -23 132t-88 38h-41q-67 0 -89 -39.5t-22 -142.5v-252q0 -50 1.5 -77t7.5 -52.5t18.5 -36t32 -17t51.5 -6.5h42q71 0 90.5 33.5t19.5 137.5v18h80v-44q0 -111 -43 -164t-133 -53h-72q-54 0 -90 17.5t-54 52t-24.5 73t-6.5 93.5v277q0 133 45 193.5
t149 60.5h40q102 0 145.5 -50.5t43.5 -165.5v-35z" />
    <glyph glyph-name="afii10036" unicode="&#x422;" horiz-adv-x="411" 
d="M7 749h397v-72h-161v-677h-75v677h-161v72z" />
    <glyph glyph-name="afii10037" unicode="&#x423;" horiz-adv-x="487" 
d="M0 749h80l173 -519l158 519h76l-196 -632q-18 -59 -50 -92t-67 -33h-70v73h36q33 0 48.5 11t23.5 49z" />
    <glyph glyph-name="afii10038" unicode="&#x424;" horiz-adv-x="783" 
d="M354 749h75v-77h41q147 0 202.5 -58t55.5 -203v-56q0 -148 -54 -205.5t-201 -57.5h-44v-92h-75v92h-44q-147 0 -201 57.5t-54 205.5v57q0 145 55.5 202.5t202.5 57.5h41v77zM429 602v-440h45q59 0 93.5 9.5t52.5 34.5t23 56t5 87v69q0 58 -6 89.5t-27 55t-58.5 31.5
t-103.5 8h-24zM354 162v440h-25q-66 0 -103.5 -8t-58 -31.5t-26.5 -55t-6 -89.5v-68q0 -56 5.5 -87t23.5 -56.5t52.5 -35t93.5 -9.5h44z" />
    <glyph glyph-name="afii10039" unicode="&#x425;" horiz-adv-x="465" 
d="M15 749h80l141 -308l139 308h74l-169 -370l183 -379h-83l-152 332l-151 -332h-75l183 394z" />
    <glyph glyph-name="afii10040" unicode="&#x426;" horiz-adv-x="584" 
d="M137 749v-677h298v677h75v-677h49v-254h-70v182h-427v749h75z" />
    <glyph glyph-name="afii10041" unicode="&#x427;" horiz-adv-x="565" 
d="M55 749h75v-214q0 -127 90 -127h135q47 0 73 13v328h75v-749h-75v358q-36 -22 -86 -22h-122q-75 0 -120 42t-45 119v252z" />
    <glyph glyph-name="afii10042" unicode="&#x428;" horiz-adv-x="819" 
d="M137 749v-677h235v677h75v-677h235v677h75v-749h-695v749h75z" />
    <glyph glyph-name="afii10043" unicode="&#x429;" horiz-adv-x="831" 
d="M372 749h75v-677h235v677h75v-677h49v-254h-70v182h-674v749h75v-677h235v677z" />
    <glyph glyph-name="afii10044" unicode="&#x42a;" horiz-adv-x="601" 
d="M214 358v-288h116q84 0 113.5 16.5t29.5 78.5v99q0 61 -29.5 77.5t-113.5 16.5h-116zM-10 749h224v-321h127q122 0 167 -35.5t45 -149.5v-57q0 -113 -45 -149.5t-167 -36.5h-202v679h-149v70z" />
    <glyph glyph-name="afii10045" unicode="&#x42b;" horiz-adv-x="736" 
d="M137 358v-288h116q84 0 113.5 16.5t29.5 78.5v99q0 61 -29.5 77.5t-113.5 16.5h-116zM137 749v-321h127q122 0 167 -35.5t45 -149.5v-57q0 -113 -45 -149.5t-167 -36.5h-202v749h75zM599 0v749h75v-749h-75z" />
    <glyph glyph-name="afii10046" unicode="&#x42c;" horiz-adv-x="508" 
d="M137 358v-288h116q84 0 113.5 16.5t29.5 78.5v99q0 61 -29.5 77.5t-113.5 16.5h-116zM137 749v-321h127q122 0 167 -35.5t45 -149.5v-57q0 -113 -45 -149.5t-167 -36.5h-202v749h75z" />
    <glyph glyph-name="afii10047" unicode="&#x42d;" horiz-adv-x="510" 
d="M112 507h-80v35q0 115 43.5 165.5t145.5 50.5h40q104 0 149 -60.5t45 -193.5v-284q0 -54 -6.5 -92t-24.5 -71t-54 -49.5t-90 -16.5h-72q-90 0 -133 53t-43 164v44h80v-18q0 -104 19.5 -137.5t91.5 -33.5h41q32 0 51.5 6.5t32 17t18.5 36t7.5 52.5t1.5 77v106h-174v70h174
v76q0 103 -22 142.5t-89 39.5h-43q-65 0 -87 -37.5t-22 -132.5v-9z" />
    <glyph glyph-name="afii10048" unicode="&#x42e;" horiz-adv-x="746" 
d="M136 749v-321h103v76q0 133 45 193.5t149 60.5h64q105 0 150 -60.5t45 -193.5v-260q0 -133 -45 -193t-150 -60h-64q-104 0 -149 60.5t-45 192.5v114h-103v-358h-75v749h75zM487 686h-45q-75 0 -99 -39.5t-24 -142.5v-260q0 -103 24 -142t99 -39h45q75 0 100 39t25 142
v260q0 103 -25 142.5t-100 39.5z" />
    <glyph glyph-name="afii10049" unicode="&#x42f;" horiz-adv-x="508" 
d="M368 392v287h-115q-84 0 -114.5 -17t-30.5 -78v-99q0 -61 30 -77t115 -16h115zM443 749v-749h-75v322h-113l-163 -322h-88l171 324q-82 7 -114.5 46.5t-32.5 136.5v57q0 113 45.5 149t168.5 36h201z" />
    <glyph glyph-name="afii10065" unicode="&#x430;" horiz-adv-x="423" 
d="M131 381h-69v24q0 69 36.5 99t116.5 30q88 0 121 -32.5t33 -119.5v-382h-67v48q-18 -32 -47.5 -44.5t-78.5 -12.5q-130 0 -130 133v70q0 133 138 133q84 0 118 -44v81q0 65 -17 86.5t-73 21.5q-43 0 -62 -14.5t-19 -51.5v-25zM202 53q57 0 79.5 25.5t22.5 85.5
q0 59 -19.5 80t-74.5 21q-56 0 -75 -23t-19 -89q0 -53 19.5 -76.5t66.5 -23.5z" />
    <glyph glyph-name="afii10066" unicode="&#x431;" horiz-adv-x="437" 
d="M389 278v-95q0 -99 -36.5 -145.5t-131.5 -46.5q-104 0 -138.5 52t-34.5 186v175q0 116 42 183t117 67q62 0 78 7t16 34h59q0 -61 -29.5 -82t-102.5 -21q-60 0 -88 -36t-30 -137q16 42 40.5 59.5t71.5 17.5q103 0 135 -45t32 -173zM220 429q-59 0 -82 -27.5t-23 -105.5
v-88q0 -87 22 -118.5t84 -31.5q63 0 82 29.5t19 120.5v88q0 70 -23.5 101.5t-78.5 31.5z" />
    <glyph glyph-name="afii10067" unicode="&#x432;" horiz-adv-x="425" 
d="M54 0v525h170q138 0 138 -121v-35q0 -30 -17.5 -56t-59.5 -31q92 -8 92 -106v-35q0 -141 -132 -141h-191zM121 463v-153h73q24 0 38 1t30 5.5t23 14.5t7 26v40q0 37 -16.5 51.5t-57.5 14.5h-97zM121 248v-186h100q50 0 68 17.5t18 59.5v33q0 38 -19.5 57t-74.5 19h-92z
" />
    <glyph glyph-name="afii10068" unicode="&#x433;" horiz-adv-x="320" 
d="M54 525h260v-62h-193v-463h-67v525z" />
    <glyph glyph-name="afii10069" unicode="&#x434;" horiz-adv-x="454" 
d="M95 525h303v-463h44v-202h-63v140h-304v-140h-63v202h37q29 50 37.5 92t8.5 149v222zM331 463h-172v-168q0 -93 -9 -143t-34 -90h215v401z" />
    <glyph glyph-name="afii10070" unicode="&#x435;" horiz-adv-x="439" 
d="M391 248h-273v-48q0 -85 18 -113.5t83 -28.5q62 0 85.5 18.5t23.5 70.5v16h63v-16q0 -84 -41 -120t-131 -36q-96 0 -133.5 47t-37.5 164v124q0 116 37.5 162t134.5 46q96 0 133.5 -46t37.5 -162v-78zM118 310h206v38q0 71 -21 97.5t-82 26.5q-60 0 -81.5 -26.5
t-21.5 -97.5v-38z" />
    <glyph glyph-name="afii10072" unicode="&#x436;" horiz-adv-x="607" 
d="M270 525h67v-215h26l140 215h73l-155 -236l186 -289h-79l-158 248h-33v-248h-67v248h-33l-158 -248h-79l186 289l-155 236h73l140 -215h26v215z" />
    <glyph glyph-name="afii10073" unicode="&#x437;" horiz-adv-x="422" 
d="M117 382h-70v17q0 72 33.5 103.5t103.5 31.5h51q132 0 132 -121v-30q0 -88 -67 -105q37 -7 55.5 -33.5t18.5 -62.5v-70q0 -121 -137 -121h-51q-84 0 -117.5 40.5t-33.5 126.5h70q0 -61 21.5 -83t70.5 -22h28q45 0 62 15t17 52v49q0 79 -67 79h-78v62h75q63 0 63 67v29
q0 66 -67 66h-34q-44 0 -61.5 -16t-17.5 -57v-17z" />
    <glyph glyph-name="afii10074" unicode="&#x438;" horiz-adv-x="457" 
d="M117 525v-438l199 438h87v-525h-63v443l-200 -443h-86v525h63z" />
    <glyph glyph-name="afii10075" unicode="&#x439;" horiz-adv-x="457" 
d="M117 525v-438l199 438h87v-525h-63v443l-200 -443h-86v525h63zM130 669h40q0 -29 15 -38.5t49 -9.5q32 0 43 9t11 39h41q0 -54 -22 -73.5t-77 -19.5q-56 0 -78 19.5t-22 73.5z" />
    <glyph glyph-name="afii10076" unicode="&#x43a;" horiz-adv-x="391" 
d="M121 525v-215h26l141 215h73l-155 -237l185 -288h-79l-158 248h-33v-248h-67v525h67z" />
    <glyph glyph-name="afii10077" unicode="&#x43b;" horiz-adv-x="466" 
d="M85 525h327v-525h-67v463h-193v-311q0 -152 -106 -152h-35v65h10q38 0 51 16.5t13 72.5v371z" />
    <glyph glyph-name="afii10078" unicode="&#x43c;" horiz-adv-x="586" 
d="M54 525h107l132 -448l132 448h107v-525h-63v475l-143 -475h-66l-143 475v-475h-63v525z" />
    <glyph glyph-name="afii10079" unicode="&#x43d;" 
d="M121 525v-215h193v215h67v-525h-67v248h-193v-248h-67v525h67z" />
    <glyph glyph-name="afii10080" unicode="&#x43e;" horiz-adv-x="440" 
d="M392 326v-124q0 -117 -37.5 -164t-133.5 -47t-134.5 47t-38.5 163v124q0 116 38.5 162.5t135.5 46.5q96 0 133 -46t37 -162zM118 326v-125q0 -83 19.5 -113t83.5 -30q63 0 82 29.5t19 112.5v125q0 84 -18.5 113t-82.5 29t-83.5 -29t-19.5 -112z" />
    <glyph glyph-name="afii10081" unicode="&#x43f;" 
d="M314 0v463h-193v-463h-67v525h327v-525h-67z" />
    <glyph glyph-name="afii10082" unicode="&#x440;" 
d="M117 525v-62q49 71 131 71q78 0 108.5 -56t30.5 -183v-81q0 -116 -31.5 -169.5t-109.5 -53.5q-82 0 -125 67v-252h-67v719h63zM121 304v-84q0 -89 22 -128t84 -39q51 0 70.5 38.5t19.5 125.5v90q0 88 -19.5 126.5t-70.5 38.5q-62 0 -84 -39t-22 -129z" />
    <glyph glyph-name="afii10083" unicode="&#x441;" horiz-adv-x="419" 
d="M376 353h-70v9q0 58 -21 81.5t-71 23.5q-61 0 -78.5 -29t-17.5 -112v-125q0 -83 18.5 -113t80.5 -30q59 0 78.5 24.5t19.5 90.5v21h70v-22q0 -95 -39.5 -138t-125.5 -43q-96 0 -134 46.5t-38 163.5v124q0 116 38 162.5t135 46.5q82 0 118.5 -36.5t36.5 -119.5v-25z" />
    <glyph glyph-name="afii10084" unicode="&#x442;" horiz-adv-x="369" 
d="M6 525h357v-62h-145v-463h-67v463h-145v62z" />
    <glyph glyph-name="afii10085" unicode="&#x443;" horiz-adv-x="388" 
d="M12 525h71l113 -460l113 460h67l-135 -525q-27 -105 -57 -150t-89 -45q-17 0 -45 6v62q10 -2 24 -2q36 0 57.5 21t32.5 66l10 42h-27z" />
    <glyph glyph-name="afii10086" unicode="&#x444;" horiz-adv-x="659" 
d="M296 689h67v-217q41 62 106 62q81 0 111.5 -52.5t30.5 -185.5v-81q0 -122 -32 -173t-112 -51q-79 0 -104 64v-246h-67v246q-25 -64 -104 -64q-80 0 -112 51t-32 173v81q0 133 30.5 185.5t111.5 52.5q65 0 106 -62v217zM363 284v-52v-7q0 -40 0.5 -59t5 -45.5t13 -38
t25.5 -20.5t42 -9q52 0 72 39.5t20 126.5v91q0 86 -19.5 124t-68.5 38q-54 0 -72 -37.5t-18 -150.5zM296 232v52q0 113 -18 150.5t-72 37.5q-49 0 -68.5 -38t-19.5 -124v-90q0 -87 20 -127t72 -40q25 0 42 9t25.5 20.5t13 38t5 45.5t0.5 59v7z" />
    <glyph glyph-name="afii10087" unicode="&#x445;" horiz-adv-x="390" 
d="M16 525h77l103 -192l102 192h71l-139 -247l158 -278h-78l-118 212l-119 -212h-71l155 273z" />
    <glyph glyph-name="afii10088" unicode="&#x446;" horiz-adv-x="440" 
d="M121 525v-463h192v463h67v-463h45v-202h-63v140h-308v525h67z" />
    <glyph glyph-name="afii10089" unicode="&#x447;" 
d="M54 525h67v-132q0 -62 17.5 -83t62.5 -21q72 0 113 28v208h67v-525h-67v265h-3q-14 -21 -40.5 -29.5t-89.5 -8.5q-127 0 -127 147v151z" />
    <glyph glyph-name="afii10090" unicode="&#x448;" horiz-adv-x="645" 
d="M121 525v-463h168v463h67v-463h168v463h67v-525h-537v525h67z" />
    <glyph glyph-name="afii10091" unicode="&#x449;" horiz-adv-x="651" 
d="M121 525v-463h168v463h67v-463h168v463h67v-463h45v-202h-63v140h-519v525h67z" />
    <glyph glyph-name="afii10092" unicode="&#x44a;" horiz-adv-x="461" 
d="M0 525h174v-215h116q139 0 139 -134v-35q0 -141 -133 -141h-189v463h-107v62zM174 248v-186h100q50 0 67.5 21t17.5 80q0 49 -19 67t-75 18h-91z" />
    <glyph glyph-name="afii10093" unicode="&#x44b;" horiz-adv-x="578" 
d="M121 525v-215h116q139 0 139 -134v-35q0 -141 -133 -141h-189v525h67zM121 248v-186h100q50 0 67.5 21t17.5 80q0 49 -19 67t-75 18h-91zM524 525v-525h-67v525h67z" />
    <glyph glyph-name="afii10094" unicode="&#x44c;" horiz-adv-x="408" 
d="M121 525v-215h116q139 0 139 -134v-35q0 -141 -133 -141h-189v525h67zM121 248v-186h100q50 0 67.5 21t17.5 80q0 49 -19 67t-75 18h-91z" />
    <glyph glyph-name="afii10095" unicode="&#x44d;" horiz-adv-x="418" 
d="M112 353h-70v25q0 81 42 118.5t126 37.5q95 0 127.5 -45t32.5 -164v-124q0 -118 -35.5 -164t-130.5 -46q-87 0 -128.5 43t-41.5 138v22h70v-21q0 -65 21 -90t80 -25q62 0 78.5 29t16.5 114v47h-135v62h135v16q0 84 -16 112.5t-77 28.5q-51 0 -73 -24t-22 -81v-9z" />
    <glyph glyph-name="afii10096" unicode="&#x44e;" horiz-adv-x="590" 
d="M121 525v-215h77v15q0 116 38 162.5t135 46.5t134 -46t37 -162v-125q0 -117 -37.5 -163.5t-134.5 -46.5q-96 0 -134 47t-38 163v47h-77v-248h-67v525h67zM268 326v-125q0 -83 19 -113t83 -30t83 29.5t19 112.5v125q0 83 -19 112.5t-83 29.5q-63 0 -82.5 -29t-19.5 -112z
" />
    <glyph glyph-name="afii10097" unicode="&#x44f;" horiz-adv-x="419" 
d="M365 525v-525h-67v216h-75l-111 -216h-70l108 217q-51 7 -79.5 41.5t-28.5 90.5v35q0 141 137 141h186zM298 278v185h-100q-50 0 -68 -21.5t-18 -79.5q0 -48 19 -66t75 -18h92z" />
    <glyph glyph-name="afii10071" unicode="&#x451;" horiz-adv-x="439" 
d="M391 248h-273v-48q0 -85 18 -113.5t83 -28.5q62 0 85.5 18.5t23.5 70.5v16h63v-16q0 -84 -41 -120t-131 -36q-96 0 -133.5 47t-37.5 164v124q0 116 37.5 162t134.5 46q96 0 133.5 -46t37.5 -162v-78zM118 310h206v38q0 71 -21 97.5t-82 26.5q-60 0 -81.5 -26.5
t-21.5 -97.5v-38zM107 625v88h67v-88h-67zM267 625v88h67v-88h-67z" />
    <glyph glyph-name="afii10099" unicode="&#x452;" 
d="M121 762v-110h137v-55h-137v-126q42 63 123 63q74 0 105.5 -43.5t31.5 -139.5v-330q0 -117 -37.5 -164t-133.5 -47v67q66 0 85 29t19 113v314q0 74 -18 106.5t-67 32.5q-61 0 -84.5 -42.5t-23.5 -136.5v-293h-67v597h-49v55h49v110h67z" />
    <glyph glyph-name="afii10100" unicode="&#x453;" horiz-adv-x="320" 
d="M54 525h260v-62h-193v-463h-67v525zM147 576l83 141h72l-113 -141h-42z" />
    <glyph glyph-name="afii10101" unicode="&#x454;" horiz-adv-x="419" 
d="M376 353h-70v9q0 58 -21 81.5t-71 23.5q-61 0 -78.5 -29t-17.5 -112v-16h135v-62h-135v-47q0 -83 18.5 -113t80.5 -30q58 0 77.5 24t19.5 90v22h70v-22q0 -96 -39 -138.5t-125 -42.5q-96 0 -134 46.5t-38 163.5v124q0 116 38 162.5t135 46.5q82 0 118.5 -36t36.5 -119
v-26z" />
    <glyph glyph-name="afii10102" unicode="&#x455;" horiz-adv-x="413" 
d="M363 389h-66v14q0 39 -15 54t-53 15h-34q-42 0 -58.5 -14.5t-16.5 -51.5v-50q0 -28 23.5 -39.5t99.5 -19.5q72 -8 99 -34.5t27 -80.5v-70q0 -121 -138 -121h-59q-74 0 -101 27t-27 97v53h66v-32q0 -49 12 -66t56 -17h47q41 0 57.5 15t16.5 52v49q0 39 -20.5 50.5
t-95.5 23.5q-78 12 -105.5 30t-27.5 70v70q0 121 138 121h47q74 0 101 -27t27 -97v-21z" />
    <glyph glyph-name="afii10103" unicode="&#x456;" horiz-adv-x="175" 
d="M54 625v88h67v-88h-67zM121 525v-525h-67v525h67z" />
    <glyph glyph-name="afii10104" unicode="&#x457;" horiz-adv-x="175" 
d="M-18 625v88h67v-88h-67zM121 525v-525h-67v525h67zM126 625v88h67v-88h-67z" />
    <glyph glyph-name="afii10105" unicode="&#x458;" horiz-adv-x="175" 
d="M54 525h67v-569q0 -84 -20 -116.5t-81 -32.5q-10 0 -24 3v61h10q32 0 40 16.5t8 67.5v570zM54 625v88h67v-88h-67z" />
    <glyph glyph-name="afii10106" unicode="&#x459;" horiz-adv-x="715" 
d="M85 525h327v-215h116q139 0 139 -134v-35q0 -141 -133 -141h-189v463h-193v-311q0 -152 -106 -152h-35v65h10q38 0 51 16.5t13 72.5v371zM412 248v-186h100q50 0 67.5 21t17.5 80q0 49 -19 67t-75 18h-91z" />
    <glyph glyph-name="afii10107" unicode="&#x45a;" horiz-adv-x="684" 
d="M121 525v-215h193v215h67v-215h116q139 0 139 -134v-35q0 -141 -133 -141h-189v248h-193v-248h-67v525h67zM381 248v-186h100q50 0 67.5 21t17.5 80q0 49 -19 67t-75 18h-91z" />
    <glyph glyph-name="afii10108" unicode="&#x45b;" 
d="M121 762v-110h137v-55h-137v-126q42 63 123 63q74 0 105.5 -43.5t31.5 -139.5v-351h-67v333q0 74 -18 106.5t-67 32.5q-61 0 -84.5 -42.5t-23.5 -136.5v-293h-67v597h-49v55h49v110h67z" />
    <glyph glyph-name="afii10109" unicode="&#x45c;" horiz-adv-x="391" 
d="M121 525v-215h26l141 215h73l-155 -237l185 -288h-79l-158 248h-33v-248h-67v525h67zM173 576l83 141h72l-113 -141h-42z" />
    <glyph glyph-name="afii10110" unicode="&#x45e;" horiz-adv-x="388" 
d="M12 525h71l113 -460l113 460h67l-135 -525q-27 -105 -57 -150t-89 -45q-17 0 -45 6v62q10 -2 24 -2q36 0 57.5 21t32.5 66l10 42h-27zM104 669h40q0 -29 15 -38.5t49 -9.5q32 0 43 9t11 39h41q0 -54 -22 -73.5t-77 -19.5q-56 0 -78 19.5t-22 73.5z" />
    <glyph glyph-name="afii10193" unicode="&#x45f;" 
d="M121 525v-463h193v463h67v-525h-130v-140h-67v140h-130v525h67z" />
    <glyph glyph-name="afii10050" unicode="&#x490;" horiz-adv-x="409" 
d="M62 749h272v66h75v-138h-272v-677h-75v749z" />
    <glyph glyph-name="afii10098" unicode="&#x491;" horiz-adv-x="320" 
d="M54 525h193v51h67v-113h-193v-463h-67v525z" />
    <glyph glyph-name="endash" unicode="&#x2013;" horiz-adv-x="518" 
d="M0 248v62h518v-62h-518z" />
    <glyph glyph-name="emdash" unicode="&#x2014;" horiz-adv-x="1034" 
d="M0 310h1034v-62h-1034v62z" />
    <glyph glyph-name="quoteleft" unicode="&#x2018;" horiz-adv-x="258" 
d="M169 539h-75v116q0 50 14 72t50 22q8 0 16 -2v-39q-19 -1 -26.5 -8.5t-7.5 -26.5v-35h29v-99z" />
    <glyph glyph-name="quoteright" unicode="&#x2019;" horiz-adv-x="258" 
d="M94 749h75v-116q0 -50 -14 -72t-50 -22q-8 0 -16 2v39q19 1 26.5 8.5t7.5 26.5v35h-29v99z" />
    <glyph glyph-name="quotesinglbase" unicode="&#x201a;" horiz-adv-x="258" 
d="M91 99h75v-116q0 -50 -14 -72t-50 -22q-8 0 -16 2v39q19 1 26.5 8.5t7.5 26.5v35h-29v99z" />
    <glyph glyph-name="quotedblleft" unicode="&#x201c;" horiz-adv-x="403" 
d="M165 539h-75v116q0 50 14 72t50 22q8 0 16 -2v-39q-19 -1 -26.5 -8.5t-7.5 -26.5v-35h29v-99zM308 539h-75v116q0 50 14 72t50 22q8 0 16 -2v-39q-19 -1 -26.5 -8.5t-7.5 -26.5v-35h29v-99z" />
    <glyph glyph-name="quotedblright" unicode="&#x201d;" horiz-adv-x="403" 
d="M95 749h75v-116q0 -50 -14 -72t-50 -22q-8 0 -16 2v39q19 1 26.5 8.5t7.5 26.5v35h-29v99zM237 749h75v-116q0 -50 -14 -72t-50 -22q-8 0 -16 2v39q19 1 26.5 8.5t7.5 26.5v35h-29v99z" />
    <glyph glyph-name="quotedblbase" unicode="&#x201e;" horiz-adv-x="403" 
d="M92 99h75v-116q0 -50 -14 -72t-50 -22q-8 0 -16 2v39q19 1 26.5 8.5t7.5 26.5v35h-29v99zM235 99h75v-116q0 -50 -14 -72t-50 -22q-8 0 -16 2v39q19 1 26.5 8.5t7.5 26.5v35h-29v99z" />
    <glyph glyph-name="dagger" unicode="&#x2020;" horiz-adv-x="403" 
d="M167 749h70v-213h116v-62h-116v-483h-70v483h-116v62h116v213z" />
    <glyph glyph-name="daggerdbl" unicode="&#x2021;" horiz-adv-x="517" 
d="M468 533h-70v30q0 67 -19 91.5t-77 24.5h-25q-60 0 -80 -28.5t-20 -102.5q0 -68 7 -180h191v-70h-188q3 -87 3 -103q0 -88 -45 -123h333v-72h-446v71q54 6 70 30t16 89l-3 108h-83v70h80q-7 129 -7 188q0 102 38 147.5t131 45.5h33q90 0 125.5 -40.5t35.5 -132.5v-43z
" />
    <glyph glyph-name="bullet" unicode="&#x2022;" horiz-adv-x="610" 
d="M305 532q61 0 104.5 -43.5t43.5 -104.5t-44 -105t-105 -44t-104.5 43.5t-43.5 105.5q0 61 43.5 104.5t105.5 43.5z" />
    <glyph glyph-name="ellipsis" unicode="&#x2026;" horiz-adv-x="1033" 
d="M74 0v99h75v-99h-75zM419 0v99h75v-99h-75zM764 0v99h75v-99h-75z" />
    <glyph glyph-name="perthousand" unicode="&#x2030;" horiz-adv-x="1197" 
d="M220 -9l342 767h61l-342 -767h-61zM264 467v103q0 73 -12.5 97t-63.5 24t-64 -22t-13 -94v-108q0 -73 13 -97t64 -24t63.5 23.5t12.5 97.5zM329 461q0 -94 -24 -134.5t-89 -40.5h-56q-66 0 -90 40.5t-24 134.5v115q0 94 24 134.5t90 40.5h56q65 0 89 -41t24 -134v-115z
M731 177v103q0 73 -12.5 97t-63.5 24t-64 -22t-13 -94v-108q0 -73 13 -97t64 -24t63.5 23.5t12.5 97.5zM796 171q0 -94 -24 -134.5t-89 -40.5h-56q-66 0 -90 40.5t-24 134.5v115q0 94 24 134.5t90 40.5h56q65 0 89 -41t24 -134v-115zM1085 177v103q0 73 -12.5 97t-63.5 24
t-64 -22t-13 -94v-108q0 -73 13 -97t64 -24t63.5 23.5t12.5 97.5zM1150 171q0 -94 -24 -134.5t-89 -40.5h-56q-66 0 -90 40.5t-24 134.5v115q0 94 24 134.5t90 40.5h56q65 0 89 -41t24 -134v-115z" />
    <glyph glyph-name="guilsinglleft" unicode="&#x2039;" horiz-adv-x="245" 
d="M138 103l-89 162l89 163h72l-88 -163l88 -162h-72z" />
    <glyph glyph-name="guilsinglright" unicode="&#x203a;" horiz-adv-x="245" 
d="M108 428l89 -163l-89 -162h-73l89 162l-89 163h73z" />
    <glyph glyph-name="Euro" unicode="&#x20ac;" horiz-adv-x="517" 
d="M476 712v-81q-50 54 -139 54q-76 0 -118.5 -56t-51.5 -149h268l-19 -63h-256q-1 -11 -1 -40q0 -8 0.5 -22t0.5 -19h231l-20 -63h-204q11 -101 54 -154.5t116 -53.5q86 0 139 53v-82q-46 -44 -149 -44q-203 0 -233 281h-69l19 63h44q-2 20 -2 41q0 16 2 40h-63l19 63h49
q14 129 72 203.5t163 74.5q96 0 148 -46z" />
    <glyph glyph-name="afii61352" unicode="&#x2116;" horiz-adv-x="873" 
d="M835 516q0 -82 -28.5 -115.5t-100.5 -33.5t-101 33.5t-29 115.5v86q0 81 29 114t101 33t100.5 -33t28.5 -114v-86zM630 602v-87q0 -59 14 -79.5t62 -20.5q47 0 61 21t14 79v87q0 58 -13.5 78.5t-61.5 20.5t-62 -20.5t-14 -78.5zM38 749h110l278 -666v666h73v-749h-115
l-273 654v-654h-73v749zM576 247v52h259v-52h-259z" />
    <glyph glyph-name="trademark" unicode="&#x2122;" horiz-adv-x="860" 
d="M133 737h217v-29h-86v-238h-43v238h-88v29zM414 737h59l83 -212l80 212h58v-267h-36v235l-89 -235h-25l-94 235v-235h-36v267z" />
    <glyph glyph-name="hyphenminus" horiz-adv-x="311" 
d="M43 248v62h225v-62h-225z" />
    </font>
</defs>
</svg>
