<?xml version="1.0" standalone="no"?>
<!DOCTYPE svg PUBLIC "-//W3C//DTD SVG 1.1//EN" "http://www.w3.org/Graphics/SVG/1.1/DTD/svg11.dtd" >
<svg xmlns="http://www.w3.org/2000/svg">
<metadata>
This is a custom SVG webfont generated by Font Squirrel.
Copyright   : Copyright  2000 Adobe Systems Incorporated All Rights Reserved US Patent Des pending
Designer    : Robert Slimbach and Carol Twombly
Foundry URL : httpwwwadobecomtype
</metadata>
<defs>
<font id="MyriadProLightSemiExtended" horiz-adv-x="663" >
<font-face units-per-em="2048" ascent="1536" descent="-512" />
<missing-glyph horiz-adv-x="530" />
<glyph unicode="ffj" horiz-adv-x="1818" d="M33 975v86h162v49q0 244 133 377q96 96 254 96q106 0 204 -59l-43 -84q-84 53 -172 53q-109 0 -172 -66q-96 -98 -96 -325v-41h561v65q0 223 108.5 353.5t323.5 130.5q70 0 147 -22.5t118 -57.5l-52 -84q-94 74 -233 74q-303 0 -303 -396v-63h653v-983q0 -152 -25.5 -253 t-97.5 -177q-57 -59 -146 -88t-163 -29l-10 88q166 4 246 86q47 53 67.5 144.5t20.5 308.5v817h-545v-975h-109v975h-561v-975h-108v975h-162z" />
<glyph unicode="fj" horiz-adv-x="1148" d="M33 975v86h162v65q0 223 108.5 353.5t323.5 130.5q70 0 146.5 -22.5t117.5 -57.5l-53 -84q-92 74 -232 74q-303 0 -303 -396v-63h653v-983q0 -152 -25.5 -253t-96.5 -177q-57 -59 -146.5 -88t-163.5 -29l-10 88q166 4 244 86q49 53 69.5 144.5t20.5 308.5v817h-545v-975 h-108v975h-162z" />
<glyph unicode="&#xfb00;" horiz-adv-x="1300" d="M33 975v86h162v35q0 268 127 395q92 92 247 92q102 0 176 -51l-43 -82q-61 43 -145 43q-254 0 -254 -385v-47h561v51q0 281 129 404q102 94 252 94q109 0 174 -39l-35 -84q-61 33 -147 33q-78 0 -132 -32t-82 -92.5t-39 -126t-11 -155.5v-53h311v-86h-311v-975h-109v975 h-561v-975h-108v975h-162z" />
<glyph unicode="&#xfb01;" horiz-adv-x="1148" d="M33 975v86h162v65q0 223 108.5 353.5t323.5 130.5q70 0 146.5 -22.5t117.5 -57.5l-53 -84q-92 74 -232 74q-303 0 -303 -396v-63h653v-1061h-108v975h-545v-975h-108v975h-162z" />
<glyph unicode="&#xfb02;" horiz-adv-x="1148" d="M33 975v86h162v41q0 262 153 401q119 106 326 107q166 0 282 -60v-1550h-108v1485q-72 35 -195 35q-186 0 -268 -112t-82 -290v-57h311v-86h-311v-975h-108v975h-162z" />
<glyph unicode="&#xfb03;" horiz-adv-x="1818" d="M33 975v86h162v49q0 244 133 377q96 96 254 96q106 0 204 -59l-43 -84q-84 53 -172 53q-109 0 -172 -66q-96 -98 -96 -325v-41h561v65q0 223 108.5 353.5t323.5 130.5q70 0 147 -22.5t118 -57.5l-52 -84q-94 74 -233 74q-303 0 -303 -396v-63h653v-1061h-108v975h-545 v-975h-109v975h-561v-975h-108v975h-162z" />
<glyph unicode="&#xfb04;" horiz-adv-x="1818" d="M33 975v86h162v22q0 274 129 404q96 96 260 96q111 0 200 -51l-43 -84q-78 45 -166 45q-109 0 -176 -66q-96 -98 -96 -321v-45h561v41q0 262 154 401q119 106 328 107q166 0 280 -60v-1550h-108v1485q-72 35 -195 35q-186 0 -268 -112t-82 -290v-57h311v-86h-311v-975 h-109v975h-561v-975h-108v975h-162z" />
<glyph unicode=" "  horiz-adv-x="530" />
<glyph unicode="&#x09;" horiz-adv-x="530" />
<glyph unicode="&#xa0;" horiz-adv-x="530" />
<glyph unicode="!" horiz-adv-x="475" d="M170 148.5q27 29.5 69 29.5t67.5 -29.5t25.5 -72.5t-26.5 -73t-67.5 -30h-5q-39 0 -65 31q-25 29 -25 66q0 49 27 78.5zM168 1491h135l-22 -1094h-91z" />
<glyph unicode="&#x22;" horiz-adv-x="667" d="M133 1538h133l-33 -491h-69zM403 1538h132l-31 -491h-70z" />
<glyph unicode="#" horiz-adv-x="1105" d="M88 461v86h213l43 356h-209v86h221l58 449h92l-55 -449h270l57 449h94l-55 -449h201v-86h-213l-43 -356h211v-86h-223l-58 -461h-94l57 461h-270l-57 -461h-97l58 461h-201zM395 547h271l45 356h-271z" />
<glyph unicode="$" horiz-adv-x="1171" d="M174 147l49 84q129 -100 307 -100q139 0 228.5 75t89.5 187q0 104 -69.5 175t-207.5 126q-197 80 -283.5 165t-86.5 214q0 131 91 222t240 112v235h95v-235q158 -4 282 -86l-49 -84q-123 84 -276 84q-141 0 -211 -70.5t-70 -165t66.5 -157t230.5 -129.5q176 -76 263 -166 t87 -234q0 -121 -89 -226t-257 -128v-233h-94v233q-207 0 -336 102z" />
<glyph unicode="%" horiz-adv-x="1701" d="M66 1012q0 217 99 334.5t232 117.5h2q143 0 227.5 -108.5t84.5 -317.5q0 -221 -92.5 -339.5t-235.5 -118.5q-133 0 -224 109.5t-93 322.5zM162 1022v-20q0 -154 58 -247q62 -99 167 -100q113 0 170 98.5t57 274.5q0 360 -225 361h-2q-100 0 -162.5 -99.5t-62.5 -267.5z M358 -27l891 1491h90l-890 -1491h-91zM993 420q0 219 98.5 336.5t233.5 117.5h2q141 0 225 -108.5t84 -319.5q0 -221 -91 -338.5t-236 -117.5q-131 0 -222.5 109.5t-93.5 320.5zM1087 432v-20q0 -154 60 -248q63 -100 168 -101q113 0 170 98.5t57 276.5q0 360 -225 361h-2 q-100 0 -164 -99.5t-64 -267.5z" />
<glyph unicode="&#x26;" horiz-adv-x="1304" d="M66 391q0 281 319 440v7q-137 174 -137 321q0 143 98 251t262 108q133 0 219 -84t86 -215q0 -123 -86 -219.5t-292 -190.5v-6l471 -502q117 145 172 479h100q-70 -389 -209 -536q172 -168 256 -244h-139q-20 18 -78.5 75.5t-101.5 94.5q-223 -197 -496 -197 q-184 0 -314 119t-130 299zM172 408q0 -156 105.5 -252.5t259.5 -96.5h4q236 0 403 172q-199 193 -508 537q-264 -131 -264 -360zM350 1169q0 -131 129 -301q166 80 249 156t83 184q0 90 -55.5 158t-163.5 68h-2q-113 0 -176.5 -78t-63.5 -187z" />
<glyph unicode="'" horiz-adv-x="397" d="M133 1538h133l-33 -491h-69z" />
<glyph unicode="(" horiz-adv-x="595" d="M143 629q0 295 93.5 512t244.5 403h105q-166 -193 -252 -411t-86 -506q0 -276 87 -487.5t251 -413.5h-105q-338 395 -338 903z" />
<glyph unicode=")" horiz-adv-x="595" d="M10 -274q164 197 252 412.5t88 498.5t-87 496t-253 411h105q338 -395 338 -909q0 -297 -91.5 -510t-246.5 -399h-105z" />
<glyph unicode="*" horiz-adv-x="884" d="M66 1102v108l323 -24v4l-199 268l105 60l145 -295h4l142 295l102 -58l-203 -272v-4l334 26v-108l-332 31v-7l201 -264l-108 -59l-140 297h-4l-157 -297l-89 59l201 266v7z" />
<glyph unicode="+" horiz-adv-x="1316" d="M88 547v88h522v543h99v-543h520v-88h-520v-547h-99v547h-522z" />
<glyph unicode="," horiz-adv-x="387" d="M59 -279q27 70 64 218.5t51 250.5l141 23q-29 -119 -85 -274.5t-85 -206.5z" />
<glyph unicode="-" d="M66 578v94h532v-94h-532z" />
<glyph unicode="." horiz-adv-x="387" d="M147.5 148.5q26.5 29.5 68.5 29.5t67.5 -29.5t25.5 -72.5t-26.5 -73t-67.5 -30h-2q-41 0 -68 31q-25 29 -24 66q0 49 26.5 78.5z" />
<glyph unicode="/" horiz-adv-x="825" d="M-53 -88l790 1606h113l-797 -1606h-106z" />
<glyph unicode="0" horiz-adv-x="1171" d="M90 711q0 367 150.5 560t363.5 193q219 0 348 -182t129 -537q0 -379 -135 -575.5t-375 -196.5h-2q-199 0 -335 188t-144 550zM203 729q0 -17 -1 -33q0 -284 100 -454q105 -180 278 -181h2q193 0 290 178.5t97 489.5q0 303 -94.5 475t-288.5 172q-168 0 -275.5 -178 t-107.5 -469z" />
<glyph unicode="1" horiz-adv-x="1171" d="M287 1282l268 156h104v-1438h-106v1331h-4l-236 -135z" />
<glyph unicode="2" horiz-adv-x="1171" d="M109 0v68l141 131q383 354 509 513.5t126 319.5q0 141 -79 239.5t-265 98.5q-182 0 -340 -137l-43 72q176 160 403 159q119 0 208 -41t135 -105.5t68.5 -128t22.5 -128.5q0 -84 -28.5 -167t-69.5 -152.5t-132 -168t-171 -174.5l-229 -213l-101 -92v-4h774v-90h-929z" />
<glyph unicode="3" horiz-adv-x="1171" d="M111 80l45 86q53 -37 147 -68.5t197 -31.5q119 0 205 36.5t123.5 94t52 106.5t14.5 94q-2 119 -73.5 198t-170 109.5t-217.5 30.5h-108v90h114q152 0 271.5 74t119.5 213q0 106 -71.5 183t-231.5 77q-172 0 -311 -108l-45 79q61 47 163.5 84t205.5 37q207 0 305 -101 t98 -237q0 -113 -73.5 -204t-208.5 -138v-4q152 -29 249 -131t97 -246q0 -174 -133.5 -302t-389.5 -128q-117 0 -217 32t-157 75z" />
<glyph unicode="4" horiz-adv-x="1171" d="M12 420v74l781 944h84v-928h237v-90h-237v-420h-105v420h-760zM143 510h629v618q0 111 4 162l-6 2q-45 -72 -104 -141l-523 -635v-6z" />
<glyph unicode="5" horiz-adv-x="1171" d="M106 76l44 86q139 -96 331 -96q172 0 286 107q112 106 112 256q0 161 -112 266q-110 103 -333 104q-119 0 -233 -19l92 658h674v-95h-590l-70 -462q96 10 156 10q143 0 264 -45q106 -41 183 -144.5t77 -246.5q0 -211 -149.5 -346.5t-364.5 -135.5q-226 1 -367 103z" />
<glyph unicode="6" horiz-adv-x="1171" d="M84 584q0 215 72.5 384t191.5 275q170 158 420 203q82 18 164 18l2 -100q-102 0 -180 -14q-236 -45 -385.5 -217t-169.5 -402h4q57 92 165.5 154.5t245.5 62.5q217 0 344 -132t127 -337q0 -197 -131 -351.5t-358 -154.5q-215 0 -363.5 157t-148.5 454zM195 551 q0 -211 106.5 -349.5t300.5 -138.5h2q166 0 267.5 120t101.5 292q0 180 -107.5 280.5t-277.5 100.5q-111 0 -210 -59.5t-155 -153.5q-28 -53 -28 -92z" />
<glyph unicode="7" horiz-adv-x="1171" d="M158 1348v90h905v-86l-705 -1352h-106l698 1343v5h-792z" />
<glyph unicode="8" horiz-adv-x="1171" d="M94 365q0 270 320 391v10q-258 96 -258 321q0 162 127 269.5t319 107.5h2q186 0 302 -99t116 -251q0 -236 -272 -344v-8q328 -106 327 -373q0 -188 -146.5 -302t-344.5 -114q-205 0 -348.5 107t-143.5 285zM209 385q-1 -12 -1 -23q0 -117 95 -204q104 -96 279 -97h2 q174 0 278.5 90.5t104.5 217.5q0 152 -101.5 231.5t-316.5 124.5q-166 -35 -253 -126t-87 -214zM260 1098q0 -123 88 -194q90 -73 268 -107q135 35 215 113.5t80 197.5q0 104 -78.5 187t-236.5 83h-4q-154 0 -243 -81t-89 -199z" />
<glyph unicode="9" horiz-adv-x="1171" d="M115 948q0 207 140 361.5t366 154.5q203 0 334.5 -155.5t131.5 -454.5q0 -242 -76.5 -415t-197.5 -277q-150 -133 -342 -168q-114 -21 -195 -21h-26v101q20 -3 45 -3q57 0 141 13q203 27 346 182q158 168 197 447l-6 -2q-156 -203 -412 -203q-209 0 -327.5 132 t-118.5 308zM223 952q0 -150 99.5 -250t255.5 -100q125 0 227 54.5t156 140.5q18 35 18 65q0 225 -96.5 368.5t-284.5 143.5h-2q-166 0 -269.5 -124t-103.5 -298z" />
<glyph unicode=":" horiz-adv-x="387" d="M147.5 148.5q26.5 29.5 68.5 29.5t67.5 -29.5t25.5 -72.5t-26.5 -73t-67.5 -30h-2q-41 0 -68 31q-25 29 -24 66q0 49 26.5 78.5zM147.5 957.5q26.5 29.5 68.5 29.5t67.5 -29.5t25.5 -74.5q0 -43 -26.5 -73t-67.5 -30h-2q-41 0 -68 31q-25 29 -24 66q0 51 26.5 80.5z" />
<glyph unicode=";" horiz-adv-x="387" d="M59 -279q27 70 64 218.5t51 250.5l141 23q-29 -119 -85 -274.5t-85 -206.5zM163.5 957.5q26.5 29.5 68.5 29.5t68 -29.5t26 -74.5q0 -43 -27 -73t-70 -30h-2q-39 0 -65 31q-25 29 -25 66q0 51 26.5 80.5z" />
<glyph unicode="&#x3c;" horiz-adv-x="1316" d="M158 551v76l1003 551v-105l-901 -483v-4l901 -482v-104z" />
<glyph unicode="=" horiz-adv-x="1316" d="M88 342v90h1141v-90h-1141zM88 764v88h1141v-88h-1141z" />
<glyph unicode="&#x3e;" horiz-adv-x="1316" d="M158 0v104l899 482v4l-899 483v105l1003 -551v-76z" />
<glyph unicode="?" horiz-adv-x="905" d="M115 1417q127 100 315 101q174 0 265 -96.5t91 -229.5q0 -92 -46 -178t-152 -203q-154 -170 -155 -318q0 -11 1 -22l4 -80h-100l-8 70q-3 21 -3 43q0 165 167 346q176 190 176 336q0 104 -66.5 168.5t-193.5 64.5q-154 0 -250 -80zM323.5 148.5q26.5 29.5 68.5 29.5 t67.5 -29.5t25.5 -72.5t-26.5 -73t-69.5 -30h-2q-39 0 -65 31q-25 29 -25 66q0 49 26.5 78.5z" />
<glyph unicode="@" horiz-adv-x="1693" d="M84 477q0 346 226.5 589t604.5 243q311 0 503 -194.5t192 -487.5q0 -215 -118 -348.5t-271 -133.5q-72 0 -123 57q-43 47 -43 130q0 17 2 35h-8q-131 -221 -361 -222q-100 0 -176 81t-76 206q0 215 160 365.5t381 150.5q139 0 256 -47l-76 -371q-18 -87 -18 -148 q0 -146 102 -151h8q98 0 175 104q81 108 81 279q0 270 -162.5 441.5t-445.5 171.5q-301 0 -505 -202t-204 -536q0 -276 177.5 -456t433.5 -180q225 0 368 90l37 -80q-176 -96 -411 -96q-295 0 -502 200.5t-207 509.5zM535 430q0 -86 50 -143.5t144 -57.5q121 0 222.5 119 t123.5 240l51 250q-70 27 -161 26q-174 0 -302 -125t-128 -309z" />
<glyph unicode="A" horiz-adv-x="1415" d="M66 0l602 1491h106l598 -1491h-112l-211 524h-664l-207 -524h-112zM422 614h592l-211 525q-41 104 -82 237h-4q-29 -96 -82 -231z" />
<glyph unicode="B" horiz-adv-x="1210" d="M195 0v1470q150 33 333 33q291 0 420 -129q94 -94 94 -246q0 -111 -74.5 -201.5t-189.5 -129.5v-6q47 -10 98.5 -35t104.5 -67t88 -113.5t35 -159.5q0 -168 -113 -281q-150 -147 -516 -147q-81 0 -280 12zM303 1395v-564h260q172 0 270.5 83t98.5 210q0 289 -410 289 q-143 0 -219 -18zM303 90q61 -12 211 -12q205 0 341 75.5t136 258.5q0 166 -131 248.5t-334 82.5h-223v-653z" />
<glyph unicode="C" horiz-adv-x="1415" d="M84 739q0 147 55.5 285.5t156.5 249t266 177.5t370 67q246 0 401 -76l-35 -90q-150 76 -360 75q-354 0 -547.5 -192.5t-193.5 -505.5q0 -287 188 -475t526 -188q233 0 394 79l32 -86q-172 -86 -465 -86q-156 0 -294 47.5t-249.5 139.5t-178 241.5t-66.5 337.5z" />
<glyph unicode="D" horiz-adv-x="1599" d="M195 0v1470q248 33 446 33q477 0 696 -237q180 -195 181 -488q0 -324 -207 -545q-233 -246 -729 -245q-231 0 -387 12zM303 1384v-1294q84 -12 297 -12q403 0 605 194.5t202 503.5v12q0 282 -189 452q-194 173 -585 173q-187 0 -330 -29z" />
<glyph unicode="E" horiz-adv-x="1128" d="M195 0v1491h809v-90h-701v-570h664v-90h-664v-651h739v-90h-847z" />
<glyph unicode="F" horiz-adv-x="1126" d="M195 0v1491h809v-90h-701v-588h641v-90h-641v-723h-108z" />
<glyph unicode="G" horiz-adv-x="1533" d="M84 748q0 137 52 267t153.5 242.5t273.5 180t385 67.5q238 0 400 -73l-37 -89q-156 72 -367 72q-354 0 -550.5 -191.5t-196.5 -480.5q0 -297 192.5 -482t525.5 -185q252 0 373 61v510h-385v90h492v-661q-231 -92 -500 -92q-367 0 -594 213q-102 96 -159.5 239.5 t-57.5 311.5z" />
<glyph unicode="H" horiz-adv-x="1538" d="M195 0v1491h108v-653h934v653h109v-1491h-109v748h-934v-748h-108z" />
<glyph unicode="I" horiz-adv-x="497" d="M195 0v1491h108v-1491h-108z" />
<glyph unicode="J" horiz-adv-x="835" d="M12 16l27 88q80 -39 186 -38q164 0 245 99t81 351v975h108v-1004q0 -514 -434 -514q-127 0 -213 43z" />
<glyph unicode="K" horiz-adv-x="1193" d="M195 0v1491h108v-764h8q33 45 135 152l596 612h138l-629 -635l694 -856h-135l-635 786l-172 -172v-614h-108z" />
<glyph unicode="L" horiz-adv-x="1083" d="M195 0v1491h108v-1401h739v-90h-847z" />
<glyph unicode="M" horiz-adv-x="1867" d="M147 0l121 1491h123l359 -889q111 -274 178 -475h4q53 166 182 473l377 891h129l104 -1491h-104l-47 702q-35 508 -35 670h-6q-92 -248 -223 -559l-344 -813h-82l-324 803q-154 385 -209 569h-6q-14 -432 -37 -690l-53 -682h-107z" />
<glyph unicode="N" horiz-adv-x="1560" d="M195 0v1491h102l674 -918q233 -317 303 -436l4 4q-16 197 -16 580v770h104v-1491h-98l-654 887q-244 332 -319 463l-8 -4q14 -203 14 -549v-797h-106z" />
<glyph unicode="O" horiz-adv-x="1665" d="M84 725q0 348 217 570.5t539 222.5q326 0 533.5 -214t207.5 -538q0 -369 -222 -581t-532 -212h-2q-319 0 -530 213t-211 539zM197 729q0 -274 174 -471t456 -197h2q289 0 464 196t175 499q0 266 -167.5 470t-464.5 204q-303 0 -471 -203t-168 -498z" />
<glyph unicode="P" horiz-adv-x="1210" d="M195 0v1475q176 29 354 28q291 0 430 -131q121 -113 121 -291q0 -193 -115 -307q-156 -162 -469 -162q-145 0 -213 23v-635h-108zM303 729q82 -27 225 -27q221 0 342 96.5t121 270.5q0 180 -123 262t-321 82q-143 0 -244 -20v-664z" />
<glyph unicode="Q" horiz-adv-x="1665" d="M84 723q0 352 217 573.5t541.5 221.5t531.5 -214t207 -538q0 -295 -144.5 -488.5t-389.5 -267.5v-8q442 -86 550 -102l-30 -101q-326 68 -639 152q-82 23 -97 22q-322 8 -534.5 213t-212.5 537zM197 725q0 -274 174 -469t454 -195h2q289 0 465 196t176 499 q0 266 -166 470q-167 204 -460 204q-307 0 -476 -205t-169 -500z" />
<glyph unicode="R" horiz-adv-x="1212" d="M195 0v1470q170 33 362 33q301 0 436 -131q106 -100 107 -262q0 -143 -83 -243.5t-224 -143.5v-4q178 -61 235 -303q80 -340 123 -416h-117q-31 53 -98 358q-39 164 -119 240t-231 86h-283v-684h-108zM303 772h287q184 0 292.5 87t108.5 235q0 168 -120.5 244.5 t-315.5 76.5q-160 0 -252 -24v-619z" />
<glyph unicode="S" horiz-adv-x="1116" d="M102 84l41 90q162 -111 371 -111q178 0 282.5 87.5t104.5 226.5q0 127 -75.5 207t-262.5 139q-223 72 -320.5 169t-97.5 243q0 166 130 274.5t333 108.5q217 0 332 -76l-43 -90q-113 78 -294 78t-266 -87.5t-85 -191.5q0 -121 78 -195.5t258 -132.5q217 -72 317.5 -168 t100.5 -268q0 -170 -128 -292t-378 -122q-109 0 -220.5 31t-177.5 80z" />
<glyph unicode="T" horiz-adv-x="1126" d="M-45 1401v90h1219v-90h-556v-1401h-108v1401h-555z" />
<glyph unicode="U" horiz-adv-x="1527" d="M195 629v862h108v-860q0 -289 125 -428.5t324 -139.5q217 0 345 142.5t128 425.5v860h108v-852q0 -338 -164.5 -502t-423.5 -164q-242 0 -396 157t-154 499z" />
<glyph unicode="V" horiz-adv-x="1204" d="M-18 1491h116l293 -821q158 -440 193 -559h4q51 156 215 557l332 823h116l-618 -1491h-107z" />
<glyph unicode="W" horiz-adv-x="1947" d="M25 1491h110l236 -856q102 -362 135 -500h4q31 129 152 500l274 856h106l240 -854q104 -369 129 -502h4q27 102 152 498l274 858h113l-494 -1491h-106l-242 854q-98 356 -125 510h-4q-31 -141 -152 -506l-278 -858h-107z" />
<glyph unicode="X" horiz-adv-x="1327" d="M72 0l520 754l-500 737h129l266 -404l172 -260h5l178 258l284 406h129l-534 -729l534 -762h-127l-247 352l-228 328h-6q-55 -90 -215 -330l-233 -350h-127z" />
<glyph unicode="Y" horiz-adv-x="1196" d="M27 1491h123l276 -465q152 -254 182 -311h4q39 76 187 311l288 465h125l-555 -858v-633h-108v637z" />
<glyph unicode="Z" horiz-adv-x="1337" d="M82 0v74l1020 1319v8h-936v90h1079v-76l-1022 -1317v-8h1039v-90h-1180z" />
<glyph unicode="[" horiz-adv-x="595" d="M199 -248v1766h409v-84h-309v-1598h309v-84h-409z" />
<glyph unicode="\" horiz-adv-x="817" d="M-23 1518h111l784 -1606h-110z" />
<glyph unicode="]" horiz-adv-x="595" d="M-10 -164h309v1598h-309v84h407v-1766h-407v84z" />
<glyph unicode="^" horiz-adv-x="1316" d="M156 434l452 1004h103l452 -1004h-104l-397 903h-5l-399 -903h-102z" />
<glyph unicode="_" horiz-adv-x="1105" d="M0 -166h1106v-110h-1106v110z" />
<glyph unicode="`" d="M63 1530h164l203 -309h-86z" />
<glyph unicode="a" horiz-adv-x="1095" d="M92 266q0 186 179 291q172 101 513 101q13 0 27 -1v25q0 33 -3 64.5t-20.5 81t-47 84t-90 60t-140.5 25.5q-178 0 -305 -88l-35 78q156 100 350 100q399 0 400 -446v-385q0 -141 18 -256h-100l-17 164h-4q-51 -74 -152.5 -132.5t-232.5 -58.5q-166 0 -253 91t-87 202z M209 285q0 -109 65.5 -166.5t165.5 -57.5q139 0 230.5 66t128.5 152q12 33 12 61v225q-44 2 -85 3q-68 0 -129 -7q-97 -10 -190.5 -38.5t-145.5 -88t-52 -149.5z" />
<glyph unicode="b" horiz-adv-x="1355" d="M186 0q8 115 9 256v1327h108v-741h4q131 246 443 245q227 0 369.5 -156.5t142.5 -383.5q0 -268 -159 -421t-372 -153q-293 0 -434 232h-4l-8 -205h-99zM303 606v-184q0 -37 10 -82q37 -117 146.5 -198t255.5 -81q201 0 319.5 131.5t118.5 350.5q0 193 -116.5 324.5 t-309.5 131.5q-137 0 -249.5 -76.5t-155.5 -220.5q-19 -51 -19 -96z" />
<glyph unicode="c" horiz-adv-x="1099" d="M94 516q0 260 172 415.5t432 155.5q215 0 324 -73l-39 -90q-125 72 -293 71q-229 0 -358 -133t-129 -334q0 -205 133 -333.5t336 -128.5q145 0 311 71l31 -86q-164 -78 -357 -78q-250 0 -406.5 153.5t-156.5 389.5z" />
<glyph unicode="d" horiz-adv-x="1331" d="M94 512q0 251 154 413q156 163 383 162q150 0 251 -61t142 -141h4v698h109v-1327q0 -141 8 -256h-98l-7 221h-6q-49 -109 -159.5 -178.5t-268.5 -69.5q-221 0 -366.5 154.5t-145.5 384.5zM203 520q0 -193 110.5 -326t317.5 -133q135 0 243.5 83t141.5 210q12 43 12 92 v189q0 57 -12 104q-39 113 -139.5 186.5t-243.5 73.5q-190 0 -310 -132t-120 -347z" />
<glyph unicode="e" horiz-adv-x="1185" d="M94 504q0 266 150.5 424.5t382.5 158.5q113 0 198.5 -37.5t134 -92t79 -127t39.5 -128t9 -104.5t-4 -68h-882q0 -223 125 -343.5t325 -120.5q195 0 340 67l29 -86q-156 -74 -381 -74q-246 0 -395.5 150t-149.5 381zM209 616h766q0 51 -13.5 107.5t-47 124t-112.5 109.5 t-190 42q-125 0 -218 -63.5t-133 -145.5t-52 -174z" />
<glyph unicode="f" horiz-adv-x="628" d="M33 975v86h162v51q0 281 129 404q100 94 251 94q109 0 175 -39l-35 -84q-61 33 -150 33q-76 0 -130 -32t-81.5 -92.5t-39 -126t-11.5 -155.5v-53h311v-86h-311v-975h-108v975h-162z" />
<glyph unicode="g" horiz-adv-x="1331" d="M94 518q0 256 159 412.5t374 156.5q158 0 261 -65.5t146 -157.5h6l7 197h98q-8 -115 -8 -256v-647q0 -350 -164 -496q-145 -131 -398 -131q-242 0 -378 104l41 86q152 -102 354.5 -102t319 109.5t116.5 343.5v153h-4q-53 -94 -160.5 -159.5t-261.5 -65.5 q-221 0 -364.5 154.5t-143.5 363.5zM203 530q0 -176 110.5 -309t319.5 -133q123 0 226.5 71.5t146.5 182.5q23 55 22 117v176q0 63 -14 110q-41 111 -140.5 182.5t-236.5 71.5q-193 0 -313.5 -129t-120.5 -340z" />
<glyph unicode="h" horiz-adv-x="1306" d="M195 0v1583h108v-735h4q55 111 164 172q113 68 240 67q39 0 82 -7t106.5 -35.5t109.5 -77.5t80.5 -143.5t34.5 -217.5v-606h-108v602q0 170 -81 280.5t-253 110.5q-123 0 -222.5 -72.5t-137.5 -177.5q-18 -45 -19 -112v-631h-108z" />
<glyph unicode="i" horiz-adv-x="497" d="M160 1375q0 38 26.5 66.5t63.5 28.5t62.5 -27.5t25.5 -66.5t-25.5 -67.5t-64.5 -28.5h-2q-37 0 -61.5 28.5t-24.5 66.5zM195 0v1061h108v-1061h-108z" />
<glyph unicode="j" horiz-adv-x="507" d="M-129 -381q166 4 246 86q49 53 68.5 144.5t19.5 308.5v903h108v-983q0 -152 -24.5 -253t-95.5 -177q-57 -59 -147.5 -88t-162.5 -29zM170 1375q0 38 26.5 66.5t67.5 28.5q37 0 61.5 -28.5t24.5 -66.5t-24.5 -66.5t-67.5 -28.5h-2q-37 0 -61.5 28.5t-24.5 66.5z" />
<glyph unicode="k" horiz-adv-x="1011" d="M195 0v1583h108v-1032h4q53 61 117 121l414 389h137l-473 -436l542 -625h-135l-485 561l-121 -117v-444h-108z" />
<glyph unicode="l" horiz-adv-x="497" d="M195 0v1583h108v-1583h-108z" />
<glyph unicode="m" horiz-adv-x="1982" d="M186 1061h101l10 -205h4q135 231 383 231q119 0 207 -71.5t127 -179.5h4q41 88 111 149q121 102 288 102q39 0 80 -8t97.5 -39.5t99.5 -81t73.5 -144.5t30.5 -222v-592h-108v590q0 201 -81 303t-229 102q-104 0 -188 -63.5t-121 -151.5q-23 -57 -22 -104v-676h-109v645 q0 158 -80 254t-211 96q-113 0 -202 -73.5t-127 -171.5q-20 -51 -21 -105v-645h-108v805q-1 141 -9 256z" />
<glyph unicode="n" horiz-adv-x="1306" d="M186 1061h101l10 -211h4q51 102 160.5 169.5t249.5 67.5q37 0 80 -7t106.5 -36.5t110.5 -79t81.5 -143.5t34.5 -217v-604h-108v604q0 170 -82 280.5t-252 110.5q-125 0 -224.5 -72.5t-135.5 -179.5q-18 -49 -19 -96v-647h-108v805q-1 141 -9 256z" />
<glyph unicode="o" horiz-adv-x="1306" d="M94 520q0 256 165 411.5t398 155.5q250 0 402.5 -155.5t152.5 -386.5q0 -145 -52 -258t-136 -178.5t-181.5 -100.5t-199.5 -35h-2q-236 0 -391.5 154.5t-155.5 392.5zM203 526q0 -213 131 -339t311 -126h2q186 0 321.5 129t135.5 347q0 176 -116 319t-331 143 t-334.5 -137t-119.5 -336z" />
<glyph unicode="p" horiz-adv-x="1355" d="M186 1061h103l10 -221h4q137 248 447 247q227 0 369.5 -155.5t142.5 -378.5q0 -268 -156 -424t-383 -156q-131 0 -241.5 55.5t-174.5 161.5h-4v-632h-108v1161q-1 190 -9 342zM303 426q0 -39 10 -84q37 -117 147.5 -199t254.5 -82q201 0 319.5 132.5t118.5 355.5 q0 188 -116.5 319t-309.5 131q-137 0 -248.5 -75.5t-154.5 -214.5q-20 -66 -21 -95v-188z" />
<glyph unicode="q" horiz-adv-x="1327" d="M94 506q0 152 50.5 267.5t132 182t175 99t187.5 32.5q154 0 254 -67.5t141 -157.5h6l7 199h98q-8 -115 -8 -256v-1247h-109v645h-4q-49 -96 -158.5 -163t-261.5 -67q-219 0 -364.5 156t-145.5 377zM203 522q0 -190 107.5 -325.5t316.5 -135.5q127 0 229 70t148 184 q25 59 24 107v215q0 57 -12 104q-39 111 -139.5 184.5t-241.5 73.5q-190 0 -311 -130t-121 -347z" />
<glyph unicode="r" horiz-adv-x="706" d="M186 1061h99l4 -230h8q41 115 126 185.5t198 70.5q31 0 51 -6v-98q-18 4 -62 4q-111 0 -190.5 -84t-106.5 -223q-10 -51 -10 -105v-575h-108v719q-1 190 -9 342z" />
<glyph unicode="s" horiz-adv-x="901" d="M111 51l39 92q129 -80 266 -80q133 0 200.5 59.5t67.5 147.5t-60.5 141.5t-189.5 94.5q-289 94 -289 289q0 121 93.5 206.5t257.5 85.5q152 0 256 -69l-41 -88q-100 68 -236 67q-104 0 -163.5 -55t-59.5 -135q0 -84 58.5 -129t189.5 -90q152 -51 221.5 -122t69.5 -187 q0 -133 -103.5 -219.5t-279.5 -86.5q-164 0 -297 78z" />
<glyph unicode="t" horiz-adv-x="749" d="M45 975v86h195v203l108 32v-235h336v-86h-336v-678q0 -231 170 -231q84 0 139 20l13 -84q-70 -29 -164 -29q-129 0 -197 80q-70 80 -69 256v666h-195z" />
<glyph unicode="u" horiz-adv-x="1294" d="M184 467v594h109v-572q0 -422 319 -421q117 0 213.5 64.5t141.5 162.5q27 66 26 123v643h109v-805q0 -141 8 -256h-102l-7 215h-4q-55 -102 -160.5 -172t-252.5 -70q-47 0 -90 8.5t-102.5 38t-102.5 78.5t-74 144.5t-31 224.5z" />
<glyph unicode="v" horiz-adv-x="1095" d="M31 1061h116l277 -653q90 -207 123 -302h4q10 29 129 302l283 653h114l-485 -1061h-96z" />
<glyph unicode="w" horiz-adv-x="1732" d="M53 1061h113l194 -619l99 -327h4q31 100 117 327l237 619h107l227 -617q61 -168 113 -329h4q29 109 104 327l211 619h111l-385 -1061h-97l-217 586q-90 240 -127 379h-4q-41 -152 -133 -381l-231 -584h-97z" />
<glyph unicode="x" horiz-adv-x="1038" d="M23 0l430 545l-404 516h123l205 -260q70 -88 133 -180h6q35 51 137 180l203 260h121l-406 -514l426 -547h-125l-213 270l-151 201h-4q-31 -49 -148 -201l-209 -270h-124z" />
<glyph unicode="y" horiz-adv-x="1060" d="M20 1061h117l316 -709q57 -127 88 -223h4q57 156 88 231l297 701h117l-377 -858q-115 -262 -198 -396.5t-185 -205.5q-104 -78 -195 -97l-29 90q113 35 195 105q125 104 205 285q12 29 12 43q0 16 -14 49z" />
<glyph unicode="z" horiz-adv-x="972" d="M35 0v66l635 747q49 59 137 156v4h-725v88h858l-2 -74l-635 -747l-127 -148v-4h770v-88h-911z" />
<glyph unicode="{" horiz-adv-x="595" d="M49 676h10q109 0 147 45q40 47 40 129q0 63 -23 188q-25 113 -24 185q0 147 92 221t244 74h28v-84h-41q-119 0 -171 -55.5t-52 -168.5q0 -59 21.5 -174.5t21.5 -175.5q0 -80 -38 -139.5t-103 -79.5v-4q63 -20 102 -82.5t39 -140.5q0 -59 -20 -174q-23 -121 -23 -179 q0 -225 223 -225h41v-84h-28q-154 0 -245 77t-91 243q0 70 24 176q23 119 23 176q0 174 -188 174h-9v78z" />
<glyph unicode="|" horiz-adv-x="483" d="M195 -553v2212h94v-2212h-94z" />
<glyph unicode="}" horiz-adv-x="595" d="M33 1434v84h28q154 0 245 -74t91 -221q0 -61 -20 -185q-25 -115 -25 -188q0 -82 40 -129q38 -45 147 -45h10v-78h-9q-188 0 -188 -174q0 -66 25 -176q20 -115 20 -176q0 -166 -90 -243t-246 -77h-28v84h43q223 0 223 225q0 57 -23 179q-23 115 -22 174q0 78 40 140 t101 83v4q-63 20 -102 79.5t-39 139.5q0 59 22.5 175t22.5 175q0 113 -52 168.5t-171 55.5h-43z" />
<glyph unicode="~" horiz-adv-x="1316" d="M92 481q-1 13 -1 26q0 115 67 189q74 82 180 82q66 0 123 -18.5t205 -83.5q8 -4 43 -19l45 -18l40 -15l43 -15.5l36.5 -12.5t41 -11t38 -5t40.5 -2q147 0 148 198h84q1 -15 1 -29q0 -127 -66 -194q-73 -74 -173 -74q-106 0 -342 101l-78 34q-59 27 -83.5 36t-66.5 20.5 t-79 11.5q-160 0 -160 -201h-86z" />
<glyph unicode="&#xa1;" horiz-adv-x="475" d="M170 1031q27 30 70 30h2q39 0 64.5 -30t25.5 -73t-26.5 -72.5t-67.5 -29.5t-69 31q-26 29 -26 66q0 48 27 78zM170 -442l23 1079h90l22 -1079h-135z" />
<glyph unicode="&#xa2;" horiz-adv-x="1171" d="M133 715q0 229 139.5 378.5t356.5 176.5v239h92v-239q172 0 299 -72l-43 -88q-115 74 -289 74q-195 0 -322.5 -130t-127.5 -327q0 -201 123.5 -323.5t306.5 -122.5q174 0 315 73l31 -80q-117 -72 -293 -79v-240h-92v238q-229 20 -365 163q-131 138 -131 359z" />
<glyph unicode="&#xa3;" horiz-adv-x="1171" d="M154 0v68q266 154 266 426q0 94 -12 190h-250v86h239q-29 172 -28 272q0 184 113.5 303t289.5 119q152 0 250 -57l-35 -84q-90 51 -225 51q-145 0 -217 -88t-72 -246q0 -121 27 -270h358v-86h-348q9 -98 9 -170q0 -80 -11 -127q-37 -172 -184 -289v-6h755v-92h-925z" />
<glyph unicode="&#xa4;" horiz-adv-x="1171" d="M104 311l142 140q-41 43 -66.5 116.5t-25.5 151.5q0 172 100 285l-150 141l68 72l143 -154q111 96 269 96h2q168 0 268 -96l158 154l67 -68l-164 -145q88 -98 89 -263q0 -182 -84 -278l151 -152l-70 -67l-147 153q-104 -96 -276 -96q-168 0 -267 86l-143 -143zM254 725 q0 -170 102.5 -254t218.5 -84q131 0 229.5 83t98.5 269q0 125 -84 229.5t-241 104.5h-3q-150 0 -235.5 -104.5t-85.5 -243.5z" />
<glyph unicode="&#xa5;" horiz-adv-x="1171" d="M59 1438h117l311 -545q70 -123 88 -164h9q23 63 88 172l325 537h115l-444 -709h319v-82h-366v-168h366v-82h-366v-397h-103v397h-364v82h364v168h-364v82h321z" />
<glyph unicode="&#xa6;" horiz-adv-x="483" d="M195 385h94v-774h-94v774zM195 717v774h94v-774h-94z" />
<glyph unicode="&#xa7;" horiz-adv-x="1171" d="M176 784q0 137 150 254q-37 23 -57.5 72t-20.5 100q0 129 106.5 214t263.5 85q178 0 302 -82l-46 -79q-111 82 -270 82q-106 0 -181 -57.5t-75 -145.5q0 -41 17.5 -75t38 -54.5t70.5 -44t84 -35.5t108 -35q164 -53 247.5 -126t83.5 -196q0 -152 -131 -268q78 -72 78 -192 q0 -147 -111.5 -233.5t-279.5 -86.5q-211 0 -322 92l50 80q106 -90 278 -90q127 0 208 60.5t81 164.5q0 92 -64.5 150.5t-242.5 120.5q-190 63 -277.5 134.5t-87.5 190.5zM274 786q0 -68 60.5 -125t222.5 -112q178 -59 250 -107q90 84 90 201q0 80 -53 138.5t-191 103.5 q-195 63 -268 108q-111 -86 -111 -202v-5z" />
<glyph unicode="&#xa8;" d="M49 1376q0 35 25.5 62.5t60.5 27.5t59.5 -26.5t24.5 -64.5t-23.5 -64.5t-62.5 -26.5h-2q-39 0 -60.5 26.5t-21.5 65.5zM444 1376q0 35 26 62.5t60.5 27.5t59 -26.5t24.5 -64.5t-22.5 -64.5t-63.5 -26.5h-2q-37 0 -59.5 26.5t-22.5 65.5z" />
<glyph unicode="&#xa9;" horiz-adv-x="1497" d="M88 752q0 283 192.5 482.5t471.5 199.5h2q276 0 465.5 -200t189.5 -482q0 -287 -190.5 -486.5t-466.5 -199.5q-279 0 -471.5 200.5t-192.5 485.5zM176 743q0 -256 165 -431t411 -175h10q235 0 395 174q164 178 164 441q0 260 -164 435t-405 175h-2q-244 0 -409 -177.5 t-165 -441.5zM387 739q0 180 123 296t295 116t244 -61l-23 -68q-86 55 -219 55q-164 0 -247 -93t-83 -239q0 -143 87 -238t247 -95q139 0 229 61l21 -63q-98 -72 -270 -72q-186 0 -295 112.5t-109 288.5z" />
<glyph unicode="&#xaa;" horiz-adv-x="774" d="M82 791q0 115 122 185q104 60 287 60q32 0 66 -2v27q0 16 -5 36.5t-23.5 53.5t-61.5 54.5t-105 21.5q-115 0 -192 -62l-29 68q100 76 242 76q86 0 142.5 -29t82 -83t34.5 -104.5t9 -117.5v-209q0 -82 13 -176h-89l-12 112h-4q-90 -123 -244 -122q-115 0 -174 60.5 t-59 150.5zM178 791q0 -61 45 -96.5t111 -35.5q115 0 190 93q33 45 33 69v140q-24 1 -46 0q-333 1 -333 -170z" />
<glyph unicode="&#xab;" horiz-adv-x="905" d="M66 557l346 408h114l-344 -408l346 -407h-114zM397 557l346 408h115l-344 -408l346 -407h-115z" />
<glyph unicode="&#xac;" horiz-adv-x="1316" d="M88 764v88h1141v-563h-96v475h-1045z" />
<glyph unicode="&#xad;" d="M66 578v94h532v-94h-532z" />
<glyph unicode="&#xae;" horiz-adv-x="890" d="M82 1153q0 147 106.5 251.5t257.5 104.5h3q154 0 257 -103t103 -253q0 -154 -103.5 -257t-259.5 -103q-152 0 -258 103t-106 257zM162 1153q0 -127 82 -212t205 -85h5q117 0 195 84q80 86 80 210t-80 210t-203 86h-2q-119 0 -200.5 -86t-81.5 -207zM311 956v373 q68 10 133 10q78 0 117 -28q39 -27 39 -78q0 -66 -74 -90v-4q47 -16 62 -90q14 -72 28 -93h-71q-14 14 -31 97q-14 59 -88 59h-43v-156h-72zM383 1165h47q96 0 96 60q0 63 -90 63q-31 0 -53 -6v-117z" />
<glyph unicode="&#xaf;" d="M92 1309v92h481v-92h-481z" />
<glyph unicode="&#x2c9;" d="M92 1309v92h481v-92h-481z" />
<glyph unicode="&#xb0;" d="M66 1241q0 119 77.5 198t190.5 79h2q125 0 193.5 -77t68.5 -179q0 -123 -83 -198t-187 -75q-117 0 -189.5 75t-72.5 177zM150 1243q0 -78 52 -130t128 -52q80 0 132 55t52 139q0 70 -42 129.5t-142 59.5h-2q-88 0 -133 -61.5t-45 -139.5z" />
<glyph unicode="&#xb1;" horiz-adv-x="1316" d="M88 0v88h1141v-88h-1141zM88 709v88h522v456h99v-456h520v-88h-520v-478h-99v478h-522z" />
<glyph unicode="&#xb2;" horiz-adv-x="673" d="M31 1061l162 145q168 150 232 234t64 163.5t-50 135t-156 55.5q-90 0 -195 -76l-33 58q100 96 250 96q147 0 215 -78t68 -164q0 -121 -78 -221t-270 -264l-76 -64v-4h438v-80h-571v64z" />
<glyph unicode="&#xb3;" horiz-adv-x="657" d="M27 1051l34 73q27 -23 90.5 -43t122.5 -20q123 0 178 59q52 57 52 117q0 95 -84 140q-82 44 -193 44h-69v74h73q88 0 160 42t74 128q0 49 -41 90t-123 41q-113 0 -190 -65l-35 69q111 72 231 72q133 0 193.5 -61.5t60.5 -143.5q0 -66 -45 -120t-125 -83v-4 q98 -16 154.5 -76.5t56.5 -142.5q0 -100 -86 -177t-246 -77q-161 1 -243 64z" />
<glyph unicode="&#xb4;" d="M260 1221l203 309h164l-283 -309h-84z" />
<glyph unicode="&#xb5;" horiz-adv-x="1304" d="M195 0v1061h108v-625q0 -160 82 -264t248 -104q115 0 207 64.5t137 162.5q27 66 27 123v643h108v-776q0 -119 24.5 -166t98.5 -56l-14 -88q-25 -2 -33 -2q-74 0 -123 53.5t-53 172.5h-8q-55 -92 -148.5 -159t-226.5 -67q-240 0 -326 168v-141q0 -336 29 -442h-103 q-34 108 -34 442z" />
<glyph unicode="&#xb6;" horiz-adv-x="1171" d="M78 1006q0 92 28.5 170.5t93 153.5t192.5 118t304 43q166 0 244 -16v-1588h-94v1516h-166v-1516h-96v686h-21q-186 0 -335.5 115t-149.5 318z" />
<glyph unicode="&#xb7;" horiz-adv-x="387" d="M127 668.5q27 29.5 69 29.5t66.5 -29.5t24.5 -72.5t-27 -72.5t-67 -29.5h-3q-41 0 -66 30q-24 28 -24 66q0 49 27 78.5z" />
<glyph unicode="&#x2219;" horiz-adv-x="387" d="M127 668.5q27 29.5 69 29.5t66.5 -29.5t24.5 -72.5t-27 -72.5t-67 -29.5h-3q-41 0 -66 30q-24 28 -24 66q0 49 27 78.5z" />
<glyph unicode="&#xb8;" d="M117 -406l24 78q51 -29 125 -28q47 0 80 18q31 17 31 57q0 87 -180 103l116 178h84l-84 -119q66 -10 111 -48t45 -99q0 -172 -219 -172q-78 -1 -133 32z" />
<glyph unicode="&#xb9;" horiz-adv-x="475" d="M57 1774l174 86h84v-863h-90v775h-4l-143 -70z" />
<glyph unicode="&#xba;" horiz-adv-x="774" d="M18 936q0 166 113 269.5t256 103.5h2q164 0 266.5 -104.5t102.5 -256.5q-2 -178 -116 -273t-255 -95q-160 0 -264.5 101t-104.5 255zM111 940q0 -131 85 -206t191 -75q115 0 196 74t81 211q0 106 -72 195.5t-205 89.5h-2q-131 0 -202.5 -87t-71.5 -202z" />
<glyph unicode="&#xbb;" horiz-adv-x="905" d="M47 965h115l346 -408l-346 -407h-113l344 407zM379 965h115l346 -408l-346 -407h-113l344 407z" />
<glyph unicode="&#xbc;" horiz-adv-x="1679" d="M113 1366l174 88h84v-864h-90v774h-5l-143 -70zM270 -27l891 1491h90l-891 -1491h-90zM860 240v57l504 577h78v-561h155v-73h-155v-240h-90v240h-492zM973 313h379v342q0 76 4 109h-4l-64 -84l-315 -365v-2z" />
<glyph unicode="&#xbd;" horiz-adv-x="1679" d="M80 1366l174 88h84v-864h-90v774h-4l-144 -70zM238 -27l890 1491h91l-891 -1491h-90zM969 63l161 146q168 150 232.5 233.5t64.5 163.5t-50 135.5t-156 55.5q-90 0 -195 -76l-33 57q100 96 250 96q147 0 215 -77.5t68 -163.5q0 -123 -76 -217t-272 -269l-76 -63v-4h438 v-80h-571v63z" />
<glyph unicode="&#xbe;" horiz-adv-x="1679" d="M74 643l35 74q27 -23 89 -42.5t124 -19.5q123 0 177 59q52 56 52 115q0 98 -84 143q-82 44 -193 44h-71v71h76q86 0 157.5 42t73.5 131q0 47 -39 88t-127 41q-100 0 -186 -66l-37 68q106 74 231 73q135 0 195.5 -60.5t60.5 -141.5q0 -68 -45 -122.5t-125 -82.5v-4 q96 -14 152.5 -76t56.5 -143q0 -98 -86 -176t-245.5 -78t-241.5 63zM377 -27l891 1491h90l-891 -1491h-90zM893 240v57l506 577h76v-561h155v-73h-155v-240h-91v240h-491zM1006 313h378v342q0 76 5 109h-5l-29 -43q-22 -31 -32 -41l-317 -365v-2z" />
<glyph unicode="&#xbf;" horiz-adv-x="905" d="M164 -156q0 94 46 180.5t152 200.5q156 174 157 322q0 9 -1 18l-4 80h98l9 -67q3 -22 2 -44q0 -166 -164 -346q-178 -190 -178 -335q0 -104 66.5 -170t195.5 -66q150 0 252 82l41 -80q-61 -45 -149.5 -71.5t-164.5 -26.5q-174 0 -266 96t-92 227zM491.5 1031 q26.5 30 67.5 30h2q41 0 66.5 -30t25.5 -73t-26.5 -72.5t-69.5 -29.5q-39 0 -67 31q-26 29 -25 66q0 48 26.5 78z" />
<glyph unicode="&#xc0;" horiz-adv-x="1415" d="M66 0l602 1491h106l598 -1491h-112l-211 524h-664l-207 -524h-112zM422 1825h168l213 -254h-88zM422 614h592l-211 525q-41 104 -82 237h-4q-29 -96 -82 -231z" />
<glyph unicode="&#xc1;" horiz-adv-x="1415" d="M66 0l602 1491h106l598 -1491h-112l-211 524h-664l-207 -524h-112zM422 614h592l-211 525q-41 104 -82 237h-4q-29 -96 -82 -231zM635 1571l213 254h168l-293 -254h-88z" />
<glyph unicode="&#xc2;" horiz-adv-x="1415" d="M66 0l602 1491h106l598 -1491h-112l-211 524h-664l-207 -524h-112zM422 614h592l-211 525q-41 104 -82 237h-4q-29 -96 -82 -231zM444 1571l242 254h80l250 -254h-121l-168 174h-4l-168 -174h-111z" />
<glyph unicode="&#xc3;" horiz-adv-x="1415" d="M66 0l602 1491h106l598 -1491h-112l-211 524h-664l-207 -524h-112zM422 614h592l-211 525q-41 104 -82 237h-4q-29 -96 -82 -231zM453 1581q-2 82 37.5 138.5t107.5 56.5q43 0 133 -50q76 -37 119 -36q55 0 59 84h76q0 -180 -135 -181q-51 0 -140 44t-120 44 q-49 0 -62 -100h-75z" />
<glyph unicode="&#xc4;" horiz-adv-x="1415" d="M66 0l602 1491h106l598 -1491h-112l-211 524h-664l-207 -524h-112zM422 614h592l-211 525q-41 104 -82 237h-4q-29 -96 -82 -231zM436 1692q0 35 25.5 62.5t60.5 27.5t59.5 -25.5t24.5 -63.5t-23.5 -64.5t-62.5 -26.5h-2q-39 0 -60.5 26.5t-21.5 63.5zM834 1692 q0 35 25.5 62.5t61 27.5t59.5 -25.5t24 -63.5t-23 -64.5t-63 -26.5h-3q-37 0 -59 26.5t-22 63.5z" />
<glyph unicode="&#xc5;" horiz-adv-x="1415" d="M66 0l602 1491h106l598 -1491h-112l-211 524h-664l-207 -524h-112zM422 614h592l-211 525q-41 104 -82 237h-4q-29 -96 -82 -231zM516 1730.5q0 77.5 57.5 133t145.5 55.5h2q86 0 142.5 -55.5t56.5 -133t-58.5 -131t-142.5 -53.5q-88 0 -145.5 53.5t-57.5 131zM606 1731 q0 -49 32 -86t79 -37q49 0 80.5 36.5t31.5 90t-31.5 89.5t-80.5 36h-2q-49 0 -79 -37t-30 -92z" />
<glyph unicode="&#xc6;" horiz-adv-x="1783" d="M-23 0l797 1491h883v-90h-721l80 -572h604v-90h-592l94 -649h572v-90h-664l-88 616h-524l-328 -616h-113zM465 707h467l-66 456q-29 195 -30 246h-9q-35 -80 -112 -225z" />
<glyph unicode="&#xc7;" horiz-adv-x="1415" d="M84 739q0 147 55.5 285.5t156.5 249t266 177.5t370 67q246 0 401 -76l-35 -90q-150 76 -360 75q-354 0 -547.5 -192.5t-193.5 -505.5q0 -287 188 -475t526 -188q233 0 394 79l32 -86q-172 -86 -489 -86l-68 -92q68 -12 112 -54t44 -101q0 -82 -59.5 -123t-155.5 -41 q-78 0 -139 30l24 80q53 -29 123 -28q47 0 78 20.5t31 56.5q0 80 -176 101l102 158q-293 33 -486.5 228t-193.5 531z" />
<glyph unicode="&#xc8;" horiz-adv-x="1128" d="M195 0v1491h809v-90h-701v-570h664v-90h-664v-651h739v-90h-847zM330 1825h168l213 -254h-90z" />
<glyph unicode="&#xc9;" horiz-adv-x="1128" d="M195 0v1491h809v-90h-701v-570h664v-90h-664v-651h739v-90h-847zM516 1571l211 254h168l-291 -254h-88z" />
<glyph unicode="&#xca;" horiz-adv-x="1128" d="M195 0v1491h809v-90h-701v-570h664v-90h-664v-651h739v-90h-847zM307 1571l242 254h80l250 -254h-121l-168 174h-4l-168 -174h-111z" />
<glyph unicode="&#xcb;" horiz-adv-x="1128" d="M195 0v1491h809v-90h-701v-570h664v-90h-664v-651h739v-90h-847zM309 1692q0 35 25.5 62.5t61.5 27.5t59.5 -25.5t23.5 -63.5t-22.5 -64.5t-63.5 -26.5h-2q-37 0 -59.5 26.5t-22.5 63.5zM709 1692q0 35 24.5 62.5t60 27.5t60.5 -25.5t25 -63.5t-24 -64.5t-62 -26.5h-2 q-39 0 -60.5 26.5t-21.5 63.5z" />
<glyph unicode="&#xcc;" horiz-adv-x="497" d="M-37 1825h168l211 -254h-88zM195 0v1491h108v-1491h-108z" />
<glyph unicode="&#xcd;" horiz-adv-x="497" d="M164 1571l213 254h168l-293 -254h-88zM195 0v1491h108v-1491h-108z" />
<glyph unicode="&#xce;" horiz-adv-x="497" d="M-35 1571l240 254h80l250 -254h-119l-168 174h-4l-168 -174h-111zM195 0v1491h108v-1491h-108z" />
<glyph unicode="&#xcf;" horiz-adv-x="497" d="M-33 1692q0 35 25.5 62.5t60.5 27.5t59.5 -25.5t24.5 -63.5t-23.5 -64.5t-62.5 -26.5h-2q-39 0 -60.5 26.5t-21.5 63.5zM195 0v1491h108v-1491h-108zM365 1692q0 35 25.5 62.5t61 27.5t59.5 -25.5t24 -63.5t-23 -64.5t-63 -26.5h-3q-37 0 -59 26.5t-22 63.5z" />
<glyph unicode="&#xd0;" horiz-adv-x="1603" d="M-12 700v91h207v686q248 35 446 34q477 0 696 -239q180 -195 181 -494q0 -324 -207 -545q-233 -246 -729 -245q-231 0 -387 12v700h-207zM303 791h528v-91h-528v-610q84 -12 297 -12q403 0 605 195.5t202 508.5v12q0 282 -189 452q-194 173 -585 173q-186 0 -330 -28 v-600z" />
<glyph unicode="&#xd1;" horiz-adv-x="1560" d="M195 0v1491h102l674 -918q233 -317 303 -436l4 4q-16 197 -16 580v770h104v-1491h-98l-654 887q-244 332 -319 463l-8 -4q14 -203 14 -549v-797h-106zM532 1581q-2 82 38 138.5t106 56.5q45 0 135 -50q76 -37 119 -36q55 0 59 84h74q0 -180 -133 -181q-51 0 -140.5 44 t-119.5 44q-51 0 -62 -100h-76z" />
<glyph unicode="&#xd2;" horiz-adv-x="1665" d="M84 725q0 348 217 570.5t539 222.5q326 0 533.5 -214t207.5 -538q0 -369 -222 -581t-532 -212h-2q-319 0 -530 213t-211 539zM197 729q0 -274 174 -471t456 -197h2q289 0 464 196t175 499q0 266 -167.5 470t-464.5 204q-303 0 -471 -203t-168 -498zM549 1835h168 l213 -254h-90z" />
<glyph unicode="&#xd3;" horiz-adv-x="1665" d="M84 725q0 348 217 570.5t539 222.5q326 0 533.5 -214t207.5 -538q0 -369 -222 -581t-532 -212h-2q-319 0 -530 213t-211 539zM197 729q0 -274 174 -471t456 -197h2q289 0 464 196t175 499q0 266 -167.5 470t-464.5 204q-303 0 -471 -203t-168 -498zM741 1581l211 254h170 l-293 -254h-88z" />
<glyph unicode="&#xd4;" horiz-adv-x="1665" d="M84 725q0 348 217 570.5t539 222.5q326 0 533.5 -214t207.5 -538q0 -369 -222 -581t-532 -212h-2q-319 0 -530 213t-211 539zM197 729q0 -274 174 -471t456 -197h2q289 0 464 196t175 499q0 266 -167.5 470t-464.5 204q-303 0 -471 -203t-168 -498zM549 1581l242 254h77 l250 -254h-119l-168 176h-4l-168 -176h-110z" />
<glyph unicode="&#xd5;" horiz-adv-x="1665" d="M84 725q0 348 217 570.5t539 222.5q326 0 533.5 -214t207.5 -538q0 -369 -222 -581t-532 -212h-2q-319 0 -530 213t-211 539zM197 729q0 -274 174 -471t456 -197h2q289 0 464 196t175 499q0 266 -167.5 470t-464.5 204q-303 0 -471 -203t-168 -498zM569 1593v15 q0 72 36 124q40 56 108 56q43 0 135 -49q74 -37 117 -37q55 0 59 84h76q0 -182 -135 -182q-51 0 -139.5 44t-118.5 44q-51 0 -64 -99h-74z" />
<glyph unicode="&#xd6;" horiz-adv-x="1665" d="M84 725q0 348 217 570.5t539 222.5q326 0 533.5 -214t207.5 -538q0 -369 -222 -581t-532 -212h-2q-319 0 -530 213t-211 539zM197 729q0 -274 174 -471t456 -197h2q289 0 464 196t175 499q0 266 -167.5 470t-464.5 204q-303 0 -471 -203t-168 -498zM551 1692 q0 35 25.5 62.5t60.5 27.5t59.5 -25.5t24.5 -63.5t-23.5 -64.5t-62.5 -26.5h-2q-37 0 -59.5 26.5t-22.5 63.5zM948 1692q0 35 25.5 62.5t61.5 27.5t59.5 -25.5t23.5 -63.5t-22.5 -64.5t-63.5 -26.5h-2q-37 0 -59.5 26.5t-22.5 63.5z" />
<glyph unicode="&#xd7;" horiz-adv-x="1316" d="M88 66l502 516l-502 514l72 67l499 -510l500 510l70 -67l-502 -514l502 -516l-70 -66l-500 510l-499 -510z" />
<glyph unicode="&#xd8;" horiz-adv-x="1665" d="M84 729q0 348 220 568.5t542 220.5q256 0 452 -154l160 188l70 -55l-164 -192q217 -209 217 -539q0 -193 -63.5 -349.5t-171 -249.5t-238.5 -143.5t-270 -50.5q-268 0 -473 158l-164 -192l-64 57l164 192q-217 217 -217 541zM197 748q0 -158 43 -268.5t125 -215.5l4 4 l868 1022q-174 140 -399 140q-301 0 -471 -204t-170 -478zM430 203q170 -141 401 -142q291 0 464 201t173 494q0 270 -165 471h-7z" />
<glyph unicode="&#xd9;" horiz-adv-x="1527" d="M195 629v862h108v-860q0 -289 125 -428.5t324 -139.5q217 0 345 142.5t128 425.5v860h108v-852q0 -338 -164.5 -502t-423.5 -164q-242 0 -396 157t-154 499zM502 1825h168l213 -254h-88z" />
<glyph unicode="&#xda;" horiz-adv-x="1527" d="M195 629v862h108v-860q0 -289 125 -428.5t324 -139.5q217 0 345 142.5t128 425.5v860h108v-852q0 -338 -164.5 -502t-423.5 -164q-242 0 -396 157t-154 499zM692 1571l213 254h168l-293 -254h-88z" />
<glyph unicode="&#xdb;" horiz-adv-x="1527" d="M195 629v862h108v-860q0 -289 125 -428.5t324 -139.5q217 0 345 142.5t128 425.5v860h108v-852q0 -338 -164.5 -502t-423.5 -164q-242 0 -396 157t-154 499zM492 1571l239 254h80l250 -254h-119l-168 174h-4l-168 -174h-110z" />
<glyph unicode="&#xdc;" horiz-adv-x="1527" d="M195 629v862h108v-860q0 -289 125 -428.5t324 -139.5q217 0 345 142.5t128 425.5v860h108v-852q0 -338 -164.5 -502t-423.5 -164q-242 0 -396 157t-154 499zM481 1692q0 35 25.5 62.5t61.5 27.5t60.5 -25.5t24.5 -63.5t-23.5 -64.5t-64.5 -26.5h-2q-37 0 -59.5 26.5 t-22.5 63.5zM881 1692q0 35 25.5 62.5t60 27.5t59.5 -25.5t25 -63.5t-23.5 -64.5t-62.5 -26.5h-2q-39 0 -60.5 26.5t-21.5 63.5z" />
<glyph unicode="&#xdd;" horiz-adv-x="1196" d="M27 1491h123l276 -465q152 -254 182 -311h4q39 76 187 311l288 465h125l-555 -858v-633h-108v637zM537 1548l213 254h168l-291 -254h-90z" />
<glyph unicode="&#xde;" horiz-adv-x="1210" d="M195 0v1491h106v-301q119 25 264 24q281 0 420 -129q115 -109 115 -264q0 -215 -161 -338t-429 -123q-131 0 -209 15v-375h-106zM301 1098v-629q84 -18 217 -18q225 0 349 93t124 257q0 172 -118.5 247.5t-307.5 75.5q-172 1 -264 -26z" />
<glyph unicode="&#xdf;" horiz-adv-x="1232" d="M195 0v1030q0 340 155 479q115 100 297 101q156 0 261.5 -97.5t105.5 -263.5q0 -104 -49 -178q-180 -74 -181 -192q0 -45 22.5 -87t40 -59.5t81.5 -75.5q66 -61 97.5 -97t62 -102.5t30.5 -142.5q0 -147 -101.5 -244.5t-275.5 -97.5q-150 0 -256 58l31 90q125 -59 227 -60 q131 0 202 69t71 169q0 82 -36 143.5t-116 130.5q-96 84 -140 147.5t-44 139.5q0 166 211 270q18 43 18 105q0 129 -73.5 207t-208.5 78q-168 0 -246 -118t-78 -368v-1034h-108z" />
<glyph unicode="&#xe0;" horiz-adv-x="1095" d="M92 266q0 186 179 291q172 101 513 101q13 0 27 -1v25q0 33 -3 64.5t-20.5 81t-47 84t-90 60t-140.5 25.5q-178 0 -305 -88l-35 78q156 100 350 100q399 0 400 -446v-385q0 -141 18 -256h-100l-17 164h-4q-51 -74 -152.5 -132.5t-232.5 -58.5q-166 0 -253 91t-87 202z M209 285q0 -109 65.5 -166.5t165.5 -57.5q139 0 230.5 66t128.5 152q12 33 12 61v225q-44 2 -85 3q-68 0 -129 -7q-97 -10 -190.5 -38.5t-145.5 -88t-52 -149.5zM238 1530h161l203 -309h-84z" />
<glyph unicode="&#xe1;" horiz-adv-x="1095" d="M92 266q0 186 179 291q172 101 513 101q13 0 27 -1v25q0 33 -3 64.5t-20.5 81t-47 84t-90 60t-140.5 25.5q-178 0 -305 -88l-35 78q156 100 350 100q399 0 400 -446v-385q0 -141 18 -256h-100l-17 164h-4q-51 -74 -152.5 -132.5t-232.5 -58.5q-166 0 -253 91t-87 202z M209 285q0 -109 65.5 -166.5t165.5 -57.5q139 0 230.5 66t128.5 152q12 33 12 61v225q-44 2 -85 3q-68 0 -129 -7q-97 -10 -190.5 -38.5t-145.5 -88t-52 -149.5zM444 1221l201 309h164l-281 -309h-84z" />
<glyph unicode="&#xe2;" horiz-adv-x="1095" d="M92 266q0 186 179 291q172 101 513 101q13 0 27 -1v25q0 33 -3 64.5t-20.5 81t-47 84t-90 60t-140.5 25.5q-178 0 -305 -88l-35 78q156 100 350 100q399 0 400 -446v-385q0 -141 18 -256h-100l-17 164h-4q-51 -74 -152.5 -132.5t-232.5 -58.5q-166 0 -253 91t-87 202z M209 285q0 -109 65.5 -166.5t165.5 -57.5q139 0 230.5 66t128.5 152q12 33 12 61v225q-44 2 -85 3q-68 0 -129 -7q-97 -10 -190.5 -38.5t-145.5 -88t-52 -149.5zM279 1221l213 309h83l222 -309h-113l-149 225h-5l-147 -225h-104z" />
<glyph unicode="&#xe3;" horiz-adv-x="1095" d="M92 266q0 186 179 291q172 101 513 101q13 0 27 -1v25q0 33 -3 64.5t-20.5 81t-47 84t-90 60t-140.5 25.5q-178 0 -305 -88l-35 78q156 100 350 100q399 0 400 -446v-385q0 -141 18 -256h-100l-17 164h-4q-51 -74 -152.5 -132.5t-232.5 -58.5q-166 0 -253 91t-87 202z M209 285q0 -109 65.5 -166.5t165.5 -57.5q139 0 230.5 66t128.5 152q12 33 12 61v225q-44 2 -85 3q-68 0 -129 -7q-97 -10 -190.5 -38.5t-145.5 -88t-52 -149.5zM295 1274q-2 92 34 145.5t101 53.5q35 0 145 -56q66 -33 93 -33q57 0 63 97h74q0 -193 -133 -193 q-43 0 -131 45q-78 43 -109 43q-53 0 -63 -102h-74z" />
<glyph unicode="&#xe4;" horiz-adv-x="1095" d="M92 266q0 186 179 291q172 101 513 101q13 0 27 -1v25q0 33 -3 64.5t-20.5 81t-47 84t-90 60t-140.5 25.5q-178 0 -305 -88l-35 78q156 100 350 100q399 0 400 -446v-385q0 -141 18 -256h-100l-17 164h-4q-51 -74 -152.5 -132.5t-232.5 -58.5q-166 0 -253 91t-87 202z M209 285q0 -109 65.5 -166.5t165.5 -57.5q139 0 230.5 66t128.5 152q12 33 12 61v225q-44 2 -85 3q-68 0 -129 -7q-97 -10 -190.5 -38.5t-145.5 -88t-52 -149.5zM266 1376q0 35 24.5 62.5t60.5 27.5t60.5 -26.5t24.5 -64.5t-23.5 -64.5t-62.5 -26.5h-2q-39 0 -60.5 26.5 t-21.5 65.5zM662 1376q0 35 25.5 62.5t60 27.5t59 -26.5t24.5 -64.5t-23.5 -64.5t-62.5 -26.5h-2q-37 0 -59 26.5t-22 65.5z" />
<glyph unicode="&#xe5;" horiz-adv-x="1095" d="M92 266q0 186 179 291q172 101 513 101q13 0 27 -1v25q0 33 -3 64.5t-20.5 81t-47 84t-90 60t-140.5 25.5q-178 0 -305 -88l-35 78q156 100 350 100q399 0 400 -446v-385q0 -141 18 -256h-100l-17 164h-4q-51 -74 -152.5 -132.5t-232.5 -58.5q-166 0 -253 91t-87 202z M209 285q0 -109 65.5 -166.5t165.5 -57.5q139 0 230.5 66t128.5 152q12 33 12 61v225q-44 2 -85 3q-68 0 -129 -7q-97 -10 -190.5 -38.5t-145.5 -88t-52 -149.5zM334 1389q0 86 59.5 145t151.5 59h2q86 0 144.5 -59t58.5 -145q0 -84 -61.5 -141.5t-143.5 -57.5 q-90 0 -150.5 57.5t-60.5 141.5zM422 1389q0 -51 35 -92.5t86 -41.5q53 0 88 40t35 96q0 57 -34 96t-89 39h-2q-51 0 -85 -40t-34 -97z" />
<glyph unicode="&#xe6;" horiz-adv-x="1845" d="M94 254q0 184 180 288q167 96 487 96q25 0 52 -1v45q0 18 -4 47t-21.5 79t-47 90t-91 69.5t-141.5 29.5q-82 0 -167 -24.5t-136 -63.5l-35 78q156 100 338 100q313 0 377 -274h4q55 129 164.5 201.5t255.5 72.5q106 0 188 -39.5t127 -95t76 -125t39 -121t8 -90.5 q0 -51 -6 -65h-823l-2 -41q0 -191 107 -311q118 -133 306 -133q195 0 322 67l30 -86q-158 -74 -356 -74q-160 0 -281.5 74t-166.5 207h-5q-49 -135 -169.5 -208t-272.5 -73q-166 0 -251 86t-85 195zM205 266q0 -92 67.5 -148.5t167.5 -56.5h9q138 0 227 67q92 69 125 169 q12 43 12 88v166q-38 1 -74 1q-534 0 -534 -286zM918 637h716q0 7 1 14q0 26 -6 59q-7 42 -30.5 94t-60.5 95t-98.5 71.5t-139.5 28.5q-174 0 -273 -116.5t-109 -245.5z" />
<glyph unicode="&#xe7;" horiz-adv-x="1099" d="M94 516q0 260 172 415.5t432 155.5q215 0 324 -73l-39 -90q-125 72 -293 71q-229 0 -358 -133t-129 -334q0 -205 133 -333.5t336 -128.5q145 0 311 71l31 -86q-152 -76 -346 -78l-66 -92q63 -10 108.5 -48t45.5 -99q0 -86 -59.5 -129t-159.5 -43q-76 0 -131 32l24 78 q47 -29 121 -28q113 0 113 80q-4 82 -179 98l103 155q-219 18 -356.5 170t-137.5 369z" />
<glyph unicode="&#xe8;" horiz-adv-x="1185" d="M94 504q0 266 150.5 424.5t382.5 158.5q113 0 198.5 -37.5t134 -92t79 -127t39.5 -128t9 -104.5t-4 -68h-882q0 -223 125 -343.5t325 -120.5q195 0 340 67l29 -86q-156 -74 -381 -74q-246 0 -395.5 150t-149.5 381zM209 616h766q0 51 -13.5 107.5t-47 124t-112.5 109.5 t-190 42q-125 0 -218 -63.5t-133 -145.5t-52 -174zM383 1530h164l201 -309h-84z" />
<glyph unicode="&#xe9;" horiz-adv-x="1185" d="M94 504q0 266 150.5 424.5t382.5 158.5q113 0 198.5 -37.5t134 -92t79 -127t39.5 -128t9 -104.5t-4 -68h-882q0 -223 125 -343.5t325 -120.5q195 0 340 67l29 -86q-156 -74 -381 -74q-246 0 -395.5 150t-149.5 381zM209 616h766q0 51 -13.5 107.5t-47 124t-112.5 109.5 t-190 42q-125 0 -218 -63.5t-133 -145.5t-52 -174zM535 1221l202 309h164l-283 -309h-83z" />
<glyph unicode="&#xea;" horiz-adv-x="1185" d="M94 504q0 266 150.5 424.5t382.5 158.5q113 0 198.5 -37.5t134 -92t79 -127t39.5 -128t9 -104.5t-4 -68h-882q0 -223 125 -343.5t325 -120.5q195 0 340 67l29 -86q-156 -74 -381 -74q-246 0 -395.5 150t-149.5 381zM209 616h766q0 51 -13.5 107.5t-47 124t-112.5 109.5 t-190 42q-125 0 -218 -63.5t-133 -145.5t-52 -174zM367 1221l213 309h84l221 -309h-113l-147 225h-7l-147 -225h-104z" />
<glyph unicode="&#xeb;" horiz-adv-x="1185" d="M94 504q0 266 150.5 424.5t382.5 158.5q113 0 198.5 -37.5t134 -92t79 -127t39.5 -128t9 -104.5t-4 -68h-882q0 -223 125 -343.5t325 -120.5q195 0 340 67l29 -86q-156 -74 -381 -74q-246 0 -395.5 150t-149.5 381zM209 616h766q0 51 -13.5 107.5t-47 124t-112.5 109.5 t-190 42q-125 0 -218 -63.5t-133 -145.5t-52 -174zM356 1376q0 35 26 62.5t60.5 27.5t59 -26.5t24.5 -64.5t-23.5 -64.5t-62.5 -26.5h-2q-39 0 -60.5 26.5t-21.5 65.5zM752 1376q0 35 25.5 62.5t61 27.5t59.5 -26.5t24 -64.5t-22.5 -64.5t-63.5 -26.5h-2q-37 0 -59.5 26.5 t-22.5 65.5z" />
<glyph unicode="&#xec;" horiz-adv-x="497" d="M-55 1530h164l200 -309h-84zM195 0v1061h108v-1061h-108z" />
<glyph unicode="&#xed;" horiz-adv-x="497" d="M156 1221l200 309h164l-280 -309h-84zM195 0v1061h108v-1061h-108z" />
<glyph unicode="&#xee;" horiz-adv-x="497" d="M-8 1221l211 309h84l221 -309h-113l-147 225h-4l-150 -225h-102zM195 0v1061h108v-1061h-108z" />
<glyph unicode="&#xef;" horiz-adv-x="497" d="M-33 1376q0 35 25.5 62.5t60.5 27.5t59.5 -26.5t24.5 -64.5t-23.5 -64.5t-62.5 -26.5h-2q-39 0 -60.5 26.5t-21.5 65.5zM195 0v1061h108v-1061h-108zM362 1376q0 35 26 62.5t61.5 27.5t59 -26.5t23.5 -64.5t-22.5 -64.5t-63.5 -26.5h-2q-37 0 -59.5 26.5t-22.5 65.5z" />
<glyph unicode="&#xf0;" horiz-adv-x="1277" d="M94 516q0 254 163 412.5t376 158.5q219 0 371 -153l4 6q-127 225 -355 393l-350 -162l-31 78l299 140q-106 74 -270 133l43 88q182 -72 324 -172l293 141l34 -82l-250 -117q217 -164 330 -391q98 -199 99 -430q0 -150 -47.5 -266.5t-128 -183t-175 -101.5t-196.5 -35 q-236 0 -384.5 153.5t-148.5 389.5zM203 520q0 -209 126 -334t296 -125h2q190 0 313 127t123 357q0 123 -23.5 195.5t-83.5 131.5q-133 127 -321 127q-205 0 -318.5 -148.5t-113.5 -330.5z" />
<glyph unicode="&#xf1;" horiz-adv-x="1306" d="M186 1061h101l10 -211h4q51 102 160.5 169.5t249.5 67.5q37 0 80 -7t106.5 -36.5t110.5 -79t81.5 -143.5t34.5 -217v-604h-108v604q0 170 -82 280.5t-252 110.5q-125 0 -224.5 -72.5t-135.5 -179.5q-18 -49 -19 -96v-647h-108v805q-1 141 -9 256zM399 1274 q-2 92 35 145.5t101 53.5q37 0 147 -56q66 -33 92 -33q57 0 64 97h73q0 -193 -133 -193q-43 0 -133 45q-76 43 -108 43q-51 0 -62 -102h-76z" />
<glyph unicode="&#xf2;" horiz-adv-x="1306" d="M94 520q0 256 165 411.5t398 155.5q250 0 402.5 -155.5t152.5 -386.5q0 -145 -52 -258t-136 -178.5t-181.5 -100.5t-199.5 -35h-2q-236 0 -391.5 154.5t-155.5 392.5zM203 526q0 -213 131 -339t311 -126h2q186 0 321.5 129t135.5 347q0 176 -116 319t-331 143 t-334.5 -137t-119.5 -336zM397 1530h164l203 -309h-84z" />
<glyph unicode="&#xf3;" horiz-adv-x="1306" d="M94 520q0 256 165 411.5t398 155.5q250 0 402.5 -155.5t152.5 -386.5q0 -145 -52 -258t-136 -178.5t-181.5 -100.5t-199.5 -35h-2q-236 0 -391.5 154.5t-155.5 392.5zM203 526q0 -213 131 -339t311 -126h2q186 0 321.5 129t135.5 347q0 176 -116 319t-331 143 t-334.5 -137t-119.5 -336zM551 1221l201 309h163l-280 -309h-84z" />
<glyph unicode="&#xf4;" horiz-adv-x="1306" d="M94 520q0 256 165 411.5t398 155.5q250 0 402.5 -155.5t152.5 -386.5q0 -145 -52 -258t-136 -178.5t-181.5 -100.5t-199.5 -35h-2q-236 0 -391.5 154.5t-155.5 392.5zM203 526q0 -213 131 -339t311 -126h2q186 0 321.5 129t135.5 347q0 176 -116 319t-331 143 t-334.5 -137t-119.5 -336zM395 1221l213 309h84l221 -309h-112l-148 225h-6l-147 -225h-105z" />
<glyph unicode="&#xf5;" horiz-adv-x="1306" d="M94 520q0 256 165 411.5t398 155.5q250 0 402.5 -155.5t152.5 -386.5q0 -145 -52 -258t-136 -178.5t-181.5 -100.5t-199.5 -35h-2q-236 0 -391.5 154.5t-155.5 392.5zM203 526q0 -213 131 -339t311 -126h2q186 0 321.5 129t135.5 347q0 176 -116 319t-331 143 t-334.5 -137t-119.5 -336zM399 1274q-2 92 35 145.5t101 53.5q37 0 147 -56q66 -33 92 -33q57 0 64 97h73q0 -193 -133 -193q-43 0 -133 45q-76 43 -108 43q-51 0 -62 -102h-76z" />
<glyph unicode="&#xf6;" horiz-adv-x="1306" d="M94 520q0 256 165 411.5t398 155.5q250 0 402.5 -155.5t152.5 -386.5q0 -145 -52 -258t-136 -178.5t-181.5 -100.5t-199.5 -35h-2q-236 0 -391.5 154.5t-155.5 392.5zM203 526q0 -213 131 -339t311 -126h2q186 0 321.5 129t135.5 347q0 176 -116 319t-331 143 t-334.5 -137t-119.5 -336zM371 1376q0 35 25.5 62.5t61.5 27.5t60.5 -26.5t24.5 -64.5t-23.5 -64.5t-64.5 -26.5h-2q-37 0 -59.5 26.5t-22.5 65.5zM768 1376q0 35 25.5 62.5t60.5 27.5t59.5 -26.5t24.5 -64.5t-23.5 -64.5t-62.5 -26.5h-2q-39 0 -60.5 26.5t-21.5 65.5z" />
<glyph unicode="&#xf7;" horiz-adv-x="1316" d="M88 547v88h1141v-88h-1141zM591.5 279.5q26.5 29.5 68.5 29.5t68 -29.5t26 -74.5q0 -41 -27 -71t-68 -30h-2q-41 0 -67 31q-25 29 -25 64q0 51 26.5 80.5zM591.5 1047.5q26.5 29.5 68.5 29.5t68 -29.5t26 -74.5q0 -41 -27 -71t-68 -30h-2q-41 0 -67 31q-25 29 -25 64 q0 51 26.5 80.5z" />
<glyph unicode="&#xf8;" horiz-adv-x="1306" d="M94 520q0 256 165 411.5t400 155.5h3q174 0 311 -90l100 125l68 -51l-99 -127q170 -164 170 -397q0 -143 -51 -257t-133 -180.5t-178 -101.5t-197 -35q-188 0 -321 93l-105 -125l-61 59l100 121q-172 159 -172 399zM203 526q0 -201 123 -331h4l585 725q-106 80 -262 79 q-217 0 -333.5 -139t-116.5 -334zM391 139q104 -78 250 -78q197 0 330 130.5t133 349.5q0 188 -125 323h-4z" />
<glyph unicode="&#xf9;" horiz-adv-x="1294" d="M184 467v594h109v-572q0 -422 319 -421q117 0 213.5 64.5t141.5 162.5q27 66 26 123v643h109v-805q0 -141 8 -256h-102l-7 215h-4q-55 -102 -160.5 -172t-252.5 -70q-47 0 -90 8.5t-102.5 38t-102.5 78.5t-74 144.5t-31 224.5zM371 1530h164l202 -309h-84z" />
<glyph unicode="&#xfa;" horiz-adv-x="1294" d="M184 467v594h109v-572q0 -422 319 -421q117 0 213.5 64.5t141.5 162.5q27 66 26 123v643h109v-805q0 -141 8 -256h-102l-7 215h-4q-55 -102 -160.5 -172t-252.5 -70q-47 0 -90 8.5t-102.5 38t-102.5 78.5t-74 144.5t-31 224.5zM578 1221l200 309h164l-280 -309h-84z" />
<glyph unicode="&#xfb;" horiz-adv-x="1294" d="M184 467v594h109v-572q0 -422 319 -421q117 0 213.5 64.5t141.5 162.5q27 66 26 123v643h109v-805q0 -141 8 -256h-102l-7 215h-4q-55 -102 -160.5 -172t-252.5 -70q-47 0 -90 8.5t-102.5 38t-102.5 78.5t-74 144.5t-31 224.5zM389 1221l213 309h84l221 -309h-112 l-150 225h-4l-147 -225h-105z" />
<glyph unicode="&#xfc;" horiz-adv-x="1294" d="M184 467v594h109v-572q0 -422 319 -421q117 0 213.5 64.5t141.5 162.5q27 66 26 123v643h109v-805q0 -141 8 -256h-102l-7 215h-4q-55 -102 -160.5 -172t-252.5 -70q-47 0 -90 8.5t-102.5 38t-102.5 78.5t-74 144.5t-31 224.5zM371 1376q0 35 25.5 62.5t61.5 27.5 t60.5 -26.5t24.5 -64.5t-23.5 -64.5t-64.5 -26.5h-2q-37 0 -59.5 26.5t-22.5 65.5zM768 1376q0 35 25.5 62.5t60.5 27.5t59.5 -26.5t24.5 -64.5t-23.5 -64.5t-62.5 -26.5h-2q-39 0 -60.5 26.5t-21.5 65.5z" />
<glyph unicode="&#xfd;" horiz-adv-x="1060" d="M20 1061h117l316 -709q57 -127 88 -223h4q57 156 88 231l297 701h117l-377 -858q-115 -262 -198 -396.5t-185 -205.5q-104 -78 -195 -97l-29 90q113 35 195 105q125 104 205 285q12 29 12 43q0 16 -14 49zM461 1221l201 309h163l-280 -309h-84z" />
<glyph unicode="&#xfe;" horiz-adv-x="1355" d="M195 -442v1915h108v-621h4q145 236 443 235q225 0 368.5 -155.5t143.5 -378.5q0 -274 -158 -427t-387 -153q-274 0 -410 215h-4v-630h-108zM303 418q0 -51 19 -96q39 -111 149.5 -186t253.5 -75q188 0 308 130.5t120 359.5q0 188 -117.5 318t-308.5 130 q-127 0 -237.5 -69.5t-159.5 -194.5q-27 -76 -27 -131v-186z" />
<glyph unicode="&#xff;" horiz-adv-x="1060" d="M20 1061h117l316 -709q57 -127 88 -223h4q57 156 88 231l297 701h117l-377 -858q-115 -262 -198 -396.5t-185 -205.5q-104 -78 -195 -97l-29 90q113 35 195 105q125 104 205 285q12 29 12 43q0 16 -14 49zM279 1376q0 35 25.5 62.5t60 27.5t59.5 -26.5t25 -64.5 t-23 -64.5t-64 -26.5h-2q-37 0 -59 26.5t-22 65.5zM674 1376q0 35 25.5 62.5t61.5 27.5t60.5 -26.5t24.5 -64.5t-23.5 -64.5t-64.5 -26.5h-2q-37 0 -59.5 26.5t-22.5 65.5z" />
<glyph unicode="&#x100;" horiz-adv-x="1415" d="M66 0l602 1491h106l598 -1491h-112l-211 524h-664l-207 -524h-112zM422 614h592l-211 525q-41 104 -82 237h-4q-29 -96 -82 -231zM446 1620v88h525v-88h-525z" />
<glyph unicode="&#x101;" horiz-adv-x="1095" d="M92 266q0 186 179 291q172 101 513 101q13 0 27 -1v25q0 33 -3 64.5t-20.5 81t-47 84t-90 60t-140.5 25.5q-178 0 -305 -88l-35 78q156 100 350 100q399 0 400 -446v-385q0 -141 18 -256h-100l-17 164h-4q-51 -74 -152.5 -132.5t-232.5 -58.5q-166 0 -253 91t-87 202z M209 285q0 -109 65.5 -166.5t165.5 -57.5q139 0 230.5 66t128.5 152q12 33 12 61v225q-44 2 -85 3q-68 0 -129 -7q-97 -10 -190.5 -38.5t-145.5 -88t-52 -149.5zM309 1309v92h482v-92h-482z" />
<glyph unicode="&#x102;" horiz-adv-x="1415" d="M66 0l602 1491h106l598 -1491h-112l-211 524h-664l-207 -524h-112zM422 614h592l-211 525q-41 104 -82 237h-4q-29 -96 -82 -231zM444 1792h80q31 -117 187 -117q164 0 180 117h80q-4 -94 -68.5 -154.5t-200.5 -60.5q-129 0 -191.5 60.5t-66.5 154.5z" />
<glyph unicode="&#x103;" horiz-adv-x="1095" d="M92 266q0 186 179 291q172 101 513 101q13 0 27 -1v25q0 33 -3 64.5t-20.5 81t-47 84t-90 60t-140.5 25.5q-178 0 -305 -88l-35 78q156 100 350 100q399 0 400 -446v-385q0 -141 18 -256h-100l-17 164h-4q-51 -74 -152.5 -132.5t-232.5 -58.5q-166 0 -253 91t-87 202z M209 285q0 -109 65.5 -166.5t165.5 -57.5q139 0 230.5 66t128.5 152q12 33 12 61v225q-44 2 -85 3q-68 0 -129 -7q-97 -10 -190.5 -38.5t-145.5 -88t-52 -149.5zM281 1505h84q14 -72 63 -121t121 -49q84 0 129 52.5t53 117.5h86q-4 -117 -78.5 -187.5t-189.5 -70.5 q-137 0 -201.5 79t-66.5 179z" />
<glyph unicode="&#x104;" horiz-adv-x="1415" d="M66 0l602 1491h106l598 -1491l-22 -8q-166 -131 -166 -242q0 -51 30.5 -79.5t82 -28.5t104.5 24l18 -63q-53 -41 -149 -41q-84 0 -135.5 44t-51.5 122q0 51 30 108.5t60.5 91t79.5 82.5l-204 514h-664l-207 -524h-112zM422 614h592l-211 525q-41 104 -82 237h-4 q-29 -96 -82 -231z" />
<glyph unicode="&#x105;" horiz-adv-x="1095" d="M92 266q0 186 179 291q172 101 513 101q13 0 27 -1v25q0 33 -3 64.5t-20.5 81t-47 84t-90 60t-140.5 25.5q-178 0 -305 -88l-35 78q156 100 350 100q399 0 400 -446v-385q0 -141 18 -256h-16q-113 -131 -113 -244q0 -109 113 -108q55 0 104 22l21 -65q-53 -41 -156 -41 q-82 0 -131 44t-49 122q0 51 23.5 109.5t41.5 85.5l60 87l-15 152h-4q-51 -74 -152.5 -132.5t-232.5 -58.5q-166 0 -253 91t-87 202zM209 285q0 -109 65.5 -166.5t165.5 -57.5q139 0 230.5 66t128.5 152q12 33 12 61v225q-44 2 -85 3q-68 0 -129 -7q-97 -10 -190.5 -38.5 t-145.5 -88t-52 -149.5z" />
<glyph unicode="&#x106;" horiz-adv-x="1415" d="M84 739q0 147 55.5 285.5t156.5 249t266 177.5t370 67q246 0 401 -76l-35 -90q-150 76 -360 75q-354 0 -547.5 -192.5t-193.5 -505.5q0 -287 188 -475t526 -188q233 0 394 79l32 -86q-172 -86 -465 -86q-156 0 -294 47.5t-249.5 139.5t-178 241.5t-66.5 337.5zM791 1579 l210 254h168l-290 -254h-88z" />
<glyph unicode="&#x107;" horiz-adv-x="1099" d="M94 516q0 260 172 415.5t432 155.5q215 0 324 -73l-39 -90q-125 72 -293 71q-229 0 -358 -133t-129 -334q0 -205 133 -333.5t336 -128.5q145 0 311 71l31 -86q-164 -78 -357 -78q-250 0 -406.5 153.5t-156.5 389.5zM532 1221l203 309h162l-281 -309h-84z" />
<glyph unicode="&#x108;" horiz-adv-x="1415" d="M84 739q0 147 55.5 285.5t156.5 249t266 177.5t370 67q246 0 401 -76l-35 -90q-150 76 -360 75q-354 0 -547.5 -192.5t-193.5 -505.5q0 -287 188 -475t526 -188q233 0 394 79l32 -86q-172 -86 -465 -86q-156 0 -294 47.5t-249.5 139.5t-178 241.5t-66.5 337.5zM557 1581 l242 254h80l249 -254h-120l-168 176h-4l-168 -176h-111z" />
<glyph unicode="&#x109;" horiz-adv-x="1099" d="M94 516q0 260 172 415.5t432 155.5q215 0 324 -73l-39 -90q-125 72 -293 71q-229 0 -358 -133t-129 -334q0 -205 133 -333.5t336 -128.5q145 0 311 71l31 -86q-164 -78 -357 -78q-250 0 -406.5 153.5t-156.5 389.5zM362 1221l213 309h84l222 -309h-113l-150 225h-4 l-147 -225h-105z" />
<glyph unicode="&#x10a;" horiz-adv-x="1415" d="M84 739q0 147 55.5 285.5t156.5 249t266 177.5t370 67q246 0 401 -76l-35 -90q-150 76 -360 75q-354 0 -547.5 -192.5t-193.5 -505.5q0 -287 188 -475t526 -188q233 0 394 79l32 -86q-172 -86 -465 -86q-156 0 -294 47.5t-249.5 139.5t-178 241.5t-66.5 337.5zM748 1692 q0 33 25.5 61.5t60 28.5t59.5 -29t25 -61q0 -35 -25 -62.5t-62 -27.5h-2q-33 0 -57 27.5t-24 62.5z" />
<glyph unicode="&#x10b;" horiz-adv-x="1099" d="M94 516q0 260 172 415.5t432 155.5q215 0 324 -73l-39 -90q-125 72 -293 71q-229 0 -358 -133t-129 -334q0 -205 133 -333.5t336 -128.5q145 0 311 71l31 -86q-164 -78 -357 -78q-250 0 -406.5 153.5t-156.5 389.5zM535 1378q0 35 26.5 63.5t62 28.5t61.5 -27.5t26 -65.5 t-24.5 -65.5t-65.5 -27.5h-3q-35 0 -59 27.5t-24 66.5z" />
<glyph unicode="&#x10c;" horiz-adv-x="1415" d="M84 739q0 147 55.5 285.5t156.5 249t266 177.5t370 67q246 0 401 -76l-35 -90q-150 76 -360 75q-354 0 -547.5 -192.5t-193.5 -505.5q0 -287 188 -475t526 -188q233 0 394 79l32 -86q-172 -86 -465 -86q-156 0 -294 47.5t-249.5 139.5t-178 241.5t-66.5 337.5zM563 1835 h121l170 -172h4l166 172h111l-242 -254h-80z" />
<glyph unicode="&#x10d;" horiz-adv-x="1099" d="M94 516q0 260 172 415.5t432 155.5q215 0 324 -73l-39 -90q-125 72 -293 71q-229 0 -358 -133t-129 -334q0 -205 133 -333.5t336 -128.5q145 0 311 71l31 -86q-164 -78 -357 -78q-250 0 -406.5 153.5t-156.5 389.5zM358 1530h113l154 -227h4l151 227h105l-213 -309h-92z " />
<glyph unicode="&#x10e;" horiz-adv-x="1599" d="M195 0v1470q248 33 446 33q477 0 696 -237q180 -195 181 -488q0 -324 -207 -545q-233 -246 -729 -245q-231 0 -387 12zM303 1384v-1294q84 -12 297 -12q403 0 605 194.5t202 503.5v12q0 282 -189 452q-194 173 -585 173q-187 0 -330 -29zM463 1833h119l170 -172h4 l166 172h110l-239 -254h-80z" />
<glyph unicode="&#x10f;" horiz-adv-x="1351" d="M94 512q0 251 154 413q156 163 383 162q150 0 251 -61t142 -141h4v698h109v-1327q0 -141 8 -256h-98l-7 221h-6q-49 -109 -159.5 -178.5t-268.5 -69.5q-221 0 -366.5 154.5t-145.5 384.5zM203 520q0 -193 110.5 -326t317.5 -133q135 0 243.5 83t141.5 210q12 43 12 92 v189q0 57 -12 104q-39 113 -139.5 186.5t-243.5 73.5q-190 0 -310 -132t-120 -347zM1245 1266q100 66 101 172q0 80 -84 135l94 26q33 -18 59.5 -61t26.5 -96q0 -154 -158 -232z" />
<glyph unicode="&#x110;" horiz-adv-x="1603" d="M-12 700v91h207v686q248 35 446 34q477 0 696 -239q180 -195 181 -494q0 -324 -207 -545q-233 -246 -729 -245q-231 0 -387 12v700h-207zM303 791h528v-91h-528v-610q84 -12 297 -12q403 0 605 195.5t202 508.5v12q0 282 -189 452q-194 173 -585 173q-186 0 -330 -28 v-600z" />
<glyph unicode="&#x111;" horiz-adv-x="1331" d="M94 512q0 251 154 413q156 163 383 162q150 0 251 -61t142 -141h4v358h-514v86h514v254h109v-254h182v-86h-182v-987q0 -141 8 -256h-98l-7 221h-6q-49 -109 -159.5 -178.5t-268.5 -69.5q-221 0 -366.5 154.5t-145.5 384.5zM203 520q0 -193 110.5 -326t317.5 -133 q135 0 243.5 83t141.5 210q12 43 12 92v189q0 57 -12 104q-39 113 -139.5 186.5t-243.5 73.5q-190 0 -310 -132t-120 -347z" />
<glyph unicode="&#x112;" horiz-adv-x="1128" d="M195 0v1491h809v-90h-701v-570h664v-90h-664v-651h739v-90h-847zM344 1620v88h524v-88h-524z" />
<glyph unicode="&#x113;" horiz-adv-x="1185" d="M94 504q0 266 150.5 424.5t382.5 158.5q113 0 198.5 -37.5t134 -92t79 -127t39.5 -128t9 -104.5t-4 -68h-882q0 -223 125 -343.5t325 -120.5q195 0 340 67l29 -86q-156 -74 -381 -74q-246 0 -395.5 150t-149.5 381zM209 616h766q0 51 -13.5 107.5t-47 124t-112.5 109.5 t-190 42q-125 0 -218 -63.5t-133 -145.5t-52 -174zM356 1309v92h480v-92h-480z" />
<glyph unicode="&#x114;" horiz-adv-x="1128" d="M195 0v1491h809v-90h-701v-570h664v-90h-664v-651h739v-90h-847zM315 1825h80q31 -117 187 -117q164 0 182 117h78q-4 -92 -67.5 -153.5t-199.5 -61.5q-131 0 -192.5 61.5t-67.5 153.5z" />
<glyph unicode="&#x115;" horiz-adv-x="1185" d="M94 504q0 266 150.5 424.5t382.5 158.5q113 0 198.5 -37.5t134 -92t79 -127t39.5 -128t9 -104.5t-4 -68h-882q0 -223 125 -343.5t325 -120.5q195 0 340 67l29 -86q-156 -74 -381 -74q-246 0 -395.5 150t-149.5 381zM209 616h766q0 51 -13.5 107.5t-47 124t-112.5 109.5 t-190 42q-125 0 -218 -63.5t-133 -145.5t-52 -174zM328 1505h84q12 -72 62 -121t122 -49q84 0 129 52.5t53 117.5h84q-2 -117 -76.5 -187.5t-189.5 -70.5q-137 0 -201.5 79t-66.5 179z" />
<glyph unicode="&#x116;" horiz-adv-x="1128" d="M195 0v1491h809v-90h-701v-570h664v-90h-664v-651h739v-90h-847zM481 1692q0 33 25.5 61.5t61.5 28.5t60.5 -29t24.5 -61q0 -35 -24.5 -62.5t-63.5 -27.5h-2q-33 0 -57.5 27.5t-24.5 62.5z" />
<glyph unicode="&#x117;" horiz-adv-x="1185" d="M94 504q0 266 150.5 424.5t382.5 158.5q113 0 198.5 -37.5t134 -92t79 -127t39.5 -128t9 -104.5t-4 -68h-882q0 -223 125 -343.5t325 -120.5q195 0 340 67l29 -86q-156 -74 -381 -74q-246 0 -395.5 150t-149.5 381zM209 616h766q0 51 -13.5 107.5t-47 124t-112.5 109.5 t-190 42q-125 0 -218 -63.5t-133 -145.5t-52 -174zM508 1378q0 35 26.5 63.5t62.5 28.5t61.5 -27.5t25.5 -65.5t-24.5 -65.5t-63.5 -27.5h-4q-35 0 -59.5 27.5t-24.5 66.5z" />
<glyph unicode="&#x118;" horiz-adv-x="1128" d="M195 0v1491h809v-90h-701v-570h664v-90h-664v-651h739v-90h-24q-84 -55 -144.5 -124t-60.5 -130q0 -100 119 -100q53 0 98 16l21 -72q-66 -29 -142 -28q-90 0 -142 42t-52 121.5t57 153.5t131 121h-708z" />
<glyph unicode="&#x119;" horiz-adv-x="1185" d="M94 504q0 266 150.5 424.5t382.5 158.5q113 0 198.5 -37.5t134 -92t79 -127t39.5 -128t9 -104.5t-4 -68h-882q0 -223 125 -343.5t325 -120.5q195 0 340 67l29 -86q-18 -10 -45 -19l-52 -18q-26 -8 -30 -10q-74 -31 -145.5 -103.5t-71.5 -142.5q0 -51 30.5 -78.5 t71.5 -27.5q68 0 111 20l20 -65q-61 -39 -147 -39t-135 43t-49 123q0 72 49 138t116 107v2q-68 -4 -104 -4q-246 0 -395.5 150t-149.5 381zM209 616h766q0 51 -13.5 107.5t-47 124t-112.5 109.5t-190 42q-125 0 -218 -63.5t-133 -145.5t-52 -174z" />
<glyph unicode="&#x11a;" horiz-adv-x="1128" d="M195 0v1491h809v-90h-701v-570h664v-90h-664v-651h739v-90h-847zM313 1825h121l170 -172h4l166 172h111l-242 -254h-80z" />
<glyph unicode="&#x11b;" horiz-adv-x="1185" d="M94 504q0 266 150.5 424.5t382.5 158.5q113 0 198.5 -37.5t134 -92t79 -127t39.5 -128t9 -104.5t-4 -68h-882q0 -223 125 -343.5t325 -120.5q195 0 340 67l29 -86q-156 -74 -381 -74q-246 0 -395.5 150t-149.5 381zM209 616h766q0 51 -13.5 107.5t-47 124t-112.5 109.5 t-190 42q-125 0 -218 -63.5t-133 -145.5t-52 -174zM332 1530h112l154 -227h4l152 227h104l-213 -309h-92z" />
<glyph unicode="&#x11c;" horiz-adv-x="1533" d="M84 748q0 137 52 267t153.5 242.5t273.5 180t385 67.5q238 0 400 -73l-37 -89q-156 72 -367 72q-354 0 -550.5 -191.5t-196.5 -480.5q0 -297 192.5 -482t525.5 -185q252 0 373 61v510h-385v90h492v-661q-231 -92 -500 -92q-367 0 -594 213q-102 96 -159.5 239.5 t-57.5 311.5zM573 1579l240 254h80l250 -254h-119l-168 174h-4l-168 -174h-111z" />
<glyph unicode="&#x11d;" horiz-adv-x="1331" d="M94 518q0 256 159 412.5t374 156.5q158 0 261 -65.5t146 -157.5h6l7 197h98q-8 -115 -8 -256v-647q0 -350 -164 -496q-145 -131 -398 -131q-242 0 -378 104l41 86q152 -102 354.5 -102t319 109.5t116.5 343.5v153h-4q-53 -94 -160.5 -159.5t-261.5 -65.5 q-221 0 -364.5 154.5t-143.5 363.5zM203 530q0 -176 110.5 -309t319.5 -133q123 0 226.5 71.5t146.5 182.5q23 55 22 117v176q0 63 -14 110q-41 111 -140.5 182.5t-236.5 71.5q-193 0 -313.5 -129t-120.5 -340zM408 1235l210 309h84l222 -309h-113l-147 225h-5l-149 -225 h-102z" />
<glyph unicode="&#x11e;" horiz-adv-x="1533" d="M84 748q0 137 52 267t153.5 242.5t273.5 180t385 67.5q238 0 400 -73l-37 -89q-156 72 -367 72q-354 0 -550.5 -191.5t-196.5 -480.5q0 -297 192.5 -482t525.5 -185q252 0 373 61v510h-385v90h492v-661q-231 -92 -500 -92q-367 0 -594 213q-102 96 -159.5 239.5 t-57.5 311.5zM563 1825h80q31 -117 186 -117q164 0 183 117h78q-4 -92 -68 -153.5t-199 -61.5q-131 0 -192.5 61.5t-67.5 153.5z" />
<glyph unicode="&#x11f;" horiz-adv-x="1331" d="M94 518q0 256 159 412.5t374 156.5q158 0 261 -65.5t146 -157.5h6l7 197h98q-8 -115 -8 -256v-647q0 -350 -164 -496q-145 -131 -398 -131q-242 0 -378 104l41 86q152 -102 354.5 -102t319 109.5t116.5 343.5v153h-4q-53 -94 -160.5 -159.5t-261.5 -65.5 q-221 0 -364.5 154.5t-143.5 363.5zM203 530q0 -176 110.5 -309t319.5 -133q123 0 226.5 71.5t146.5 182.5q23 55 22 117v176q0 63 -14 110q-41 111 -140.5 182.5t-236.5 71.5q-193 0 -313.5 -129t-120.5 -340zM365 1505h84q14 -72 63 -121t121 -49q84 0 129 52.5t55 117.5 h84q-4 -117 -78.5 -187.5t-189.5 -70.5q-137 0 -201.5 79t-66.5 179z" />
<glyph unicode="&#x120;" horiz-adv-x="1533" d="M84 748q0 137 52 267t153.5 242.5t273.5 180t385 67.5q238 0 400 -73l-37 -89q-156 72 -367 72q-354 0 -550.5 -191.5t-196.5 -480.5q0 -297 192.5 -482t525.5 -185q252 0 373 61v510h-385v90h492v-661q-231 -92 -500 -92q-367 0 -594 213q-102 96 -159.5 239.5 t-57.5 311.5zM776 1692q0 33 25.5 61.5t60.5 28.5t59.5 -29t24.5 -61q0 -35 -24.5 -62.5t-61.5 -27.5h-2q-33 0 -57.5 27.5t-24.5 62.5z" />
<glyph unicode="&#x121;" horiz-adv-x="1331" d="M94 518q0 256 159 412.5t374 156.5q158 0 261 -65.5t146 -157.5h6l7 197h98q-8 -115 -8 -256v-647q0 -350 -164 -496q-145 -131 -398 -131q-242 0 -378 104l41 86q152 -102 354.5 -102t319 109.5t116.5 343.5v153h-4q-53 -94 -160.5 -159.5t-261.5 -65.5 q-221 0 -364.5 154.5t-143.5 363.5zM203 530q0 -176 110.5 -309t319.5 -133q123 0 226.5 71.5t146.5 182.5q23 55 22 117v176q0 63 -14 110q-41 111 -140.5 182.5t-236.5 71.5q-193 0 -313.5 -129t-120.5 -340zM580 1390.5q0 36.5 26.5 65.5t61 29t60.5 -27.5t26 -65.5 t-23.5 -66t-64.5 -28h-2q-35 0 -59.5 28t-24.5 64.5z" />
<glyph unicode="&#x122;" horiz-adv-x="1533" d="M84 748q0 137 52 267t153.5 242.5t273.5 180t385 67.5q238 0 400 -73l-37 -89q-156 72 -367 72q-354 0 -550.5 -191.5t-196.5 -480.5q0 -297 192.5 -482t525.5 -185q252 0 373 61v510h-385v90h492v-661q-231 -92 -500 -92q-367 0 -594 213q-102 96 -159.5 239.5 t-57.5 311.5zM717 -406q188 20 188 152q0 80 -84 135l88 27q37 -23 64.5 -65t27.5 -93q0 -104 -80.5 -157.5t-175.5 -57.5z" />
<glyph unicode="&#x123;" horiz-adv-x="1331" d="M94 518q0 256 159 412.5t374 156.5q158 0 261 -65.5t146 -157.5h6l7 197h98q-8 -115 -8 -256v-647q0 -350 -164 -496q-145 -131 -398 -131q-242 0 -378 104l41 86q152 -102 354.5 -102t319 109.5t116.5 343.5v153h-4q-53 -94 -160.5 -159.5t-261.5 -65.5 q-221 0 -364.5 154.5t-143.5 363.5zM203 530q0 -176 110.5 -309t319.5 -133q123 0 226.5 71.5t146.5 182.5q23 55 22 117v176q0 63 -14 110q-41 111 -140.5 182.5t-236.5 71.5q-193 0 -313.5 -129t-120.5 -340zM518 1343q0 102 81 155.5t175 57.5l29 -59q-188 -20 -189 -149 q0 -80 84 -136l-88 -26q-37 23 -64.5 64.5t-27.5 92.5z" />
<glyph unicode="&#x124;" horiz-adv-x="1538" d="M195 0v1491h108v-653h934v653h109v-1491h-109v748h-934v-748h-108zM485 1571l240 254h80l250 -254h-119l-168 174h-4l-168 -174h-111z" />
<glyph unicode="&#x125;" horiz-adv-x="1306" d="M-29 1610l242 254h80l250 -254h-121l-168 176h-4l-168 -176h-111zM195 0v1583h108v-735h4q55 111 164 172q113 68 240 67q39 0 82 -7t106.5 -35.5t109.5 -77.5t80.5 -143.5t34.5 -217.5v-606h-108v602q0 170 -81 280.5t-253 110.5q-123 0 -222.5 -72.5t-137.5 -177.5 q-18 -45 -19 -112v-631h-108z" />
<glyph unicode="&#x126;" horiz-adv-x="1538" d="M76 1067v86h119v338h108v-338h934v338h109v-338h118v-86h-118v-1067h-109v729h-934v-729h-108v1067h-119zM303 821h934v246h-934v-246z" />
<glyph unicode="&#x127;" horiz-adv-x="1306" d="M12 1243v86h183v254h108v-254h494v-86h-494v-395h4q55 111 164 172q113 68 240 67q39 0 82 -7t106.5 -35.5t109.5 -77.5t80.5 -143.5t34.5 -217.5v-606h-108v602q0 170 -81 280.5t-253 110.5q-123 0 -222.5 -72.5t-137.5 -177.5q-18 -45 -19 -112v-631h-108v1243h-183z " />
<glyph unicode="&#x128;" horiz-adv-x="497" d="M-16 1581q-2 82 37.5 138.5t107.5 56.5q43 0 135 -50q74 -37 117 -36q55 0 59 84h76q0 -180 -135 -181q-51 0 -139 44t-121 44q-49 0 -62 -100h-75zM195 0v1491h108v-1491h-108z" />
<glyph unicode="&#x129;" horiz-adv-x="497" d="M-4 1274q-2 92 34 145.5t101 53.5q35 0 145 -56q66 -33 93 -33q57 0 65 97h72q0 -193 -131 -193q-45 0 -133 45q-78 43 -109 43q-53 0 -61 -102h-76zM195 0v1061h108v-1061h-108z" />
<glyph unicode="&#x12a;" horiz-adv-x="497" d="M-10 1620v88h524v-88h-524zM195 0v1491h108v-1491h-108z" />
<glyph unicode="&#x12b;" horiz-adv-x="497" d="M10 1309v92h482v-92h-482zM195 0v1061h108v-1061h-108z" />
<glyph unicode="&#x12c;" horiz-adv-x="497" d="M-12 1808h78q33 -117 186 -116q164 0 182 116h80q-6 -92 -69.5 -152.5t-198.5 -60.5q-131 0 -192.5 60.5t-65.5 152.5zM195 0v1491h108v-1491h-108z" />
<glyph unicode="&#x12d;" horiz-adv-x="497" d="M-6 1505h84q12 -72 62 -121t120 -49q84 0 130 52.5t54 117.5h84q-2 -117 -76.5 -187.5t-191.5 -70.5q-137 0 -200.5 79t-65.5 179zM195 0v1061h108v-1061h-108z" />
<glyph unicode="&#x12e;" horiz-adv-x="497" d="M68 -283q0 51 24.5 109.5t42.5 86.5l60 87v1491h108v-1491h-14q-121 -154 -121 -256q0 -109 113 -109q55 0 104 23l21 -68q-53 -39 -156 -39q-82 0 -132 44t-50 122z" />
<glyph unicode="&#x12f;" horiz-adv-x="497" d="M68 -283q0 51 24.5 109.5t42.5 86.5l60 87v1061h108v-1061h-14q-121 -154 -121 -256q0 -109 113 -109q55 0 104 23l21 -68q-53 -39 -156 -39q-82 0 -132 44t-50 122zM160 1396q0 38 26.5 66.5t63.5 28.5t62.5 -27.5t25.5 -68.5q0 -37 -25.5 -66t-64.5 -29h-2 q-37 0 -61.5 29t-24.5 67z" />
<glyph unicode="&#x130;" horiz-adv-x="497" d="M166 1692q0 33 25.5 61.5t60.5 28.5t59.5 -29t24.5 -61q0 -35 -24.5 -62.5t-61.5 -27.5h-2q-33 0 -57.5 27.5t-24.5 62.5zM195 0v1491h108v-1491h-108z" />
<glyph unicode="&#x131;" horiz-adv-x="497" d="M195 0v1061h108v-1061h-108z" />
<glyph unicode="&#x132;" horiz-adv-x="1333" d="M195 0v1491h108v-1491h-108zM510 16l27 88q80 -39 186 -38q164 0 245 99t81 351v975h108v-1004q0 -514 -434 -514q-127 0 -213 43z" />
<glyph unicode="&#x133;" horiz-adv-x="1005" d="M160 1375q0 38 26.5 66.5t63.5 28.5t62.5 -27.5t25.5 -66.5t-25.5 -67.5t-64.5 -28.5h-2q-37 0 -61.5 28.5t-24.5 66.5zM195 0v1061h108v-1061h-108zM369 -381q166 4 245 86q49 53 68.5 144.5t19.5 308.5v903h109v-983q0 -152 -24.5 -253t-96.5 -177q-57 -59 -147 -88 t-162 -29zM668 1375q0 38 26.5 66.5t67.5 28.5q37 0 61.5 -28.5t24.5 -66.5t-24.5 -66.5t-67.5 -28.5h-2q-37 0 -61.5 28.5t-24.5 66.5z" />
<glyph unicode="&#x134;" horiz-adv-x="835" d="M12 16l27 88q80 -39 186 -38q164 0 245 99t81 351v975h108v-1004q0 -514 -434 -514q-127 0 -213 43zM309 1571l242 254h80l250 -254h-119l-170 174h-4l-168 -174h-111z" />
<glyph unicode="&#x135;" horiz-adv-x="507" d="M-129 -381q166 4 246 86q49 53 68.5 144.5t19.5 308.5v903h108v-983q0 -152 -24.5 -253t-95.5 -177q-57 -59 -147.5 -88t-162.5 -29zM-10 1198l211 311h84l221 -311h-113l-147 227h-4l-150 -227h-102z" />
<glyph unicode="&#x136;" horiz-adv-x="1193" d="M195 0v1491h108v-764h8q33 45 135 152l596 612h138l-629 -635l694 -856h-135l-635 786l-172 -172v-614h-108zM449 -406q188 20 188 152q0 80 -84 135l88 27q39 -23 66.5 -65t27.5 -93q0 -104 -81 -157.5t-177 -57.5z" />
<glyph unicode="&#x137;" horiz-adv-x="1011" d="M195 0v1583h108v-1032h4q53 61 117 121l414 389h137l-473 -436l542 -625h-135l-485 561l-121 -117v-444h-108zM358 -406q188 20 189 152q0 80 -84 135l88 27q37 -23 64.5 -65t27.5 -93q0 -104 -81 -157.5t-175 -57.5z" />
<glyph unicode="&#x138;" horiz-adv-x="1011" d="M195 0v1061h108v-510h4q53 61 117 121l414 389h137l-473 -436l542 -625h-135l-485 561l-121 -117v-444h-108z" />
<glyph unicode="&#x139;" horiz-adv-x="1083" d="M195 0v1491h108v-1401h739v-90h-847zM221 1571l213 254h168l-293 -254h-88z" />
<glyph unicode="&#x13a;" horiz-adv-x="497" d="M143 1651l213 254h168l-293 -254h-88zM195 0v1583h108v-1583h-108z" />
<glyph unicode="&#x13b;" horiz-adv-x="1083" d="M195 0v1491h108v-1401h739v-90h-847zM426 -406q188 20 188 152q0 80 -84 135l88 27q39 -23 67 -65t28 -93q0 -104 -81 -157.5t-177 -57.5z" />
<glyph unicode="&#x13c;" horiz-adv-x="497" d="M82 -406q188 20 188 152q0 80 -84 135l88 27q37 -23 65 -65t28 -93q0 -104 -81 -157.5t-175 -57.5zM195 0v1583h108v-1583h-108z" />
<glyph unicode="&#x13d;" horiz-adv-x="1083" d="M195 0v1491h108v-1401h739v-90h-847zM545 1206q186 18 186 150q0 80 -84 135l90 27q37 -23 64.5 -65t27.5 -93q0 -104 -80.5 -156.5t-175.5 -58.5z" />
<glyph unicode="&#x13e;" horiz-adv-x="518" d="M195 0v1583h108v-1583h-108zM393 1266q100 66 101 172q0 80 -84 135l94 26q33 -18 59.5 -61t26.5 -96q0 -154 -156 -232z" />
<glyph unicode="&#x13f;" horiz-adv-x="1083" d="M195 0v1491h108v-1401h739v-90h-847zM688 817q0 33 25.5 61.5t60.5 28.5t59.5 -28.5t24.5 -61.5q0 -37 -24.5 -64.5t-61.5 -27.5h-2q-33 0 -57.5 27.5t-24.5 64.5z" />
<glyph unicode="&#x140;" horiz-adv-x="518" d="M195 0v1583h108v-1583h-108zM418 862q0 35 25.5 62.5t61.5 27.5t59.5 -25.5t23.5 -63.5t-23.5 -64.5t-62.5 -26.5h-2q-35 0 -58.5 27.5t-23.5 62.5z" />
<glyph unicode="&#x141;" horiz-adv-x="1083" d="M-12 516v96l207 142v737h108v-668l326 219v-98l-326 -219v-635h739v-90h-847v659z" />
<glyph unicode="&#x142;" horiz-adv-x="497" d="M35 600v98l160 131v754h108v-672l160 131v-102l-160 -131v-809h-108v729z" />
<glyph unicode="&#x143;" horiz-adv-x="1560" d="M195 0v1491h102l674 -918q233 -317 303 -436l4 4q-16 197 -16 580v770h104v-1491h-98l-654 887q-244 332 -319 463l-8 -4q14 -203 14 -549v-797h-106zM696 1571l213 254h168l-293 -254h-88z" />
<glyph unicode="&#x144;" horiz-adv-x="1306" d="M186 1061h101l10 -211h4q51 102 160.5 169.5t249.5 67.5q37 0 80 -7t106.5 -36.5t110.5 -79t81.5 -143.5t34.5 -217v-604h-108v604q0 170 -82 280.5t-252 110.5q-125 0 -224.5 -72.5t-135.5 -179.5q-18 -49 -19 -96v-647h-108v805q-1 141 -9 256zM584 1221l200 309h164 l-280 -309h-84z" />
<glyph unicode="&#x145;" horiz-adv-x="1560" d="M195 0v1491h102l674 -918q233 -317 303 -436l4 4q-16 197 -16 580v770h104v-1491h-98l-654 887q-244 332 -319 463l-8 -4q14 -203 14 -549v-797h-106zM633 -406q188 20 188 152q0 80 -84 135l88 27q37 -23 65 -65t28 -93q0 -104 -81 -157.5t-175 -57.5z" />
<glyph unicode="&#x146;" horiz-adv-x="1306" d="M186 1061h101l10 -211h4q51 102 160.5 169.5t249.5 67.5q37 0 80 -7t106.5 -36.5t110.5 -79t81.5 -143.5t34.5 -217v-604h-108v604q0 170 -82 280.5t-252 110.5q-125 0 -224.5 -72.5t-135.5 -179.5q-18 -49 -19 -96v-647h-108v805q-1 141 -9 256zM506 -406 q188 20 188 152q0 80 -84 135l88 27q39 -23 67 -65t28 -93q0 -104 -81 -157.5t-177 -57.5z" />
<glyph unicode="&#x147;" horiz-adv-x="1560" d="M195 0v1491h102l674 -918q233 -317 303 -436l4 4q-16 197 -16 580v770h104v-1491h-98l-654 887q-244 332 -319 463l-8 -4q14 -203 14 -549v-797h-106zM496 1802h118l170 -172h7l165 172h111l-242 -254h-80z" />
<glyph unicode="&#x148;" horiz-adv-x="1306" d="M186 1061h101l10 -211h4q51 102 160.5 169.5t249.5 67.5q37 0 80 -7t106.5 -36.5t110.5 -79t81.5 -143.5t34.5 -217v-604h-108v604q0 170 -82 280.5t-252 110.5q-125 0 -224.5 -72.5t-135.5 -179.5q-18 -49 -19 -96v-647h-108v805q-1 141 -9 256zM391 1530h113l153 -227 h5l151 227h105l-211 -309h-95z" />
<glyph unicode="&#x149;" horiz-adv-x="1306" d="M51 1266q98 66 99 172q0 80 -84 135l96 26q33 -18 59.5 -61t26.5 -96q0 -154 -158 -232zM186 1061h101l10 -211h4q51 102 160.5 169.5t249.5 67.5q37 0 80 -7t106.5 -36.5t110.5 -79t81.5 -143.5t34.5 -217v-604h-108v604q0 170 -82 280.5t-252 110.5 q-125 0 -224.5 -72.5t-135.5 -179.5q-18 -49 -19 -96v-647h-108v805q-1 141 -9 256z" />
<glyph unicode="&#x14a;" horiz-adv-x="1560" d="M195 0v1491h102l674 -918q233 -317 303 -436l4 4q-16 197 -16 580v770h104v-1407q0 -223 -100.5 -350t-315.5 -164l-16 92q162 27 241.5 110t92.5 228l-654 887q-244 332 -319 463l-8 -4q14 -203 14 -549v-797h-106z" />
<glyph unicode="&#x14b;" horiz-adv-x="1306" d="M186 1061h101l10 -211h4q51 102 160.5 169.5t249.5 67.5q37 0 80 -7t106.5 -36.5t110.5 -79t81.5 -143.5t34.5 -217v-448q0 -233 -121.5 -368.5t-316.5 -166.5l-20 94q350 70 350 441v448q0 170 -82 280.5t-252 110.5q-125 0 -224.5 -72.5t-135.5 -179.5q-18 -49 -19 -96 v-647h-108v805q-1 141 -9 256z" />
<glyph unicode="&#x14c;" horiz-adv-x="1665" d="M84 725q0 348 217 570.5t539 222.5q326 0 533.5 -214t207.5 -538q0 -369 -222 -581t-532 -212h-2q-319 0 -530 213t-211 539zM197 729q0 -274 174 -471t456 -197h2q289 0 464 196t175 499q0 266 -167.5 470t-464.5 204q-303 0 -471 -203t-168 -498zM573 1640v91h525v-91 h-525z" />
<glyph unicode="&#x14d;" horiz-adv-x="1306" d="M94 520q0 256 165 411.5t398 155.5q250 0 402.5 -155.5t152.5 -386.5q0 -145 -52 -258t-136 -178.5t-181.5 -100.5t-199.5 -35h-2q-236 0 -391.5 154.5t-155.5 392.5zM203 526q0 -213 131 -339t311 -126h2q186 0 321.5 129t135.5 347q0 176 -116 319t-331 143 t-334.5 -137t-119.5 -336zM416 1309v92h479v-92h-479z" />
<glyph unicode="&#x14e;" horiz-adv-x="1665" d="M84 725q0 348 217 570.5t539 222.5q326 0 533.5 -214t207.5 -538q0 -369 -222 -581t-532 -212h-2q-319 0 -530 213t-211 539zM197 729q0 -274 174 -471t456 -197h2q289 0 464 196t175 499q0 266 -167.5 470t-464.5 204q-303 0 -471 -203t-168 -498zM571 1835h80 q31 -117 185 -117q164 0 182 117h80q-4 -92 -68.5 -152.5t-200.5 -60.5q-131 0 -192.5 60.5t-65.5 152.5z" />
<glyph unicode="&#x14f;" horiz-adv-x="1306" d="M94 520q0 256 165 411.5t398 155.5q250 0 402.5 -155.5t152.5 -386.5q0 -145 -52 -258t-136 -178.5t-181.5 -100.5t-199.5 -35h-2q-236 0 -391.5 154.5t-155.5 392.5zM203 526q0 -213 131 -339t311 -126h2q186 0 321.5 129t135.5 347q0 176 -116 319t-331 143 t-334.5 -137t-119.5 -336zM387 1505h84q14 -72 63.5 -121t120.5 -49q84 0 129 52.5t54 117.5h84q-2 -117 -77 -187.5t-190 -70.5q-137 0 -201.5 79t-66.5 179z" />
<glyph unicode="&#x150;" horiz-adv-x="1665" d="M84 725q0 348 217 570.5t539 222.5q326 0 533.5 -214t207.5 -538q0 -369 -222 -581t-532 -212h-2q-319 0 -530 213t-211 539zM197 729q0 -274 174 -471t456 -197h2q289 0 464 196t175 499q0 266 -167.5 470t-464.5 204q-303 0 -471 -203t-168 -498zM651 1581l201 254h152 l-269 -254h-84zM938 1581l201 254h153l-270 -254h-84z" />
<glyph unicode="&#x151;" horiz-adv-x="1306" d="M94 520q0 256 165 411.5t398 155.5q250 0 402.5 -155.5t152.5 -386.5q0 -145 -52 -258t-136 -178.5t-181.5 -100.5t-199.5 -35h-2q-236 0 -391.5 154.5t-155.5 392.5zM203 526q0 -213 131 -339t311 -126h2q186 0 321.5 129t135.5 347q0 176 -116 319t-331 143 t-334.5 -137t-119.5 -336zM442 1247l201 281h154l-271 -281h-84zM729 1247l203 281h151l-270 -281h-84z" />
<glyph unicode="&#x152;" horiz-adv-x="2125" d="M84 737q0 350 217 565.5t576 215.5q98 0 227 -13.5t168 -13.5h727v-90h-701v-572h664v-90h-664v-649h740v-90h-776q-49 0 -179 -12q-133 -14 -221 -15q-344 0 -561 212t-217 552zM197 743q0 -291 183 -486.5t509 -195.5q188 0 301 39v1291q-150 39 -318 39 q-172 0 -305 -59.5t-212 -158t-118.5 -217.5t-39.5 -252z" />
<glyph unicode="&#x153;" horiz-adv-x="2111" d="M94 520q0 252 158 409.5t385 157.5q170 0 294 -82.5t177 -228.5h4q66 158 181.5 234.5t262.5 76.5q111 0 196 -37.5t133 -95t79 -128t40 -125t9 -99.5q0 -55 -4 -72h-844v-13q0 -198 118 -322q122 -129 319 -129q166 0 313 67l33 -86q-141 -74 -351 -74q-358 0 -491 306 h-4q-59 -150 -191.5 -228t-281.5 -78q-236 0 -385.5 154.5t-149.5 392.5zM203 526q0 -211 129 -338t299 -127q180 0 304 124t124 345q0 193 -111.5 331t-316.5 138h-2q-141 0 -241.5 -74.5t-142.5 -179t-42 -219.5zM1165 616h736q0 41 -7.5 84t-30 98.5t-59.5 98.5 t-102.5 72.5t-151.5 29.5q-121 0 -210 -65.5t-126 -145.5t-49 -172z" />
<glyph unicode="&#x154;" horiz-adv-x="1212" d="M195 0v1470q170 33 362 33q301 0 436 -131q106 -100 107 -262q0 -143 -83 -243.5t-224 -143.5v-4q178 -61 235 -303q80 -340 123 -416h-117q-31 53 -98 358q-39 164 -119 240t-231 86h-283v-684h-108zM303 772h287q184 0 292.5 87t108.5 235q0 168 -120.5 244.5 t-315.5 76.5q-160 0 -252 -24v-619zM514 1581l211 254h168l-291 -254h-88z" />
<glyph unicode="&#x155;" horiz-adv-x="706" d="M186 1061h99l4 -230h8q41 115 126 185.5t198 70.5q31 0 51 -6v-98q-18 4 -62 4q-111 0 -190.5 -84t-106.5 -223q-10 -51 -10 -105v-575h-108v719q-1 190 -9 342zM309 1221l201 309h164l-281 -309h-84z" />
<glyph unicode="&#x156;" horiz-adv-x="1212" d="M195 0v1470q170 33 362 33q301 0 436 -131q106 -100 107 -262q0 -143 -83 -243.5t-224 -143.5v-4q178 -61 235 -303q80 -340 123 -416h-117q-31 53 -98 358q-39 164 -119 240t-231 86h-283v-684h-108zM303 772h287q184 0 292.5 87t108.5 235q0 168 -120.5 244.5 t-315.5 76.5q-160 0 -252 -24v-619zM461 -383q186 20 186 152q0 78 -84 133l90 26q37 -20 64.5 -62t27.5 -93q0 -104 -80.5 -157.5t-175.5 -57.5z" />
<glyph unicode="&#x157;" horiz-adv-x="706" d="M104 -406q188 20 189 152q0 80 -84 135l88 27q37 -23 64.5 -65t27.5 -93q0 -104 -81 -157.5t-175 -57.5zM186 1061h99l4 -230h8q41 115 126 185.5t198 70.5q31 0 51 -6v-98q-18 4 -62 4q-111 0 -190.5 -84t-106.5 -223q-10 -51 -10 -105v-575h-108v719q-1 190 -9 342z " />
<glyph unicode="&#x158;" horiz-adv-x="1212" d="M195 0v1470q170 33 362 33q301 0 436 -131q106 -100 107 -262q0 -143 -83 -243.5t-224 -143.5v-4q178 -61 235 -303q80 -340 123 -416h-117q-31 53 -98 358q-39 164 -119 240t-231 86h-283v-684h-108zM303 772h287q184 0 292.5 87t108.5 235q0 168 -120.5 244.5 t-315.5 76.5q-160 0 -252 -24v-619zM313 1835h121l170 -172h4l166 172h111l-242 -254h-80z" />
<glyph unicode="&#x159;" horiz-adv-x="706" d="M145 1530h113l154 -227h4l153 227h103l-211 -309h-94zM186 1061h99l4 -230h8q41 115 126 185.5t198 70.5q31 0 51 -6v-98q-18 4 -62 4q-111 0 -190.5 -84t-106.5 -223q-10 -51 -10 -105v-575h-108v719q-1 190 -9 342z" />
<glyph unicode="&#x15a;" horiz-adv-x="1116" d="M102 84l41 90q162 -111 371 -111q178 0 282.5 87.5t104.5 226.5q0 127 -75.5 207t-262.5 139q-223 72 -320.5 169t-97.5 243q0 166 130 274.5t333 108.5q217 0 332 -76l-43 -90q-113 78 -294 78t-266 -87.5t-85 -191.5q0 -121 78 -195.5t258 -132.5q217 -72 317.5 -168 t100.5 -268q0 -170 -128 -292t-378 -122q-109 0 -220.5 31t-177.5 80zM508 1581l213 254h168l-291 -254h-90z" />
<glyph unicode="&#x15b;" horiz-adv-x="901" d="M111 51l39 92q129 -80 266 -80q133 0 200.5 59.5t67.5 147.5t-60.5 141.5t-189.5 94.5q-289 94 -289 289q0 121 93.5 206.5t257.5 85.5q152 0 256 -69l-41 -88q-100 68 -236 67q-104 0 -163.5 -55t-59.5 -135q0 -84 58.5 -129t189.5 -90q152 -51 221.5 -122t69.5 -187 q0 -133 -103.5 -219.5t-279.5 -86.5q-164 0 -297 78zM381 1221l201 309h163l-280 -309h-84z" />
<glyph unicode="&#x15c;" horiz-adv-x="1116" d="M102 84l41 90q162 -111 371 -111q178 0 282.5 87.5t104.5 226.5q0 127 -75.5 207t-262.5 139q-223 72 -320.5 169t-97.5 243q0 166 130 274.5t333 108.5q217 0 332 -76l-43 -90q-113 78 -294 78t-266 -87.5t-85 -191.5q0 -121 78 -195.5t258 -132.5q217 -72 317.5 -168 t100.5 -268q0 -170 -128 -292t-378 -122q-109 0 -220.5 31t-177.5 80zM274 1583l242 254h80l250 -254h-121l-168 176h-4l-168 -176h-111z" />
<glyph unicode="&#x15d;" horiz-adv-x="901" d="M111 51l39 92q129 -80 266 -80q133 0 200.5 59.5t67.5 147.5t-60.5 141.5t-189.5 94.5q-289 94 -289 289q0 121 93.5 206.5t257.5 85.5q152 0 256 -69l-41 -88q-100 68 -236 67q-104 0 -163.5 -55t-59.5 -135q0 -84 58.5 -129t189.5 -90q152 -51 221.5 -122t69.5 -187 q0 -133 -103.5 -219.5t-279.5 -86.5q-164 0 -297 78zM197 1221l213 309h84l221 -309h-113l-149 225h-4l-148 -225h-104z" />
<glyph unicode="&#x15e;" horiz-adv-x="1116" d="M102 84l41 90q162 -111 371 -111q178 0 282.5 87.5t104.5 226.5q0 127 -75.5 207t-262.5 139q-223 72 -320.5 169t-97.5 243q0 166 130 274.5t333 108.5q217 0 332 -76l-43 -90q-113 78 -294 78t-266 -87.5t-85 -191.5q0 -121 78 -195.5t258 -132.5q217 -72 317.5 -168 t100.5 -268q0 -147 -99.5 -263t-294.5 -144l-69 -99q66 -12 109.5 -54t43.5 -101q0 -80 -60.5 -122t-154.5 -42q-82 0 -139 32l25 78q63 -29 127 -28q47 0 76.5 20.5t29.5 56.5q0 80 -178 101l100 151h-22q-109 0 -220.5 31t-177.5 80z" />
<glyph unicode="&#xf6c1;" horiz-adv-x="1116" d="M102 84l41 90q162 -111 371 -111q178 0 282.5 87.5t104.5 226.5q0 127 -75.5 207t-262.5 139q-223 72 -320.5 169t-97.5 243q0 166 130 274.5t333 108.5q217 0 332 -76l-43 -90q-113 78 -294 78t-266 -87.5t-85 -191.5q0 -121 78 -195.5t258 -132.5q217 -72 317.5 -168 t100.5 -268q0 -147 -99.5 -263t-294.5 -144l-69 -99q66 -12 109.5 -54t43.5 -101q0 -80 -60.5 -122t-154.5 -42q-82 0 -139 32l25 78q63 -29 127 -28q47 0 76.5 20.5t29.5 56.5q0 80 -178 101l100 151h-22q-109 0 -220.5 31t-177.5 80z" />
<glyph unicode="&#x15f;" horiz-adv-x="901" d="M111 51l39 92q129 -80 266 -80q133 0 200.5 59.5t67.5 147.5t-60.5 141.5t-189.5 94.5q-289 94 -289 289q0 121 93.5 206.5t257.5 85.5q152 0 256 -69l-41 -88q-100 68 -236 67q-104 0 -163.5 -55t-59.5 -135q0 -84 58.5 -129t189.5 -90q152 -51 221.5 -122t69.5 -187 q0 -111 -76 -193t-209 -104l-70 -101q63 -10 108.5 -48t45.5 -99q0 -172 -219 -172q-76 0 -131 32l24 78q49 -29 123 -28q49 0 81 18.5t30 61.5q-2 82 -179 98l99 151h-10q-164 0 -297 78z" />
<glyph unicode="&#xf6c2;" horiz-adv-x="901" d="M111 51l39 92q129 -80 266 -80q133 0 200.5 59.5t67.5 147.5t-60.5 141.5t-189.5 94.5q-289 94 -289 289q0 121 93.5 206.5t257.5 85.5q152 0 256 -69l-41 -88q-100 68 -236 67q-104 0 -163.5 -55t-59.5 -135q0 -84 58.5 -129t189.5 -90q152 -51 221.5 -122t69.5 -187 q0 -111 -76 -193t-209 -104l-70 -101q63 -10 108.5 -48t45.5 -99q0 -172 -219 -172q-76 0 -131 32l24 78q49 -29 123 -28q49 0 81 18.5t30 61.5q-2 82 -179 98l99 151h-10q-164 0 -297 78z" />
<glyph unicode="&#x160;" horiz-adv-x="1116" d="M102 84l41 90q162 -111 371 -111q178 0 282.5 87.5t104.5 226.5q0 127 -75.5 207t-262.5 139q-223 72 -320.5 169t-97.5 243q0 166 130 274.5t333 108.5q217 0 332 -76l-43 -90q-113 78 -294 78t-266 -87.5t-85 -191.5q0 -121 78 -195.5t258 -132.5q217 -72 317.5 -168 t100.5 -268q0 -170 -128 -292t-378 -122q-109 0 -220.5 31t-177.5 80zM297 1835h119l170 -172h4l166 172h110l-239 -254h-80z" />
<glyph unicode="&#x161;" horiz-adv-x="901" d="M111 51l39 92q129 -80 266 -80q133 0 200.5 59.5t67.5 147.5t-60.5 141.5t-189.5 94.5q-289 94 -289 289q0 121 93.5 206.5t257.5 85.5q152 0 256 -69l-41 -88q-100 68 -236 67q-104 0 -163.5 -55t-59.5 -135q0 -84 58.5 -129t189.5 -90q152 -51 221.5 -122t69.5 -187 q0 -133 -103.5 -219.5t-279.5 -86.5q-164 0 -297 78zM199 1530h112l154 -227h4l152 227h104l-211 -309h-94z" />
<glyph unicode="&#x162;" horiz-adv-x="1126" d="M-45 1401v90h1219v-90h-556v-1401h-108v1401h-555zM393 -406q188 20 189 152q0 80 -84 135l88 27q39 -23 66.5 -65t27.5 -93q0 -104 -81 -157.5t-177 -57.5z" />
<glyph unicode="&#x21a;" horiz-adv-x="1126" d="M-45 1401v90h1219v-90h-556v-1401h-108v1401h-555zM393 -406q188 20 189 152q0 80 -84 135l88 27q39 -23 66.5 -65t27.5 -93q0 -104 -81 -157.5t-177 -57.5z" />
<glyph unicode="&#x163;" horiz-adv-x="749" d="M45 975v86h195v203l108 32v-235h336v-86h-336v-678q0 -231 170 -231q84 0 139 20l13 -84q-70 -29 -164 -29q-129 0 -197 80q-70 80 -69 256v666h-195zM268 -426q186 18 187 150q0 80 -84 135l90 26q37 -23 64.5 -64.5t27.5 -92.5q0 -104 -81 -156.5t-175 -58.5z" />
<glyph unicode="&#x21b;" horiz-adv-x="749" d="M45 975v86h195v203l108 32v-235h336v-86h-336v-678q0 -231 170 -231q84 0 139 20l13 -84q-70 -29 -164 -29q-129 0 -197 80q-70 80 -69 256v666h-195zM268 -426q186 18 187 150q0 80 -84 135l90 26q37 -23 64.5 -64.5t27.5 -92.5q0 -104 -81 -156.5t-175 -58.5z" />
<glyph unicode="&#x164;" horiz-adv-x="1126" d="M-45 1401v90h1219v-90h-556v-1401h-108v1401h-555zM279 1825h118l172 -172h4l166 172h111l-242 -254h-80z" />
<glyph unicode="&#x165;" horiz-adv-x="770" d="M45 975v86h195v203l108 32v-235h336v-86h-336v-678q0 -231 170 -231q84 0 139 20l13 -84q-70 -29 -164 -29q-129 0 -197 80q-70 80 -69 256v666h-195zM516 1266q98 66 98 172q0 80 -84 135l97 26q33 -18 59.5 -61t26.5 -96q0 -154 -158 -232z" />
<glyph unicode="&#x166;" horiz-adv-x="1126" d="M-45 1401v90h1219v-90h-556v-565h322v-86h-322v-750h-108v750h-320v86h320v565h-555z" />
<glyph unicode="&#x167;" horiz-adv-x="749" d="M45 975v86h195v203l108 32v-235h336v-86h-336v-313h264v-87h-264v-278q0 -231 170 -231q84 0 139 20l13 -84q-70 -29 -164 -29q-129 0 -197 80q-70 80 -69 256v266h-164v87h164v313h-195z" />
<glyph unicode="&#x168;" horiz-adv-x="1527" d="M195 629v862h108v-860q0 -289 125 -428.5t324 -139.5q217 0 345 142.5t128 425.5v860h108v-852q0 -338 -164.5 -502t-423.5 -164q-242 0 -396 157t-154 499zM500 1581q-2 82 38 138.5t105 56.5q45 0 135 -50q76 -37 117 -36q55 0 61 84h74q0 -180 -135 -181 q-49 0 -138 44t-120 44q-51 0 -62 -100h-75z" />
<glyph unicode="&#x169;" horiz-adv-x="1294" d="M184 467v594h109v-572q0 -422 319 -421q117 0 213.5 64.5t141.5 162.5q27 66 26 123v643h109v-805q0 -141 8 -256h-102l-7 215h-4q-55 -102 -160.5 -172t-252.5 -70q-47 0 -90 8.5t-102.5 38t-102.5 78.5t-74 144.5t-31 224.5zM393 1274q-2 92 35 145.5t100 53.5 q35 0 146 -56q68 -33 94 -33q57 0 63 97h74q0 -193 -133 -193q-45 0 -133 45q-78 43 -109 43q-53 0 -61 -102h-76z" />
<glyph unicode="&#x16a;" horiz-adv-x="1527" d="M195 629v862h108v-860q0 -289 125 -428.5t324 -139.5q217 0 345 142.5t128 425.5v860h108v-852q0 -338 -164.5 -502t-423.5 -164q-242 0 -396 157t-154 499zM504 1620v88h524v-88h-524z" />
<glyph unicode="&#x16b;" horiz-adv-x="1294" d="M184 467v594h109v-572q0 -422 319 -421q117 0 213.5 64.5t141.5 162.5q27 66 26 123v643h109v-805q0 -141 8 -256h-102l-7 215h-4q-55 -102 -160.5 -172t-252.5 -70q-47 0 -90 8.5t-102.5 38t-102.5 78.5t-74 144.5t-31 224.5zM410 1309v92h479v-92h-479z" />
<glyph unicode="&#x16c;" horiz-adv-x="1527" d="M195 629v862h108v-860q0 -289 125 -428.5t324 -139.5q217 0 345 142.5t128 425.5v860h108v-852q0 -338 -164.5 -502t-423.5 -164q-242 0 -396 157t-154 499zM502 1835h80q31 -117 186 -117q164 0 180 117h80q-4 -92 -68.5 -152.5t-197.5 -60.5q-131 0 -193.5 60.5 t-66.5 152.5z" />
<glyph unicode="&#x16d;" horiz-adv-x="1294" d="M184 467v594h109v-572q0 -422 319 -421q117 0 213.5 64.5t141.5 162.5q27 66 26 123v643h109v-805q0 -141 8 -256h-102l-7 215h-4q-55 -102 -160.5 -172t-252.5 -70q-47 0 -90 8.5t-102.5 38t-102.5 78.5t-74 144.5t-31 224.5zM381 1505h84q12 -72 62.5 -121t119.5 -49 q84 0 130 52.5t54 117.5h84q-2 -117 -76.5 -187.5t-191.5 -70.5q-137 0 -200.5 79t-65.5 179z" />
<glyph unicode="&#x16e;" horiz-adv-x="1527" d="M195 629v862h108v-860q0 -289 125 -428.5t324 -139.5q217 0 345 142.5t128 425.5v860h108v-852q0 -338 -164.5 -502t-423.5 -164q-242 0 -396 157t-154 499zM563 1730.5q0 77.5 58.5 133t146.5 55.5h2q86 0 142.5 -55.5t56.5 -133t-58.5 -131t-142.5 -53.5 q-88 0 -146.5 53.5t-58.5 131zM655 1731q0 -49 32 -86t79 -37t80 36.5t33 90t-33 89.5t-80 36h-2q-49 0 -79 -37t-30 -92z" />
<glyph unicode="&#x16f;" horiz-adv-x="1294" d="M184 467v594h109v-572q0 -422 319 -421q117 0 213.5 64.5t141.5 162.5q27 66 26 123v643h109v-805q0 -141 8 -256h-102l-7 215h-4q-55 -102 -160.5 -172t-252.5 -70q-47 0 -90 8.5t-102.5 38t-102.5 78.5t-74 144.5t-31 224.5zM440 1389q0 86 59.5 145t151.5 59h2 q86 0 144.5 -59t58.5 -145q0 -84 -62.5 -141.5t-142.5 -57.5q-90 0 -150.5 57.5t-60.5 141.5zM528 1389q0 -51 35 -92.5t84 -41.5q53 0 89 40t36 96q0 57 -35 96t-90 39h-2q-49 0 -83 -40t-34 -97z" />
<glyph unicode="&#x170;" horiz-adv-x="1527" d="M195 629v862h108v-860q0 -289 125 -428.5t324 -139.5q217 0 345 142.5t128 425.5v860h108v-852q0 -338 -164.5 -502t-423.5 -164q-242 0 -396 157t-154 499zM528 1571l201 254h154l-271 -254h-84zM817 1571l201 254h151l-268 -254h-84z" />
<glyph unicode="&#x171;" horiz-adv-x="1294" d="M184 467v594h109v-572q0 -422 319 -421q117 0 213.5 64.5t141.5 162.5q27 66 26 123v643h109v-805q0 -141 8 -256h-102l-7 215h-4q-55 -102 -160.5 -172t-252.5 -70q-47 0 -90 8.5t-102.5 38t-102.5 78.5t-74 144.5t-31 224.5zM436 1247l201 281h154l-271 -281h-84z M723 1247l201 281h153l-270 -281h-84z" />
<glyph unicode="&#x172;" horiz-adv-x="1527" d="M195 629v862h108v-860q0 -289 125 -428.5t324 -139.5q217 0 345 142.5t128 425.5v860h108v-852q0 -303 -132 -466t-347 -191q-137 -137 -137 -232q0 -51 29.5 -78.5t82.5 -27.5q55 0 105 22l18 -63q-51 -41 -149 -41q-84 0 -135.5 44t-51.5 122q0 109 134 245h-9 q-244 6 -395 163t-151 493z" />
<glyph unicode="&#x173;" horiz-adv-x="1294" d="M184 467v594h109v-572q0 -422 319 -421q117 0 214.5 64.5t140.5 162.5q27 57 26 123v643h109v-805q0 -141 8 -256l-6 12q-121 -152 -121 -256q0 -109 113 -108q55 0 102 22l21 -65q-53 -41 -156 -41q-80 0 -130 44t-50 122q0 51 24.5 109.5t42 86t58.5 86.5l-7 203h-4 q-55 -102 -160.5 -172t-252.5 -70q-47 0 -90 8.5t-102.5 38t-102.5 78.5t-74 144.5t-31 224.5z" />
<glyph unicode="&#x174;" horiz-adv-x="1947" d="M25 1491h110l236 -856q102 -362 135 -500h4q31 129 152 500l274 856h106l240 -854q104 -369 129 -502h4q27 102 152 498l274 858h113l-494 -1491h-106l-242 854q-98 356 -125 510h-4q-31 -141 -152 -506l-278 -858h-107zM690 1571l242 254h80l250 -254h-121l-168 174h-4 l-168 -174h-111z" />
<glyph unicode="&#x175;" horiz-adv-x="1732" d="M53 1061h113l194 -619l99 -327h4q31 100 117 327l237 619h107l227 -617q61 -168 113 -329h4q29 109 104 327l211 619h111l-385 -1061h-97l-217 586q-90 240 -127 379h-4q-41 -152 -133 -381l-231 -584h-97zM608 1221l213 309h84l221 -309h-112l-150 225h-4l-147 -225 h-105z" />
<glyph unicode="&#x176;" horiz-adv-x="1196" d="M27 1491h123l276 -465q152 -254 182 -311h4q39 76 187 311l288 465h125l-555 -858v-633h-108v637zM313 1571l242 254h80l250 -254h-119l-168 174h-6l-168 -174h-111z" />
<glyph unicode="&#x177;" horiz-adv-x="1060" d="M20 1061h117l316 -709q57 -127 88 -223h4q57 156 88 231l297 701h117l-377 -858q-115 -262 -198 -396.5t-185 -205.5q-104 -78 -195 -97l-29 90q113 35 195 105q125 104 205 285q12 29 12 43q0 16 -14 49zM272 1221l213 309h84l222 -309h-115l-148 225h-4l-147 -225h-105 z" />
<glyph unicode="&#x178;" horiz-adv-x="1196" d="M27 1491h123l276 -465q152 -254 182 -311h4q39 76 187 311l288 465h125l-555 -858v-633h-108v637zM338 1669q0 37 25.5 64.5t61.5 27.5t59.5 -26.5t23.5 -64.5t-22.5 -64.5t-63.5 -26.5h-2q-37 0 -59.5 26.5t-22.5 63.5zM737 1669q0 37 24.5 64.5t60.5 27.5t60.5 -26.5 t24.5 -64.5t-23.5 -64.5t-62.5 -26.5h-2q-39 0 -60.5 26.5t-21.5 63.5z" />
<glyph unicode="&#x179;" horiz-adv-x="1337" d="M82 0v74l1020 1319v8h-936v90h1079v-76l-1022 -1317v-8h1039v-90h-1180zM618 1571l213 254h168l-290 -254h-91z" />
<glyph unicode="&#x17a;" horiz-adv-x="972" d="M35 0v66l635 747q49 59 137 156v4h-725v88h858l-2 -74l-635 -747l-127 -148v-4h770v-88h-911zM416 1221l200 309h164l-280 -309h-84z" />
<glyph unicode="&#x17b;" horiz-adv-x="1337" d="M82 0v74l1020 1319v8h-936v90h1079v-76l-1022 -1317v-8h1039v-90h-1180zM586 1692q0 33 25.5 61.5t61.5 28.5t59.5 -29t23.5 -61q0 -35 -23.5 -62.5t-62.5 -27.5h-2q-33 0 -57.5 27.5t-24.5 62.5z" />
<glyph unicode="&#x17c;" horiz-adv-x="972" d="M35 0v66l635 747q49 59 137 156v4h-725v88h858l-2 -74l-635 -747l-127 -148v-4h770v-88h-911zM399 1378q0 35 27 63.5t62.5 28.5t61 -27.5t25.5 -65.5t-24.5 -65.5t-63.5 -27.5h-2q-37 0 -61.5 27.5t-24.5 66.5z" />
<glyph unicode="&#x17d;" horiz-adv-x="1337" d="M82 0v74l1020 1319v8h-936v90h1079v-76l-1022 -1317v-8h1039v-90h-1180zM412 1825h118l170 -172h7l165 172h111l-242 -254h-79z" />
<glyph unicode="&#x17e;" horiz-adv-x="972" d="M35 0v66l635 747q49 59 137 156v4h-725v88h858l-2 -74l-635 -747l-127 -148v-4h770v-88h-911zM268 1530h113l151 -227h5l153 227h105l-213 -309h-93z" />
<glyph unicode="&#x192;" horiz-adv-x="1171" d="M23 -141l26 82q59 -29 144 -29q213 0 249 356l56 510h-232v86h242l14 115q27 225 130.5 355t285.5 130q88 -6 139 -32l-26 -84q-80 27 -131 26q-133 0 -205 -112.5t-88 -284.5l-13 -113h322v-86h-332l-51 -459q-27 -242 -114 -368.5t-257 -126.5q-96 0 -159 35z" />
<glyph unicode="&#x1fc;" horiz-adv-x="1783" d="M-23 0l797 1491h883v-90h-721l80 -572h604v-90h-592l94 -649h572v-90h-664l-88 616h-524l-328 -616h-113zM465 707h467l-66 456q-29 195 -30 246h-9q-35 -80 -112 -225zM952 1571l213 254h168l-291 -254h-90z" />
<glyph unicode="&#x1fd;" horiz-adv-x="1845" d="M94 254q0 184 180 288q167 96 487 96q25 0 52 -1v45q0 18 -4 47t-21.5 79t-47 90t-91 69.5t-141.5 29.5q-82 0 -167 -24.5t-136 -63.5l-35 78q156 100 338 100q313 0 377 -274h4q55 129 164.5 201.5t255.5 72.5q106 0 188 -39.5t127 -95t76 -125t39 -121t8 -90.5 q0 -51 -6 -65h-823l-2 -41q0 -191 107 -311q118 -133 306 -133q195 0 322 67l30 -86q-158 -74 -356 -74q-160 0 -281.5 74t-166.5 207h-5q-49 -135 -169.5 -208t-272.5 -73q-166 0 -251 86t-85 195zM205 266q0 -92 67.5 -148.5t167.5 -56.5h9q138 0 227 67q92 69 125 169 q12 43 12 88v166q-38 1 -74 1q-534 0 -534 -286zM854 1221l201 309h164l-281 -309h-84zM918 637h716q0 7 1 14q0 26 -6 59q-7 42 -30.5 94t-60.5 95t-98.5 71.5t-139.5 28.5q-174 0 -273 -116.5t-109 -245.5z" />
<glyph unicode="&#x1fe;" horiz-adv-x="1665" d="M84 729q0 348 220 568.5t542 220.5q256 0 452 -154l160 188l70 -55l-164 -192q217 -209 217 -539q0 -193 -63.5 -349.5t-171 -249.5t-238.5 -143.5t-270 -50.5q-268 0 -473 158l-164 -192l-64 57l164 192q-217 217 -217 541zM197 748q0 -158 43 -268.5t125 -215.5l4 4 l868 1022q-174 140 -399 140q-301 0 -471 -204t-170 -478zM430 203q170 -141 401 -142q291 0 464 201t173 494q0 270 -165 471h-7zM782 1599l213 254h168l-291 -254h-90z" />
<glyph unicode="&#x1ff;" horiz-adv-x="1306" d="M94 520q0 256 165 411.5t400 155.5h3q174 0 311 -90l100 125l68 -51l-99 -127q170 -164 170 -397q0 -143 -51 -257t-133 -180.5t-178 -101.5t-197 -35q-188 0 -321 93l-105 -125l-61 59l100 121q-172 159 -172 399zM203 526q0 -201 123 -331h4l585 725q-106 80 -262 79 q-217 0 -333.5 -139t-116.5 -334zM391 139q104 -78 250 -78q197 0 330 130.5t133 349.5q0 188 -125 323h-4zM584 1221l200 309h164l-280 -309h-84z" />
<glyph unicode="&#x218;" horiz-adv-x="1116" d="M102 84l41 90q162 -111 371 -111q178 0 282.5 87.5t104.5 226.5q0 127 -75.5 207t-262.5 139q-223 72 -320.5 169t-97.5 243q0 166 130 274.5t333 108.5q217 0 332 -76l-43 -90q-113 78 -294 78t-266 -87.5t-85 -191.5q0 -121 78 -195.5t258 -132.5q217 -72 317.5 -168 t100.5 -268q0 -170 -128 -292t-378 -122q-109 0 -220.5 31t-177.5 80zM412 -406q188 20 188 152q0 80 -84 135l88 27q37 -23 64.5 -65t27.5 -93q0 -104 -80.5 -157.5t-175.5 -57.5z" />
<glyph unicode="&#x219;" horiz-adv-x="901" d="M111 51l39 92q129 -80 266 -80q133 0 200.5 59.5t67.5 147.5t-60.5 141.5t-189.5 94.5q-289 94 -289 289q0 121 93.5 206.5t257.5 85.5q152 0 256 -69l-41 -88q-100 68 -236 67q-104 0 -163.5 -55t-59.5 -135q0 -84 58.5 -129t189.5 -90q152 -51 221.5 -122t69.5 -187 q0 -133 -103.5 -219.5t-279.5 -86.5q-164 0 -297 78zM289 -406q188 20 188 152q0 80 -84 135l88 27q39 -23 66.5 -65t27.5 -93q0 -104 -80.5 -157.5t-175.5 -57.5z" />
<glyph unicode="&#x2c6;" d="M74 1221l211 309h84l221 -309h-113l-147 225h-4l-150 -225h-102z" />
<glyph unicode="&#x2c7;" d="M68 1530h114l152 -227h4l154 227h104l-213 -309h-94z" />
<glyph unicode="&#x2d8;" d="M63 1505h84q14 -72 63.5 -121t121.5 -49q84 0 129 52.5t55 117.5h84q-2 -117 -78 -187.5t-190 -70.5q-137 0 -202 79t-67 179z" />
<glyph unicode="&#x2d9;" d="M246 1378q0 35 26.5 63.5t61.5 28.5t60.5 -27.5t25.5 -65.5t-24.5 -65.5t-63.5 -27.5h-2q-35 0 -59.5 27.5t-24.5 66.5z" />
<glyph unicode="&#x2da;" horiz-adv-x="884" d="M233 1389q0 86 60.5 145t150.5 59h2q86 0 145.5 -59t59.5 -145q0 -84 -62.5 -141.5t-144.5 -57.5q-88 0 -149.5 57.5t-61.5 141.5zM324 1389q0 -51 33.5 -92.5t84.5 -41.5q53 0 88 40t35 96q0 57 -33.5 96t-89.5 39h-2q-51 0 -83.5 -40t-32.5 -97z" />
<glyph unicode="&#x2db;" d="M164 -272q0 117 170 282h96q-166 -166 -166 -260q0 -51 30 -78.5t83 -27.5q55 0 102 22l21 -63q-53 -41 -150 -41q-84 0 -135 44t-51 122z" />
<glyph unicode="&#x2dc;" d="M78 1274q-2 92 33.5 145.5t101.5 53.5q35 0 145 -56q66 -33 93 -33q57 0 65 97h72q0 -193 -133 -193q-43 0 -131 45q-78 43 -109 43q-53 0 -61 -102h-76z" />
<glyph unicode="&#x2dd;" d="M195 1247l200 281h154l-270 -281h-84zM481 1247l203 281h152l-271 -281h-84z" />
<glyph unicode="&#x37e;" horiz-adv-x="403" d="M76 -279q25 70 54.5 218.5t37.5 250.5l141 11q-20 -106 -70.5 -260t-76.5 -209zM131 864q0 49 27.5 80t70.5 31t71 -31t28 -80q0 -41 -28 -73.5t-73 -32.5h-2q-39 0 -66.5 32.5t-27.5 73.5z" />
<glyph unicode="&#x384;" d="M197 1221l145 309h147l-213 -309h-79z" />
<glyph unicode="&#x385;" horiz-adv-x="632" d="M-16 1378q0 35 25.5 62.5t61 27.5t60.5 -26.5t25 -64.5t-23.5 -63.5t-64.5 -25.5h-2q-37 0 -59.5 25.5t-22.5 64.5zM244 1229l53 327h123l-111 -327h-65zM475 1378q0 35 25.5 62.5t61.5 27.5t59.5 -26.5t23.5 -64.5t-22.5 -63.5t-63.5 -25.5h-2q-37 0 -59.5 25.5 t-22.5 64.5z" />
<glyph unicode="&#x386;" horiz-adv-x="1415" d="M66 0l602 1491h106l598 -1491h-112l-211 524h-664l-207 -524h-112zM221 1169l27 322h123l-78 -322h-72zM422 614h592l-211 525q-41 104 -82 237h-4q-29 -96 -82 -231z" />
<glyph unicode="&#x387;" horiz-adv-x="403" d="M132 789.5q28 31.5 71 31.5t70.5 -31.5t27.5 -78.5q0 -43 -27.5 -75t-72.5 -32h-2q-39 0 -68 32q-27 30 -27 69q0 53 28 84.5z" />
<glyph unicode="&#x388;" horiz-adv-x="1239" d="M0 1169l27 322h123l-78 -322h-72zM305 0v1491h809v-90h-700v-570h663v-90h-663v-651h739v-90h-848z" />
<glyph unicode="&#x389;" horiz-adv-x="1648" d="M0 1169l27 322h123l-78 -322h-72zM305 0v1491h109v-653h934v653h108v-1491h-108v748h-934v-748h-109z" />
<glyph unicode="&#x38a;" horiz-adv-x="608" d="M0 1169l27 322h123l-78 -322h-72zM305 0v1491h109v-1491h-109z" />
<glyph unicode="&#x38c;" horiz-adv-x="1703" d="M0 1169l27 322h123l-78 -322h-72zM123 725q0 348 217 570.5t541 222.5q326 0 533.5 -214t207.5 -538q0 -369 -222 -581t-534 -212h-2q-317 0 -529 213t-212 539zM238 729q0 -274 173 -471t455 -197h2q291 0 466 196t175 499q0 266 -169 470t-463 204q-303 0 -471 -203 t-168 -498z" />
<glyph unicode="&#x38e;" horiz-adv-x="1607" d="M0 1169l27 322h123l-78 -322h-72zM264 1419l23 84q88 -10 198.5 -78.5t184.5 -160.5q203 -246 250 -564h4q61 317 299 576q180 186 356 227l23 -78q-61 -25 -132 -71.5t-159 -125.5t-166 -209t-127 -288t-49 -319v-412h-109v416q0 168 -41 321q-45 158 -115.5 289 t-150.5 210t-153 125t-136 58z" />
<glyph unicode="&#x38f;" horiz-adv-x="1720" d="M0 1169l27 322h123l-78 -322h-72zM90 0v90h379v8q-150 102 -245 274.5t-95 385.5q0 328 217 544t539 216q328 0 534.5 -214t206.5 -526q0 -229 -94 -403t-248 -277v-8h379v-90h-553v76q168 88 285.5 271t117.5 425q0 156 -67.5 301.5t-216 251t-344.5 105.5 q-295 0 -469 -200t-174 -466q0 -233 117.5 -417.5t283.5 -270.5v-76h-553z" />
<glyph unicode="&#x390;" horiz-adv-x="497" d="M-61 1337.5q0 34.5 24.5 61t57 26.5t56 -25.5t23.5 -61t-22.5 -61.5t-59.5 -26h-2q-37 0 -57 26t-20 60.5zM195 211v850h108v-836q0 -92 23 -128q21 -34 86 -34h8l-8 -83q-23 -6 -58 -7q-159 0 -159 238zM195 1190l53 328h123l-111 -328h-65zM434 1337.5q0 34.5 23.5 61 t57.5 26.5t57.5 -25.5t23.5 -61t-22.5 -61.5t-59.5 -26h-4q-35 0 -55.5 26t-20.5 60.5z" />
<glyph unicode="&#x391;" horiz-adv-x="1415" d="M66 0l602 1491h106l598 -1491h-112l-211 524h-664l-207 -524h-112zM422 614h592l-211 525q-41 104 -82 237h-4q-29 -96 -82 -231z" />
<glyph unicode="&#x392;" horiz-adv-x="1210" d="M195 0v1470q150 33 333 33q291 0 420 -129q94 -94 94 -246q0 -111 -74.5 -201.5t-189.5 -129.5v-6q47 -10 98.5 -35t104.5 -67t88 -113.5t35 -159.5q0 -168 -113 -281q-150 -147 -516 -147q-81 0 -280 12zM303 1395v-564h260q172 0 270.5 83t98.5 210q0 289 -410 289 q-143 0 -219 -18zM303 90q61 -12 211 -12q205 0 341 75.5t136 258.5q0 166 -131 248.5t-334 82.5h-223v-653z" />
<glyph unicode="&#x393;" horiz-adv-x="1044" d="M195 0v1491h809v-90h-701v-1401h-108z" />
<glyph unicode="&#x394;" horiz-adv-x="1060" d="M0 1060h1060v-1060h-1060v1060z" />
<glyph unicode="&#xe000;" horiz-adv-x="1060" d="M0 1060h1060v-1060h-1060v1060z" />
<glyph unicode="&#x395;" horiz-adv-x="1128" d="M195 0v1491h809v-90h-701v-570h664v-90h-664v-651h739v-90h-847z" />
<glyph unicode="&#x396;" horiz-adv-x="1337" d="M82 0v74l1020 1319v8h-936v90h1079v-76l-1022 -1317v-8h1039v-90h-1180z" />
<glyph unicode="&#x397;" horiz-adv-x="1538" d="M195 0v1491h108v-653h934v653h109v-1491h-109v748h-934v-748h-108z" />
<glyph unicode="&#x398;" horiz-adv-x="1665" d="M84 725q0 348 217 570.5t539 222.5q326 0 533.5 -214t207.5 -538q0 -369 -222 -581t-532 -212h-2q-319 0 -530 213t-211 539zM197 729q0 -274 174 -471t456 -197h2q289 0 464 196t175 499q0 266 -167.5 470t-464.5 204q-303 0 -471 -203t-168 -498zM440 727v92h785v-92 h-785z" />
<glyph unicode="&#x399;" horiz-adv-x="497" d="M195 0v1491h108v-1491h-108z" />
<glyph unicode="&#x39a;" horiz-adv-x="1193" d="M195 0v1491h108v-764h8q33 45 135 152l596 612h138l-629 -635l694 -856h-135l-635 786l-172 -172v-614h-108z" />
<glyph unicode="&#x39b;" horiz-adv-x="1415" d="M66 0l602 1491h106l598 -1491h-112l-457 1139q-41 104 -82 237h-4q-29 -96 -82 -231l-457 -1145h-112z" />
<glyph unicode="&#x39c;" horiz-adv-x="1867" d="M147 0l121 1491h123l359 -889q111 -274 178 -475h4q53 166 182 473l377 891h129l104 -1491h-104l-47 702q-35 508 -35 670h-6q-92 -248 -223 -559l-344 -813h-82l-324 803q-154 385 -209 569h-6q-14 -432 -37 -690l-53 -682h-107z" />
<glyph unicode="&#x39d;" horiz-adv-x="1560" d="M195 0v1491h102l674 -918q233 -317 303 -436l4 4q-16 197 -16 580v770h104v-1491h-98l-654 887q-244 332 -319 463l-8 -4q14 -203 14 -549v-797h-106z" />
<glyph unicode="&#x39e;" horiz-adv-x="1288" d="M111 0v90h1099v-90h-1099zM131 1401v90h1059v-90h-1059zM219 727v92h883v-92h-883z" />
<glyph unicode="&#x39f;" horiz-adv-x="1665" d="M84 725q0 348 217 570.5t539 222.5q326 0 533.5 -214t207.5 -538q0 -369 -222 -581t-532 -212h-2q-319 0 -530 213t-211 539zM197 729q0 -274 174 -471t456 -197h2q289 0 464 196t175 499q0 266 -167.5 470t-464.5 204q-303 0 -471 -203t-168 -498z" />
<glyph unicode="&#x3a0;" horiz-adv-x="1503" d="M195 0v1491h1112v-1491h-109v1401h-895v-1401h-108z" />
<glyph unicode="&#x3a1;" horiz-adv-x="1210" d="M195 0v1475q176 29 354 28q291 0 430 -131q121 -113 121 -291q0 -193 -115 -307q-156 -162 -469 -162q-145 0 -213 23v-635h-108zM303 729q82 -27 225 -27q221 0 342 96.5t121 270.5q0 180 -123 262t-321 82q-143 0 -244 -20v-664z" />
<glyph unicode="&#x3a3;" horiz-adv-x="1284" d="M55 0v68l615 675l-584 672v76h1065v-90h-920v-8l566 -648l-592 -647v-8h1030v-90h-1180z" />
<glyph unicode="&#x3a4;" horiz-adv-x="1126" d="M-45 1401v90h1219v-90h-556v-1401h-108v1401h-555z" />
<glyph unicode="&#x3a5;" horiz-adv-x="1370" d="M27 1419l24 84q86 -10 196.5 -78.5t186.5 -160.5q201 -246 250 -564h4q59 317 299 576q178 186 356 227l21 -78q-61 -25 -132 -71.5t-158 -125.5t-166 -209t-128 -288t-49 -319v-412h-106v416q0 168 -43 321q-45 158 -116 289t-149.5 210t-152.5 125t-137 58z" />
<glyph unicode="&#x3a6;" horiz-adv-x="1660" d="M84 735q0 168 64.5 307.5t167 224.5t222 131t240.5 50v108h109v-108q176 -8 329.5 -84t257 -238.5t103.5 -384.5q0 -213 -102.5 -371.5t-257 -237.5t-334.5 -85v-113h-109v113q-131 6 -253 52t-220 129t-157.5 214t-59.5 293zM199 745q0 -270 168 -435t409 -181v1237 q-135 -4 -263 -72.5t-221 -214.5t-93 -334zM885 129q229 10 403 177t174 435q0 281 -169 446t-408 179v-1237z" />
<glyph unicode="&#x3a7;" horiz-adv-x="1327" d="M72 0l520 754l-500 737h129l266 -404l172 -260h5l178 258l284 406h129l-534 -729l534 -762h-127l-247 352l-228 328h-6q-55 -90 -215 -330l-233 -350h-127z" />
<glyph unicode="&#x3a8;" horiz-adv-x="1562" d="M111 1001v490h108v-465q0 -436 508 -455v920h109v-920q213 6 361.5 127t148.5 363v430h108v-430q0 -264 -170 -419t-448 -163v-479h-109v479q-115 0 -217 26.5t-195.5 83t-148.5 163t-55 249.5z" />
<glyph unicode="&#x3a9;" horiz-adv-x="1687" d="M57 0v90h379v8q-150 104 -246 277.5t-96 388.5q0 326 218 540t540 214q330 0 535.5 -212t205.5 -524q0 -223 -96 -398t-248 -286v-8h381v-90h-553v76q168 92 286 275.5t118 424.5q0 156 -67.5 300.5t-216 249t-345.5 104.5q-295 0 -469 -198t-174 -464 q0 -231 117.5 -416.5t283.5 -275.5v-76h-553z" />
<glyph unicode="&#x2126;" horiz-adv-x="1687" d="M57 0v90h379v8q-150 104 -246 277.5t-96 388.5q0 326 218 540t540 214q330 0 535.5 -212t205.5 -524q0 -223 -96 -398t-248 -286v-8h381v-90h-553v76q168 92 286 275.5t118 424.5q0 156 -67.5 300.5t-216 249t-345.5 104.5q-295 0 -469 -198t-174 -464 q0 -231 117.5 -416.5t283.5 -275.5v-76h-553z" />
<glyph unicode="&#x3aa;" horiz-adv-x="497" d="M-37 1661q0 35 24.5 62.5t60.5 27.5t60.5 -26.5t24.5 -63.5t-23.5 -63.5t-62.5 -26.5h-2q-39 0 -60.5 26.5t-21.5 63.5zM195 0v1491h108v-1491h-108zM360 1661q0 35 26 62.5t60.5 27.5t59 -26.5t24.5 -63.5t-22.5 -63.5t-63.5 -26.5h-2q-37 0 -59.5 26.5t-22.5 63.5z" />
<glyph unicode="&#x3ab;" horiz-adv-x="1370" d="M27 1419l24 84q86 -10 196.5 -78.5t186.5 -160.5q201 -246 250 -564h4q59 317 299 576q178 186 356 227l21 -78q-61 -25 -132 -71.5t-158 -125.5t-166 -209t-128 -288t-49 -319v-412h-106v416q0 168 -43 321q-45 158 -116 289t-149.5 210t-152.5 125t-137 58zM410 1628 q0 35 25.5 62.5t60 27.5t59.5 -26.5t25 -63.5t-24 -63.5t-62 -26.5h-2q-39 0 -60.5 26.5t-21.5 63.5zM807 1628q0 35 25.5 62.5t61.5 27.5t59.5 -26.5t23.5 -63.5t-22.5 -63.5t-63.5 -26.5h-2q-37 0 -59.5 26.5t-22.5 63.5z" />
<glyph unicode="&#x3ac;" horiz-adv-x="1296" d="M94 510q0 246 151.5 411.5t366.5 165.5q150 0 254.5 -73.5t149.5 -190.5h8q2 115 16 238h90q-8 -74 -18 -332t-10 -440q0 -117 27.5 -171.5t97.5 -56.5l-13 -86q-14 -2 -43 -2q-68 0 -115.5 64.5t-47.5 200.5h-7q-147 -264 -428 -265q-217 0 -348 152t-131 385zM203 510 v-2q0 -182 104.5 -314.5t290.5 -132.5q127 0 238.5 97.5t150.5 224.5q14 53 14 174q0 82 -10 123q-33 127 -136 223t-243 96q-176 0 -292.5 -135t-116.5 -354zM547 1198l145 311h146l-211 -311h-80z" />
<glyph unicode="&#x3ad;" horiz-adv-x="1026" d="M100 297q0 96 80 174t219 94v10q-121 20 -181 83t-60 145q0 113 114.5 198.5t319.5 85.5q221 0 346 -92l-33 -77q-37 29 -134 56t-185 27q-141 0 -230.5 -53t-89.5 -145q0 -90 100.5 -139.5t249.5 -49.5h185v-88h-191q-184 0 -292.5 -57t-108.5 -168t105.5 -175.5 t260.5 -64.5q100 0 209 34t168 73l33 -80q-53 -43 -173 -79t-249 -36q-186 0 -324.5 79t-138.5 245zM494 1198l145 311h145l-211 -311h-79z" />
<glyph unicode="&#x3ae;" horiz-adv-x="1306" d="M166 1061h102q29 -60 29 -180v-31h4q51 102 160.5 169.5t249.5 67.5q37 0 80 -7t106.5 -36.5t110.5 -79t81.5 -143.5t34.5 -217v-604q0 -336 29 -442h-106q-31 94 -31 442v604q0 170 -82 280.5t-252 110.5q-125 0 -224.5 -72.5t-135.5 -179.5q-18 -49 -19 -96v-647h-108 v805q0 172 -29 256zM616 1198l148 311h145l-213 -311h-80z" />
<glyph unicode="&#x3af;" horiz-adv-x="497" d="M182 1198l146 311h145l-213 -311h-78zM195 211v850h108v-836q0 -92 23 -128q21 -34 86 -34h8l-8 -83q-23 -6 -58 -7q-159 0 -159 238z" />
<glyph unicode="&#x3b0;" horiz-adv-x="1230" d="M162 1061h98q33 -31 33 -184v-424q0 -199 99.5 -292t232.5 -93q178 0 278.5 147t100.5 422q0 137 -28 261t-48 163h104q29 -49 54.5 -171t25.5 -237q0 -123 -21.5 -232.5t-72.5 -215t-155.5 -169t-248.5 -63.5q-188 0 -309 115t-121 336v285q1 284 -22 352zM295 1337.5 q0 34.5 23.5 61t57.5 26.5t56.5 -25.5t22.5 -61t-21.5 -61.5t-58.5 -26h-4q-35 0 -55.5 26t-20.5 60.5zM551 1190l53 328h123l-111 -328h-65zM791 1337.5q0 34.5 23.5 61t57 26.5t56 -25.5t22.5 -61t-21.5 -61.5t-60.5 -26h-2q-35 0 -55 26t-20 60.5z" />
<glyph unicode="&#x3b1;" horiz-adv-x="1296" d="M94 510q0 246 151.5 411.5t366.5 165.5q150 0 254.5 -73.5t149.5 -190.5h8q2 115 16 238h90q-8 -74 -18 -332t-10 -440q0 -117 27.5 -171.5t97.5 -56.5l-13 -86q-14 -2 -43 -2q-68 0 -115.5 64.5t-47.5 200.5h-7q-147 -264 -428 -265q-217 0 -348 152t-131 385zM203 510 v-2q0 -182 104.5 -314.5t290.5 -132.5q127 0 238.5 97.5t150.5 224.5q14 53 14 174q0 82 -10 123q-33 127 -136 223t-243 96q-176 0 -292.5 -135t-116.5 -354z" />
<glyph unicode="&#x3b2;" horiz-adv-x="1327" d="M190 -27v975q0 383 179 547q127 115 319 115q150 0 269.5 -98.5t119.5 -278.5q0 -131 -66.5 -224.5t-150.5 -129.5v-11q160 -27 266.5 -140.5t106.5 -295.5q0 -217 -151.5 -338t-350.5 -121q-264 0 -428 185h-4v-158q0 -336 29 -442h-107q-31 93 -31 415zM299 944v-637 q43 -86 156.5 -166t267.5 -80q166 0 283.5 99.5t117.5 263.5q0 186 -125 283.5t-329 97.5h-80v88h43q164 0 250 98.5t86 222.5q0 150 -85 229t-216 79q-182 0 -275.5 -147.5t-93.5 -430.5z" />
<glyph unicode="&#x3b3;" horiz-adv-x="1056" d="M-2 1061h131q100 -129 226 -393.5t186 -505.5h6q348 498 348 844v55h104q4 -16 5 -66q0 -356 -420 -940q-10 -12 -11 -51q6 -147 7 -446h-113q5 70 5 173q0 52 -1 112q-4 181 -39 317q-63 246 -197.5 511t-236.5 390z" />
<glyph unicode="&#x3b4;" horiz-adv-x="1290" d="M94 526q0 195 130 345.5t349 246.5v12l-65 41q-150 106 -150 209q0 92 95.5 161t269.5 69q106 0 205.5 -32t152.5 -77l-39 -82q-49 37 -142 70t-185 33q-123 0 -187.5 -39t-64.5 -94q0 -12 2 -24.5t9 -25t13.5 -21.5t20.5 -22.5t23 -20.5l29 -22q19 -14 32 -22l39 -27 l39 -26l194 -134q168 -113 250 -235.5t82 -288.5q0 -244 -157.5 -395.5t-385.5 -151.5q-231 0 -395 146.5t-164 406.5zM203 522q0 -215 137 -338t317 -123q176 0 303 123t127 336q0 254 -282 447l-152 104q-450 -199 -450 -549z" />
<glyph unicode="&#x3b5;" horiz-adv-x="1026" d="M100 297q0 96 80 174t219 94v10q-121 20 -181 83t-60 145q0 113 114.5 198.5t319.5 85.5q221 0 346 -90l-33 -79q-37 29 -134 56t-185 27q-141 0 -230.5 -53t-89.5 -145q0 -90 100.5 -139.5t249.5 -49.5h185v-88h-191q-184 0 -292.5 -57t-108.5 -168t105.5 -175.5 t260.5 -64.5q100 0 209 34t168 73l33 -80q-53 -43 -173 -79t-249 -36q-186 0 -324.5 79t-138.5 245z" />
<glyph unicode="&#x3b6;" horiz-adv-x="929" d="M98 541q0 244 171 507t479 441v6h-213q-203 0 -289 21l10 79q78 -12 266 -12h387l15 -88q-326 -164 -523.5 -427t-197.5 -513q0 -199 93 -297t273 -149q115 -33 324 -54q20 -4 20 -20q0 -86 -39.5 -192.5t-74.5 -155.5l-78 20q20 33 48 125t30 141q-166 20 -297 56 q-404 111 -404 512z" />
<glyph unicode="&#x3b7;" horiz-adv-x="1306" d="M166 1061h102q29 -60 29 -180v-31h4q51 102 160.5 169.5t249.5 67.5q37 0 80 -7t106.5 -36.5t110.5 -79t81.5 -143.5t34.5 -217v-604q0 -336 29 -442h-106q-31 94 -31 442v604q0 170 -82 280.5t-252 110.5q-125 0 -224.5 -72.5t-135.5 -179.5q-18 -49 -19 -96v-647h-108 v805q0 172 -29 256z" />
<glyph unicode="&#x3b8;" horiz-adv-x="1251" d="M94 803q0 213 58.5 392t184.5 297t298 118q178 0 299 -112t172 -288t51 -407q0 -170 -29.5 -316.5t-90 -263.5t-163 -183.5t-237.5 -66.5h-2q-254 0 -397.5 220.5t-143.5 609.5zM203 780q0 -340 123 -529.5t311 -189.5q197 0 304.5 199t107.5 520h-846zM203 866h846 q0 285 -109 470.5t-319 185.5q-184 0 -301 -197t-117 -459z" />
<glyph unicode="&#x3b9;" horiz-adv-x="497" d="M195 211v850h108v-836q0 -92 23 -128q21 -34 86 -34h8l-8 -83q-23 -6 -58 -7q-159 0 -159 238z" />
<glyph unicode="&#x3ba;" horiz-adv-x="1110" d="M172 1061h104q27 -35 27 -168v-320h12l625 488h139v-6q-94 -68 -306 -234l-320 -248v-8q137 -23 411 -315l234 -250h-133l-217 227q-129 131 -229.5 199t-192.5 68h-23v-494h-108v872q0 142 -23 189z" />
<glyph unicode="&#x3bb;" horiz-adv-x="1083" d="M23 0l432 987q16 33 16 47q0 23 -16 56q-98 233 -140 294q-88 135 -202 136q-23 0 -33 -2l10 86q27 6 55 6q57 0 108.5 -27t87.5 -62.5t81 -116.5t73 -142l80 -187l457 -1075h-117l-294 702l-86 226h-9q-10 -35 -86 -215l-303 -713h-114z" />
<glyph unicode="&#x3bc;" horiz-adv-x="1304" d="M195 0v1061h108v-625q0 -160 82 -264t248 -104q115 0 207 64.5t137 162.5q27 66 27 123v643h108v-776q0 -119 24.5 -166t98.5 -56l-14 -88q-25 -2 -33 -2q-74 0 -123 53.5t-53 172.5h-8q-55 -92 -148.5 -159t-226.5 -67q-240 0 -326 168v-141q0 -336 29 -442h-103 q-34 108 -34 442z" />
<glyph unicode="&#x3bd;" horiz-adv-x="1085" d="M12 1061h117l274 -653l71 -167q42 -101 54 -135h7q6 6 45 69l58 93l60 101q41 70 65 115l57 115q34 69 51.5 123t30.5 113.5t13 108.5q0 84 -2 117h103q8 -43 8 -78q0 -143 -75 -326.5t-136 -281.5l-213 -326l-31 -49h-102z" />
<glyph unicode="&#x3be;" horiz-adv-x="980" d="M98 498q0 158 110.5 276.5t262.5 155.5v8q-272 68 -272 309q0 137 120.5 250t346.5 113q186 0 278 -66l-33 -84q-92 63 -260 64q-160 0 -252 -81t-92 -196q0 -123 100.5 -196.5t249.5 -73.5h156v-88h-63q-274 0 -409.5 -112.5t-135.5 -278.5q0 -154 103.5 -246 t303.5 -143q143 -35 336 -54q20 0 21 -22q0 -78 -39 -190.5t-74 -155.5l-78 20q20 33 49 126t31 140q-82 8 -147.5 18.5t-147.5 31t-143.5 45t-126 64.5t-105.5 90t-65.5 121t-24.5 155z" />
<glyph unicode="&#x3bf;" horiz-adv-x="1306" d="M94 520q0 256 165 411.5t398 155.5q250 0 402.5 -155.5t152.5 -386.5q0 -145 -52 -258t-136 -178.5t-181.5 -100.5t-199.5 -35h-2q-236 0 -391.5 154.5t-155.5 392.5zM203 526q0 -213 131 -339t311 -126h2q186 0 321.5 129t135.5 347q0 176 -116 319t-331 143 t-334.5 -137t-119.5 -336z" />
<glyph unicode="&#x3c0;" horiz-adv-x="1288" d="M47 1016q102 45 277 45h890l-18 -88h-174v-654q0 -217 35 -319h-109q-35 66 -35 301v672h-477q-16 -238 -71.5 -542t-116.5 -431h-105q68 147 122 436t67 537q-172 0 -264 -25z" />
<glyph unicode="&#x3c1;" horiz-adv-x="1339" d="M178 0v418q0 182 35 287.5t100.5 187.5t174 138t247.5 56q233 0 371.5 -151.5t138.5 -374.5q0 -268 -154.5 -428t-379.5 -160q-131 0 -243 54.5t-173 158.5h-8v-186q0 -332 20 -442h-102q-27 98 -27 442zM287 475v-49q0 -39 12 -84q35 -117 146.5 -199t254.5 -82 q201 0 319 135.5t118 354.5q0 188 -114 318t-306 130q-78 0 -150.5 -29.5t-137 -89t-103.5 -165t-39 -240.5z" />
<glyph unicode="&#x3c2;" horiz-adv-x="950" d="M94 526q0 217 161 389t433 172q168 0 256 -49l-33 -88q-102 49 -235 49q-207 0 -340 -135t-133 -327q0 -182 101.5 -286t293.5 -149q129 -31 299 -47q25 -2 25 -35q0 -76 -36 -180t-67 -153l-84 20q16 29 46 124t32 140q-150 18 -281 47q-197 45 -317.5 174t-120.5 334z " />
<glyph unicode="&#x3c3;" horiz-adv-x="1302" d="M94 520q0 260 165 413.5t423 153.5h248h104q227 0 242 3l-2 -91q-203 0 -352 5v-7q123 -61 195.5 -179t72.5 -267q0 -141 -52.5 -257t-134 -182.5t-175 -102.5t-189.5 -36q-233 0 -389 154.5t-156 392.5zM203 526q0 -213 131 -339t307 -126h2q176 0 307 133.5t131 350.5 q0 172 -115.5 313t-324.5 141q-203 0 -320.5 -138t-117.5 -335z" />
<glyph unicode="&#x3c4;" horiz-adv-x="948" d="M-10 1018q72 43 264 43h674l-21 -88h-393v-692q0 -215 145 -215q20 0 52 6l-9 -80q-23 -18 -84 -19q-213 0 -212 310v690h-142q-133 0 -262 -15z" />
<glyph unicode="&#x3c5;" horiz-adv-x="1230" d="M162 1061h98q33 -31 33 -184v-424q0 -199 99.5 -292t232.5 -93q178 0 278.5 147t100.5 422q0 137 -28 261t-48 163h104q29 -49 54.5 -171t25.5 -237q0 -123 -21.5 -232.5t-72.5 -215t-155.5 -169t-248.5 -63.5q-188 0 -309 115t-121 336v285q1 284 -22 352z" />
<glyph unicode="&#x3c6;" horiz-adv-x="1445" d="M94 543q0 113 39 212t102.5 167.5t126 112.5t125.5 69l37 -66q-129 -68 -225 -189.5t-96 -303.5q0 -190 118.5 -322.5t348.5 -161.5v725q0 152 66.5 226.5t172.5 74.5q162 0 301.5 -147t139.5 -377q0 -262 -165 -414.5t-407 -175.5v-415h-108v415q-238 14 -407 159 t-169 411zM778 797v-736q213 27 338 157t125 347q0 170 -101.5 302t-232.5 132q-57 0 -93 -53t-36 -149z" />
<glyph unicode="&#x3c7;" horiz-adv-x="1038" d="M47 -422l424 762l-408 721h121l348 -637h11l151 278l199 359h113l-418 -713l442 -772l-98 -37l-404 717h-6l-123 -225l-260 -492z" />
<glyph unicode="&#x3c8;" horiz-adv-x="1480" d="M162 1061h102q29 -33 29 -184v-355q0 -229 119.5 -342.5t302.5 -120.5v1303h108v-1303q180 6 305 151.5t125 418.5q0 150 -31.5 274.5t-64.5 157.5h113q37 -45 64.5 -163t27.5 -261q0 -115 -28.5 -223.5t-88 -208t-169 -162.5t-253.5 -70v-415h-108v415q-530 27 -531 549 v312q1 170 -22 227z" />
<glyph unicode="&#x3c9;" horiz-adv-x="1624" d="M94 557q0 162 59.5 310.5t143.5 219.5h109v-4q-90 -80 -146.5 -223t-56.5 -313q0 -246 97 -365t214 -119q98 0 175 88.5t75 217.5l-6 444h108l-4 -438q-2 -141 75 -226.5t185 -85.5q115 0 207 133.5t92 372.5q0 162 -57 304.5t-145 209.5v4h114q86 -66 141.5 -202.5 t55.5 -315.5q0 -293 -126 -444.5t-282 -151.5q-115 0 -194.5 56.5t-116.5 158.5h-6q-41 -104 -122 -159.5t-187 -55.5q-156 0 -279 143.5t-123 440.5z" />
<glyph unicode="&#x3ca;" horiz-adv-x="497" d="M-29 1337q0 37 26 65t60.5 28t59 -27t24.5 -65t-23.5 -64.5t-62.5 -26.5h-2q-37 0 -59.5 26.5t-22.5 63.5zM195 211v850h108v-836q0 -92 23 -128q21 -34 86 -34h8l-8 -83q-23 -6 -58 -7q-159 0 -159 238zM369 1337q0 37 25.5 65t61.5 28t60.5 -27t24.5 -65t-23.5 -64.5 t-64.5 -26.5h-2q-37 0 -59.5 26.5t-22.5 63.5z" />
<glyph unicode="&#x3cb;" horiz-adv-x="1230" d="M162 1061h98q33 -31 33 -184v-424q0 -199 99.5 -292t232.5 -93q178 0 278.5 147t100.5 422q0 137 -28 261t-48 163h104q29 -49 54.5 -171t25.5 -237q0 -123 -21.5 -232.5t-72.5 -215t-155.5 -169t-248.5 -63.5q-188 0 -309 115t-121 336v285q1 284 -22 352zM328 1337 q0 37 25.5 65t60.5 28t59.5 -27t24.5 -65t-23.5 -64.5t-62.5 -26.5h-2q-39 0 -60.5 26.5t-21.5 63.5zM725 1337q0 37 25.5 65t61.5 28t59.5 -27t23.5 -65t-22.5 -64.5t-63.5 -26.5h-2q-37 0 -59.5 26.5t-22.5 63.5z" />
<glyph unicode="&#x3cc;" horiz-adv-x="1306" d="M94 520q0 256 165 411.5t398 155.5q250 0 402.5 -155.5t152.5 -386.5q0 -145 -52 -258t-136 -178.5t-181.5 -100.5t-199.5 -35h-2q-236 0 -391.5 154.5t-155.5 392.5zM203 526q0 -213 131 -339t311 -126h2q186 0 321.5 129t135.5 347q0 176 -116 319t-331 143 t-334.5 -137t-119.5 -336zM582 1198l145 311h147l-212 -311h-80z" />
<glyph unicode="&#x3cd;" horiz-adv-x="1230" d="M162 1061h98q33 -31 33 -184v-424q0 -199 99.5 -292t232.5 -93q178 0 278.5 147t100.5 422q0 137 -28 261t-48 163h104q29 -49 54.5 -171t25.5 -237q0 -123 -21.5 -232.5t-72.5 -215t-155.5 -169t-248.5 -63.5q-188 0 -309 115t-121 336v285q1 284 -22 352zM535 1198 l147 311h145l-213 -311h-79z" />
<glyph unicode="&#x3ce;" horiz-adv-x="1624" d="M94 557q0 162 59.5 310.5t143.5 219.5h109v-4q-90 -80 -146.5 -223t-56.5 -313q0 -246 97 -365t214 -119q98 0 175 88.5t75 217.5l-6 444h108l-4 -438q-2 -141 75 -226.5t185 -85.5q115 0 207 133.5t92 372.5q0 162 -57 304.5t-145 209.5v4h114q86 -66 141.5 -202.5 t55.5 -315.5q0 -293 -126 -444.5t-282 -151.5q-115 0 -194.5 56.5t-116.5 158.5h-6q-41 -104 -122 -159.5t-187 -55.5q-156 0 -279 143.5t-123 440.5zM727 1198l147 311h146l-213 -311h-80z" />
<glyph unicode="&#x401;" horiz-adv-x="1128" d="M195 0v1491h809v-90h-701v-570h664v-90h-664v-651h739v-90h-847zM309 1692q0 35 25.5 62.5t61.5 27.5t59.5 -25.5t23.5 -63.5t-22.5 -64.5t-63.5 -26.5h-2q-37 0 -59.5 26.5t-22.5 63.5zM709 1692q0 35 24.5 62.5t60 27.5t60.5 -25.5t25 -63.5t-24 -64.5t-62 -26.5h-2 q-39 0 -60.5 26.5t-21.5 63.5z" />
<glyph unicode="&#x402;" horiz-adv-x="1521" d="M-45 1401v90h1212v-90h-622v-518h4q187 121 369 121q248 0 387 -191q115 -154 114 -403q0 -301 -141 -492q-129 -176 -371 -215l-20 76q195 45 299 182q123 160 123 426q0 223 -90 356q-115 168 -316 168q-195 0 -358 -127v-784h-109v1401h-481z" />
<glyph unicode="&#x403;" horiz-adv-x="944" d="M195 0v1491h794v-90h-686v-1401h-108zM475 1571l213 254h168l-293 -254h-88z" />
<glyph unicode="&#x404;" horiz-adv-x="1390" d="M84 739q0 344 242.5 561.5t601.5 217.5q244 0 387 -80l-37 -86q-145 76 -344 75q-305 0 -505 -165.5t-228 -452.5h934v-88h-934q2 -295 199.5 -476.5t504.5 -181.5q207 0 379 78l25 -84q-156 -84 -443 -84q-145 0 -281 46.5t-250 136.5t-182.5 241.5t-68.5 341.5z" />
<glyph unicode="&#x405;" horiz-adv-x="1116" d="M102 84l41 90q162 -111 371 -111q178 0 282.5 87.5t104.5 226.5q0 127 -75.5 207t-262.5 139q-223 72 -320.5 169t-97.5 243q0 166 130 274.5t333 108.5q217 0 332 -76l-43 -90q-113 78 -294 78t-266 -87.5t-85 -191.5q0 -121 78 -195.5t258 -132.5q217 -72 317.5 -168 t100.5 -268q0 -170 -128 -292t-378 -122q-109 0 -220.5 31t-177.5 80z" />
<glyph unicode="&#x406;" horiz-adv-x="497" d="M195 0v1491h108v-1491h-108z" />
<glyph unicode="&#x407;" horiz-adv-x="497" d="M-33 1692q0 35 25.5 62.5t60.5 27.5t59.5 -25.5t24.5 -63.5t-23.5 -64.5t-62.5 -26.5h-2q-39 0 -60.5 26.5t-21.5 63.5zM195 0v1491h108v-1491h-108zM365 1692q0 35 25.5 62.5t61 27.5t59.5 -25.5t24 -63.5t-23 -64.5t-63 -26.5h-3q-37 0 -59 26.5t-22 63.5z" />
<glyph unicode="&#x408;" horiz-adv-x="835" d="M12 16l27 88q80 -39 186 -38q164 0 245 99t81 351v975h108v-1004q0 -514 -434 -514q-127 0 -213 43z" />
<glyph unicode="&#x409;" horiz-adv-x="2050" d="M-18 72q102 16 180 94q53 51 86 141t45 219t14 193.5t2 183.5v588h821v-569q78 12 209 12q164 0 295 -40t222.5 -147.5t91.5 -273.5q0 -193 -117 -315q-164 -170 -524 -170q-86 0 -285 12v1401h-608v-490v-141q0 -33 -4 -144.5t-17.5 -171t-35 -145.5t-59.5 -143t-87 -98 q-109 -80 -209 -80zM1130 86q68 -10 207 -10q213 0 356.5 97t143.5 294q0 201 -143.5 288t-362.5 87q-96 0 -201 -11v-745z" />
<glyph unicode="&#x40a;" horiz-adv-x="2076" d="M195 0v1491h108v-612h746v612h108v-602q78 12 254 12q113 0 209 -23.5t178 -72.5t129 -135t47 -203q0 -193 -116 -313q-156 -166 -519 -166q-92 0 -290 12v786h-746v-786h-108zM1157 88q82 -12 207 -12q213 0 356.5 91t143.5 294q0 96 -41 165.5t-112 108.5t-153.5 56.5 t-177.5 17.5q-139 0 -223 -10v-711z" />
<glyph unicode="&#x40b;" horiz-adv-x="1544" d="M-45 1401v90h1182v-90h-605v-496h5q205 121 395 121q180 0 293 -102q133 -125 133 -369v-555h-109v547q0 201 -94 299q-96 90 -244 90q-88 0 -197.5 -37t-181.5 -88v-811h-108v1401h-469z" />
<glyph unicode="&#x40c;" horiz-adv-x="1222" d="M195 0v1491h108v-686h90l641 686h129l-661 -694q213 -18 323.5 -116.5t196.5 -291.5q156 -344 178 -389h-115q-53 92 -167 360q-78 184 -197 271.5t-346 87.5h-72v-719h-108zM561 1559l213 256h168l-291 -256h-90z" />
<glyph unicode="&#x40e;" horiz-adv-x="1153" d="M-4 1491h123l391 -725q49 -92 121 -242h4q31 78 108 248l318 719h117l-396 -860q-164 -362 -284 -498q-141 -158 -310 -158q-66 0 -79 7l18 92q16 -6 51 -6q70 0 130.5 30.5t107.5 85t74.5 97.5t60.5 106q14 33 12 53.5t-20 55.5zM313 1815h103q6 -33 13 -50.5t23.5 -44 t48 -39t79 -12.5t79 12.5t47 36t22.5 44t11 53.5h101q-8 -227 -267 -228q-131 0 -192.5 64t-67.5 164z" />
<glyph unicode="&#x40f;" horiz-adv-x="1488" d="M195 0v1491h108v-1401h889v1401h108v-1491h-491l-16 -397h-93l-16 397h-489z" />
<glyph unicode="&#x410;" horiz-adv-x="1415" d="M66 0l602 1491h106l598 -1491h-112l-211 524h-664l-207 -524h-112zM422 614h592l-211 525q-41 104 -82 237h-4q-29 -96 -82 -231z" />
<glyph unicode="&#x411;" horiz-adv-x="1222" d="M195 0v1491h806v-90h-698v-479q78 12 211 12q225 0 375 -76q233 -115 233 -385q0 -193 -118 -315q-164 -170 -525 -170q-85 0 -284 12zM303 88q82 -12 207 -12q121 0 231.5 35.5t176.5 107.5q94 96 94 248q0 207 -170 303q-127 72 -338 72q-96 0 -201 -11v-743z" />
<glyph unicode="&#x412;" horiz-adv-x="1210" d="M195 0v1470q150 33 333 33q291 0 420 -129q94 -94 94 -246q0 -111 -74.5 -201.5t-189.5 -129.5v-6q47 -10 98.5 -35t104.5 -67t88 -113.5t35 -159.5q0 -168 -113 -281q-150 -147 -516 -147q-81 0 -280 12zM303 1395v-564h260q172 0 270.5 83t98.5 210q0 289 -410 289 q-143 0 -219 -18zM303 90q61 -12 211 -12q205 0 341 75.5t136 258.5q0 166 -131 248.5t-334 82.5h-223v-653z" />
<glyph unicode="&#x413;" horiz-adv-x="944" d="M195 0v1491h794v-90h-686v-1401h-108z" />
<glyph unicode="&#x414;" horiz-adv-x="1429" d="M23 90h108q10 20 37 65l44 72q17 29 38.5 72t34.5 82q90 248 90 725v385h829v-1401h129l-12 -455h-88l-12 365h-1086l-12 -365h-88zM246 90h850v1311h-621v-357q0 -446 -92 -692q-47 -123 -137 -262z" />
<glyph unicode="&#x415;" horiz-adv-x="1128" d="M195 0v1491h809v-90h-701v-570h664v-90h-664v-651h739v-90h-847z" />
<glyph unicode="&#x416;" horiz-adv-x="1843" d="M39 0q39 76 92 217t68 176q80 197 181 291t294 111l-594 696h125l575 -686h92v686h103v-686h94l569 686h129l-598 -696q195 -16 296.5 -110.5t181.5 -291.5q16 -39 68 -179t89 -214h-112q-35 61 -85 195l-61 159q-82 201 -177 283t-302 82h-92v-719h-103v719h-96 q-109 0 -184.5 -21.5t-129.5 -72t-90 -110.5t-77 -161q-12 -25 -61.5 -159t-79.5 -195h-115z" />
<glyph unicode="&#x417;" horiz-adv-x="1083" d="M78 72l39 84q162 -96 346 -97q193 0 298 96.5t105 243.5q0 98 -44 167t-118.5 106t-156.5 52t-172 15h-60v84h64q178 0 302 97.5t124 230.5q0 137 -84 209t-223 72q-166 0 -324 -109l-35 82q170 113 371 113q178 0 292 -90q116 -91 116 -265q0 -137 -95.5 -241.5 t-234.5 -130.5v-7q180 -12 285.5 -112.5t105.5 -272.5q0 -215 -149.5 -320.5t-370.5 -105.5q-217 1 -381 99z" />
<glyph unicode="&#x418;" horiz-adv-x="1560" d="M195 0v1491h106v-770q0 -383 -18 -580l4 -4q63 106 305 436l676 918h98v-1491h-104v797q0 346 12 549l-6 4q-70 -113 -324 -463l-651 -887h-98z" />
<glyph unicode="&#x419;" horiz-adv-x="1560" d="M195 0v1491h106v-770q0 -383 -18 -580l4 -4q63 106 305 436l676 918h98v-1491h-104v797q0 346 12 549l-6 4q-70 -113 -324 -463l-651 -887h-98zM518 1802h100q8 -31 14.5 -48t23 -44t49 -39t78.5 -12t78 12t47.5 36t22.5 44.5t11 50.5h102q-10 -225 -268 -225 q-131 0 -192.5 63.5t-65.5 161.5z" />
<glyph unicode="&#x41a;" horiz-adv-x="1222" d="M195 0v1491h108v-686h90l641 686h129l-661 -694q213 -18 323.5 -116.5t196.5 -291.5q156 -344 178 -389h-115q-53 92 -167 360q-78 184 -197 271.5t-346 87.5h-72v-719h-108z" />
<glyph unicode="&#x41b;" horiz-adv-x="1370" d="M-23 72q98 16 177 94q51 51 84.5 141t46 219t14.5 193.5t2 183.5v588h877v-1491h-109v1401h-659v-490v-141q0 -33 -5.5 -144.5t-17.5 -171t-33.5 -145.5t-59.5 -143t-89 -98q-106 -80 -215 -80z" />
<glyph unicode="&#x41c;" horiz-adv-x="1867" d="M147 0l121 1491h123l359 -889q111 -274 178 -475h4q53 166 182 473l377 891h129l104 -1491h-104l-47 702q-35 508 -35 670h-6q-92 -248 -223 -559l-344 -813h-82l-324 803q-154 385 -209 569h-6q-14 -432 -37 -690l-53 -682h-107z" />
<glyph unicode="&#x41d;" horiz-adv-x="1538" d="M195 0v1491h108v-653h934v653h109v-1491h-109v748h-934v-748h-108z" />
<glyph unicode="&#x41e;" horiz-adv-x="1665" d="M84 725q0 348 217 570.5t539 222.5q326 0 533.5 -214t207.5 -538q0 -369 -222 -581t-532 -212h-2q-319 0 -530 213t-211 539zM197 729q0 -274 174 -471t456 -197h2q289 0 464 196t175 499q0 266 -167.5 470t-464.5 204q-303 0 -471 -203t-168 -498z" />
<glyph unicode="&#x41f;" horiz-adv-x="1501" d="M195 0v1491h1112v-1491h-109v1401h-895v-1401h-108z" />
<glyph unicode="&#x420;" horiz-adv-x="1210" d="M195 0v1475q176 29 354 28q291 0 430 -131q121 -113 121 -291q0 -193 -115 -307q-156 -162 -469 -162q-145 0 -213 23v-635h-108zM303 729q82 -27 225 -27q221 0 342 96.5t121 270.5q0 180 -123 262t-321 82q-143 0 -244 -20v-664z" />
<glyph unicode="&#x421;" horiz-adv-x="1415" d="M84 739q0 147 55.5 285.5t156.5 249t266 177.5t370 67q246 0 401 -76l-35 -90q-150 76 -360 75q-354 0 -547.5 -192.5t-193.5 -505.5q0 -287 188 -475t526 -188q233 0 394 79l32 -86q-172 -86 -465 -86q-156 0 -294 47.5t-249.5 139.5t-178 241.5t-66.5 337.5z" />
<glyph unicode="&#x422;" horiz-adv-x="1126" d="M-45 1401v90h1219v-90h-556v-1401h-108v1401h-555z" />
<glyph unicode="&#x423;" horiz-adv-x="1153" d="M-4 1491h123l391 -725q49 -92 121 -242h4q31 78 108 248l318 719h117l-396 -860q-164 -362 -284 -498q-141 -158 -310 -158q-66 0 -79 7l18 92q16 -6 51 -6q70 0 130.5 30.5t107.5 85t74.5 97.5t60.5 106q14 33 12 53.5t-20 55.5z" />
<glyph unicode="&#x424;" horiz-adv-x="1687" d="M84 735q0 176 64.5 312.5t170 211t224.5 113.5t250 43v141h108v-141q106 -2 205.5 -25.5t191 -75.5t159 -129t107.5 -190.5t40 -253.5q0 -166 -59.5 -294t-162 -204.5t-225.5 -117.5t-262 -45v-146h-109v146q-135 6 -255.5 45t-224 113.5t-163 202.5t-59.5 294zM199 745 q0 -276 166.5 -421.5t425.5 -161.5v1171q-106 -2 -205 -33.5t-189 -97t-144 -183.5t-54 -274zM897 162q117 4 219.5 41t187.5 104.5t135 179t50 254.5q0 154 -49 271.5t-134 184.5t-186.5 99.5t-222.5 36.5v-1171z" />
<glyph unicode="&#x425;" horiz-adv-x="1327" d="M72 0l520 754l-500 737h129l266 -404l172 -260h5l178 258l284 406h129l-534 -729l534 -762h-127l-247 352l-228 328h-6q-55 -90 -215 -330l-233 -350h-127z" />
<glyph unicode="&#x426;" horiz-adv-x="1523" d="M195 0v1491h108v-1401h885v1401h108v-1401h131l-14 -455h-90l-8 365h-1120z" />
<glyph unicode="&#x427;" horiz-adv-x="1386" d="M188 989v502h109v-498q0 -186 101.5 -285.5t295.5 -99.5q219 0 389 119v764h109v-1491h-109v635h-4q-170 -119 -417 -119q-474 0 -474 473z" />
<glyph unicode="&#x428;" horiz-adv-x="1951" d="M195 0v1491h108v-1401h619v1401h108v-1401h621v1401h108v-1491h-1564z" />
<glyph unicode="&#x429;" horiz-adv-x="1984" d="M195 0v1491h108v-1401h619v1401h108v-1401h621v1401h108v-1401h129l-12 -455h-90l-10 365h-1581z" />
<glyph unicode="&#x42a;" horiz-adv-x="1372" d="M-45 1401v90h520v-569q78 12 199 12q94 0 176 -14.5t159.5 -48t136 -85t92.5 -131.5t34 -182q0 -193 -117 -315q-164 -170 -514 -170q-76 0 -274 12v1401h-412zM475 88q82 -12 197 -12q215 0 352 96t137 295q0 137 -74.5 225t-178 119t-232.5 31q-96 0 -201 -11v-743z " />
<glyph unicode="&#x42b;" horiz-adv-x="1617" d="M195 0v1491h108v-571q68 14 211 14q98 0 184 -14.5t166 -48t135.5 -85t89 -131.5t33.5 -182q0 -193 -118 -315q-164 -170 -525 -170q-85 0 -284 12zM303 88q82 -12 207 -12q215 0 358.5 97t143.5 294q0 201 -144.5 288t-363.5 87q-123 0 -201 -11v-743zM1317 0v1491h108 v-1491h-108z" />
<glyph unicode="&#x42c;" horiz-adv-x="1222" d="M195 0v1491h108v-571q68 14 211 14q162 0 293 -40t223 -147.5t92 -273.5q0 -193 -118 -315q-164 -170 -525 -170q-85 0 -284 12zM303 88q82 -12 207 -12q215 0 358.5 96t143.5 295q0 201 -144.5 288t-363.5 87q-96 0 -201 -11v-743z" />
<glyph unicode="&#x42d;" horiz-adv-x="1361" d="M78 63l31 95q197 -94 391 -95q297 0 479 177.5t186 480.5h-815v88h811q-27 289 -197.5 453.5t-441.5 164.5q-170 0 -387 -98l-35 86q227 102 428 103q336 0 543 -210t207 -569q0 -190 -63.5 -340.5t-171 -241.5t-237.5 -137.5t-269 -46.5q-248 0 -459 90z" />
<glyph unicode="&#x42e;" horiz-adv-x="2045" d="M195 0v1491h108v-686h270q23 328 210.5 520.5t490.5 192.5q317 0 502.5 -211t185.5 -541q0 -377 -204 -585t-496 -208q-309 0 -498 205t-193 537h-268v-715h-108zM680 729q0 -276 158.5 -472t423.5 -196h2q266 0 425.5 196t159.5 499q0 172 -61.5 319.5t-195.5 251 t-322 103.5q-283 0 -436.5 -203t-153.5 -498z" />
<glyph unicode="&#x42f;" horiz-adv-x="1224" d="M45 0q39 72 53 102l65.5 174.5t94.5 220.5t107 146q57 55 131 76v4q-164 20 -266.5 123.5t-102.5 247.5q0 178 117 282q143 127 436 127q180 0 350 -33v-1470h-108v684h-213q-178 0 -263 -86q-51 -53 -92 -138t-84 -208t-60 -163t-46 -89h-119zM233 1102q0 -154 127 -241 t332 -89q184 0 230 2v617q-92 25 -246 24q-443 0 -443 -313z" />
<glyph unicode="&#x430;" horiz-adv-x="1095" d="M92 266q0 186 179 291q172 101 513 101q13 0 27 -1v25q0 33 -3 64.5t-20.5 81t-47 84t-90 60t-140.5 25.5q-178 0 -305 -88l-35 78q156 100 350 100q399 0 400 -446v-385q0 -141 18 -256h-100l-17 164h-4q-51 -74 -152.5 -132.5t-232.5 -58.5q-166 0 -253 91t-87 202z M209 285q0 -109 65.5 -166.5t165.5 -57.5q139 0 230.5 66t128.5 152q12 33 12 61v225q-44 2 -85 3q-68 0 -129 -7q-97 -10 -190.5 -38.5t-145.5 -88t-52 -149.5z" />
<glyph unicode="&#x431;" horiz-adv-x="1208" d="M94 717q0 311 137 528q82 131 210 195.5t331 103.5q119 23 232 66l-3 -99q-84 -37 -200 -53q-172 -29 -290 -88t-189 -166q-111 -160 -134 -432h5q59 143 179 216t253 73q213 0 351 -138.5t138 -381.5q0 -258 -126 -413t-382 -155q-147 0 -252.5 66.5t-159 180.5t-77 235 t-23.5 262zM221 545q0 -186 106.5 -336t286.5 -150q197 0 294.5 133.5t97.5 331.5v2q0 174 -94.5 310.5t-301.5 136.5q-229 0 -334 -201q-55 -104 -55 -227z" />
<glyph unicode="&#x432;" horiz-adv-x="1116" d="M184 1049q131 23 312 22q469 0 469 -264q0 -94 -63.5 -158.5t-162.5 -85.5v-4q123 -12 201 -78.5t78 -183.5q0 -305 -557 -305q-39 0 -277 8v1049zM281 510v-418q109 -8 211 -8q416 0 415 213q0 70 -33.5 116t-100 65.5t-131 25.5t-161.5 6h-200zM283 598h213 q147 0 252.5 44t105.5 153q0 182 -373 182q-61 0 -198 -10v-369z" />
<glyph unicode="&#x433;" horiz-adv-x="876" d="M184 0v1061h652v-90h-543v-971h-109z" />
<glyph unicode="&#x434;" horiz-adv-x="1175" d="M18 90h93q68 109 104 209q72 221 72 492v270h684v-971h110l-8 -442h-94l-6 352h-846l-8 -352h-92zM229 90h633v883h-475v-209q0 -256 -65 -467q-23 -70 -93 -207z" />
<glyph unicode="&#x435;" horiz-adv-x="1185" d="M94 504q0 266 150.5 424.5t382.5 158.5q113 0 198.5 -37.5t134 -92t79 -127t39.5 -128t9 -104.5t-4 -68h-882q0 -223 125 -343.5t325 -120.5q195 0 340 67l29 -86q-156 -74 -381 -74q-246 0 -395.5 150t-149.5 381zM209 616h766q0 51 -13.5 107.5t-47 124t-112.5 109.5 t-190 42q-125 0 -218 -63.5t-133 -145.5t-52 -174z" />
<glyph unicode="&#x436;" horiz-adv-x="1474" d="M23 0q20 35 40.5 82t44 108.5t33.5 85.5q63 154 153.5 216.5t240.5 72.5l-486 496h135l457 -483h45v483h105v-483h40l459 483h135l-485 -496q150 -10 239 -72.5t152 -216.5q6 -16 50 -122.5t69 -153.5h-111q-29 51 -110 252q-61 143 -152.5 194.5t-242.5 51.5h-43v-498 h-105v498h-47q-147 0 -242.5 -51.5t-154.5 -194.5q-96 -219 -113 -252h-106z" />
<glyph unicode="&#x437;" horiz-adv-x="940" d="M80 55l41 86q145 -80 291 -80q137 0 223 63.5t86 164.5q0 225 -385 225h-60v88h56q150 0 245 61.5t95 149.5q0 84 -68.5 136t-169.5 52q-141 1 -268 -83l-39 77q152 92 324 92q131 0 235.5 -68.5t104.5 -209.5q0 -90 -78 -157.5t-181 -86.5v-2q137 -8 225.5 -86 t88.5 -192q0 -152 -122 -232t-316 -80q-174 0 -328 82z" />
<glyph unicode="&#x438;" horiz-adv-x="1277" d="M184 0v1061h109v-547q0 -246 -10 -387l4 -4q61 90 211 293l485 645h113v-1061h-109v565q0 211 8 379h-4q-125 -186 -243 -342l-453 -602h-111z" />
<glyph unicode="&#x439;" horiz-adv-x="1277" d="M184 0v1061h109v-547q0 -246 -10 -387l4 -4q61 90 211 293l485 645h113v-1061h-109v565q0 211 8 379h-4q-125 -186 -243 -342l-453 -602h-111zM360 1501h103q4 -74 49 -127t123 -53q84 0 129 50t55 130h99q-2 -119 -81 -188.5t-206 -69.5q-143 0 -206 78t-65 180z" />
<glyph unicode="&#x43a;" horiz-adv-x="1071" d="M195 0v1061h108v-483h62l528 483h149l-555 -492q156 -14 262.5 -98t190.5 -260q74 -156 111 -211h-115q-45 59 -109 195q-78 162 -187.5 231.5t-287.5 69.5h-49v-496h-108z" />
<glyph unicode="&#x43b;" horiz-adv-x="1165" d="M8 82q55 8 101 35q94 57 122.5 185t28.5 370v389h723v-1061h-109v971h-505v-289q0 -270 -38 -421.5t-149 -217.5q-88 -51 -170 -51z" />
<glyph unicode="&#x43c;" horiz-adv-x="1368" d="M88 0l88 1061h129l260 -641l117 -291h2q98 268 168 428l215 504h131l82 -1061h-111l-30 575l-14 185q-9 125 -11 180h-6q-29 -82 -133 -328l-262 -612h-82l-248 610q-41 96 -119 330h-10q-2 -43 -21 -365l-34 -575h-111z" />
<glyph unicode="&#x43d;" horiz-adv-x="1273" d="M184 0v1061h109v-447h690v447h107v-1061h-107v524h-690v-524h-109z" />
<glyph unicode="&#x43e;" horiz-adv-x="1306" d="M94 520q0 256 165 411.5t398 155.5q250 0 402.5 -155.5t152.5 -386.5q0 -145 -52 -258t-136 -178.5t-181.5 -100.5t-199.5 -35h-2q-236 0 -391.5 154.5t-155.5 392.5zM203 526q0 -213 131 -339t311 -126h2q186 0 321.5 129t135.5 347q0 176 -116 319t-331 143 t-334.5 -137t-119.5 -336z" />
<glyph unicode="&#x43f;" horiz-adv-x="1263" d="M184 0v1061h897v-1061h-108v971h-680v-971h-109z" />
<glyph unicode="&#x440;" horiz-adv-x="1355" d="M186 1061h103l10 -221h4q137 248 447 247q227 0 369.5 -155.5t142.5 -378.5q0 -268 -156 -424t-383 -156q-131 0 -241.5 55.5t-174.5 161.5h-4v-632h-108v1161q-1 190 -9 342zM303 426q0 -39 10 -84q37 -117 147.5 -199t254.5 -82q201 0 319.5 132.5t118.5 355.5 q0 188 -116.5 319t-309.5 131q-137 0 -248.5 -75.5t-154.5 -214.5q-20 -66 -21 -95v-188z" />
<glyph unicode="&#x441;" horiz-adv-x="1099" d="M94 516q0 260 172 415.5t432 155.5q215 0 324 -73l-39 -90q-125 72 -293 71q-229 0 -358 -133t-129 -334q0 -205 133 -333.5t336 -128.5q145 0 311 71l31 -86q-164 -78 -357 -78q-250 0 -406.5 153.5t-156.5 389.5z" />
<glyph unicode="&#x442;" horiz-adv-x="907" d="M23 971v90h864v-90h-379v-971h-109v971h-376z" />
<glyph unicode="&#x443;" horiz-adv-x="1060" d="M20 1061h117l316 -709q57 -127 88 -223h4q57 156 88 231l297 701h117l-377 -858q-115 -262 -198 -396.5t-185 -205.5q-104 -78 -195 -97l-29 90q113 35 195 105q125 104 205 285q12 29 12 43q0 16 -14 49z" />
<glyph unicode="&#x444;" horiz-adv-x="1431" d="M94 520q0 256 159 404.5t415 160.5v498h100v-496q262 -12 415.5 -161.5t153.5 -382.5q0 -256 -156.5 -403.5t-412.5 -164.5v-417h-100v415q-262 14 -418 162.5t-156 384.5zM203 526q0 -197 134 -327.5t331 -143.5v951q-201 -12 -333 -146.5t-132 -333.5zM768 55 q199 16 330 149.5t131 330.5q0 203 -130 329.5t-331 141.5v-951z" />
<glyph unicode="&#x445;" horiz-adv-x="1038" d="M23 0l430 545l-404 516h123l205 -260q70 -88 133 -180h6q35 51 137 180l203 260h121l-406 -514l426 -547h-125l-213 270l-151 201h-4q-31 -49 -148 -201l-209 -270h-124z" />
<glyph unicode="&#x446;" horiz-adv-x="1273" d="M184 0v1061h109v-971h668v971h108v-971h111l-11 -442h-92l-6 352h-887z" />
<glyph unicode="&#x447;" horiz-adv-x="1173" d="M172 690v371h109v-359q0 -266 290 -266q180 0 312 99v526h108v-1079h-108v464h-2q-63 -43 -157.5 -70.5t-176.5 -27.5q-166 0 -270.5 83t-104.5 259z" />
<glyph unicode="&#x448;" horiz-adv-x="1638" d="M184 0v1061h109v-971h473v971h108v-971h474v971h108v-1061h-1272z" />
<glyph unicode="&#x449;" horiz-adv-x="1660" d="M184 0v1061h109v-971h473v971h108v-971h474v971h108v-971h111l-11 -442h-92l-6 352h-1274z" />
<glyph unicode="&#x44a;" horiz-adv-x="1263" d="M23 971v90h450v-379q72 10 219 10q66 0 128.5 -9t128 -33.5t112.5 -63.5t77.5 -102.5t30.5 -145.5q0 -135 -84 -219q-129 -129 -458 -129q-66 0 -164 5t-101 5v971h-339zM471 84q82 -10 191 -10q399 0 399 262q0 150 -117 210t-287 60q-74 0 -186 -16v-506z" />
<glyph unicode="&#x44b;" horiz-adv-x="1415" d="M184 0v1061h111v-385q82 16 197 16q201 0 339 -84t138 -270q0 -129 -84 -215q-135 -133 -439 -133q-63 0 -161.5 5t-100.5 5zM293 590v-506q82 -10 178 -10q160 0 274.5 61.5t114.5 200.5q0 78 -32.5 133t-90 84t-120 41t-136.5 12q-96 0 -188 -16zM1118 0v1061h109 v-1061h-109z" />
<glyph unicode="&#x44c;" horiz-adv-x="1107" d="M184 0v1061h111v-379q57 10 207 10q512 0 512 -360q0 -123 -84 -209q-135 -133 -484 -133q-63 0 -161.5 5t-100.5 5zM293 84q82 -10 188 -10q72 0 139.5 10t135 38t108.5 82t41 132q0 82 -41 138t-110.5 83t-135 38t-141.5 11q-94 0 -184 -16v-506z" />
<glyph unicode="&#x44d;" horiz-adv-x="1112" d="M80 57l33 86q2 -2 24 -11l30 -12q7 -3 32 -11l39 -14q14 -5 40.5 -11t49 -9t51.5 -6t57 -3q211 0 336 117.5t137 316.5h-653v88h651q-14 182 -132 294.5t-335 112.5q-162 0 -309 -80l-37 76q166 96 359 96q270 0 424 -163q141 -145 141 -408q0 -238 -160 -390.5 t-428 -152.5q-188 0 -350 84z" />
<glyph unicode="&#x44e;" horiz-adv-x="1609" d="M184 0v1061h103v-481h233q16 217 156.5 362t345.5 145q225 0 359.5 -153.5t134.5 -388.5q0 -240 -140.5 -406t-363.5 -166q-215 0 -349.5 145.5t-144.5 370.5h-231v-489h-103zM627 518q0 -190 104.5 -325.5t282.5 -135.5h2q182 0 286.5 146.5t104.5 336t-105.5 324.5 t-281.5 135q-174 0 -283.5 -136t-109.5 -345z" />
<glyph unicode="&#x44f;" horiz-adv-x="1105" d="M29 0q37 53 73 127q14 31 45 115t65 136t89 89q51 33 107 43v6q-131 12 -218.5 82t-87.5 182q0 137 119 213q119 78 363 78q168 0 338 -22v-1049h-109v475h-231q-121 0 -189 -43q-49 -33 -81.5 -85t-66.5 -143t-46 -114q-25 -53 -52 -90h-118zM215 774q0 -78 66.5 -127 t141.5 -66.5t152 -17.5h238v410q-123 16 -227 16q-371 0 -371 -215z" />
<glyph unicode="&#x451;" horiz-adv-x="1185" d="M94 504q0 266 150.5 424.5t382.5 158.5q113 0 198.5 -37.5t134 -92t79 -127t39.5 -128t9 -104.5t-4 -68h-882q0 -223 125 -343.5t325 -120.5q195 0 340 67l29 -86q-156 -74 -381 -74q-246 0 -395.5 150t-149.5 381zM209 616h766q0 51 -13.5 107.5t-47 124t-112.5 109.5 t-190 42q-125 0 -218 -63.5t-133 -145.5t-52 -174zM356 1376q0 35 26 62.5t60.5 27.5t59 -26.5t24.5 -64.5t-23.5 -64.5t-62.5 -26.5h-2q-39 0 -60.5 26.5t-21.5 65.5zM752 1376q0 35 25.5 62.5t61 27.5t59.5 -26.5t24 -64.5t-22.5 -64.5t-63.5 -26.5h-2q-37 0 -59.5 26.5 t-22.5 65.5z" />
<glyph unicode="&#x452;" horiz-adv-x="1304" d="M20 1274v90h222v219h108v-219h561v-90h-561v-373h4q176 186 396 186q188 0 309 -151q152 -188 151 -514q0 -211 -56 -369.5t-146 -240.5q-123 -115 -310 -138l-18 84q94 20 152.5 48t109.5 83q158 172 158 533q0 272 -117 440q-98 137 -264 137q-184 0 -338 -188 q-31 -37 -31 -113v-698h-108v1274h-222z" />
<glyph unicode="&#x453;" horiz-adv-x="876" d="M184 0v1061h652v-90h-543v-971h-109zM406 1221l200 309h164l-281 -309h-83z" />
<glyph unicode="&#x454;" horiz-adv-x="1107" d="M94 516q0 258 170 414.5t434 156.5q178 0 332 -88l-39 -86q-2 2 -21.5 11.5t-26.5 12.5t-26.5 12t-29.5 13l-32 9l-38 10t-37.5 8t-43 5t-46.5 1q-217 0 -341 -112.5t-144 -294.5h669v-88h-671q10 -195 139 -314.5t330 -119.5q150 0 323 75l33 -86q-172 -82 -371 -82 q-254 0 -408.5 152.5t-154.5 390.5z" />
<glyph unicode="&#x455;" horiz-adv-x="901" d="M111 51l39 92q129 -80 266 -80q133 0 200.5 59.5t67.5 147.5t-60.5 141.5t-189.5 94.5q-289 94 -289 289q0 121 93.5 206.5t257.5 85.5q152 0 256 -69l-41 -88q-100 68 -236 67q-104 0 -163.5 -55t-59.5 -135q0 -84 58.5 -129t189.5 -90q152 -51 221.5 -122t69.5 -187 q0 -133 -103.5 -219.5t-279.5 -86.5q-164 0 -297 78z" />
<glyph unicode="&#x456;" horiz-adv-x="497" d="M160 1375q0 38 26.5 66.5t63.5 28.5t62.5 -27.5t25.5 -66.5t-25.5 -67.5t-64.5 -28.5h-2q-37 0 -61.5 28.5t-24.5 66.5zM195 0v1061h108v-1061h-108z" />
<glyph unicode="&#x457;" horiz-adv-x="497" d="M-33 1376q0 35 25.5 62.5t60.5 27.5t59.5 -26.5t24.5 -64.5t-23.5 -64.5t-62.5 -26.5h-2q-39 0 -60.5 26.5t-21.5 65.5zM195 0v1061h108v-1061h-108zM362 1376q0 35 26 62.5t61.5 27.5t59 -26.5t23.5 -64.5t-22.5 -64.5t-63.5 -26.5h-2q-37 0 -59.5 26.5t-22.5 65.5z" />
<glyph unicode="&#x458;" horiz-adv-x="507" d="M-129 -381q166 4 246 86q49 53 68.5 144.5t19.5 308.5v903h108v-983q0 -152 -24.5 -253t-95.5 -177q-57 -59 -147.5 -88t-162.5 -29zM170 1375q0 38 26.5 66.5t67.5 28.5q37 0 61.5 -28.5t24.5 -66.5t-24.5 -66.5t-67.5 -28.5h-2q-37 0 -61.5 28.5t-24.5 66.5z" />
<glyph unicode="&#x459;" horiz-adv-x="1794" d="M8 82q63 8 105 35q98 59 134 192t36 363v389h700v-379q57 10 207 10q512 0 512 -354q0 -129 -86 -215q-133 -133 -481 -133q-63 0 -162 5t-101 5v971h-485v-289q0 -258 -49 -415.5t-162 -227.5q-82 -47 -164 -47zM979 590v-506q82 -10 190 -10q72 0 139.5 10t135 38 t108.5 82t41 132q0 82 -38.5 138t-105.5 83t-130.5 38t-130.5 11q-94 0 -209 -16z" />
<glyph unicode="&#x45a;" horiz-adv-x="1794" d="M184 0v1061h109v-410h600v410h111v-393q72 14 219 14q82 0 159.5 -15.5t152.5 -52t121 -106.5t46 -168q0 -137 -88 -223q-129 -127 -457 -127q-63 0 -162.5 5t-101.5 5v557h-600v-557h-109zM1001 582v-500q98 -8 191 -8q72 0 134.5 10t127 36.5t102 81t37.5 130.5 q0 78 -35.5 133t-97 82.5t-125 39t-137.5 11.5q-88 0 -197 -16z" />
<glyph unicode="&#x45b;" horiz-adv-x="1351" d="M18 1274v90h224v219h108v-219h469v-90h-469v-416h4q59 98 150 160q111 70 252 69q190 0 301.5 -126.5t111.5 -354.5v-606h-108v602q0 170 -80 280.5t-254 110.5q-121 0 -219 -72.5t-139 -177.5q-18 -49 -19 -125v-618h-108v1274h-224z" />
<glyph unicode="&#x45c;" horiz-adv-x="1071" d="M195 0v1061h108v-483h62l528 483h149l-555 -492q156 -14 262.5 -98t190.5 -260q74 -156 111 -211h-115q-45 59 -109 195q-78 162 -187.5 231.5t-287.5 69.5h-49v-496h-108zM467 1221l201 309h163l-280 -309h-84z" />
<glyph unicode="&#x45e;" horiz-adv-x="1060" d="M20 1061h117l316 -709q57 -127 88 -223h4q57 156 88 231l297 701h117l-377 -858q-115 -262 -198 -396.5t-185 -205.5q-104 -78 -195 -97l-29 90q113 35 195 105q125 104 205 285q12 29 12 43q0 16 -14 49zM252 1501h102q4 -74 49.5 -127t122.5 -53q84 0 129 50t56 130h98 q-2 -119 -80 -188.5t-207 -69.5q-143 0 -205.5 78t-64.5 180z" />
<glyph unicode="&#x45f;" horiz-adv-x="1249" d="M184 0v1061h109v-971h665v971h109v-1061h-385l-12 -352h-86l-13 352h-387z" />
<glyph unicode="&#x490;" horiz-adv-x="1005" d="M195 0v1491h714l37 270h84l-24 -360h-703v-1401h-108z" />
<glyph unicode="&#x491;" horiz-adv-x="888" d="M184 0v1061h555l23 242h84l-10 -332h-543v-971h-109z" />
<glyph unicode="&#x4d9;" horiz-adv-x="1185" d="M94 463q0 47 6 65h883q0 225 -126 346t-325 121q-195 0 -339 -65l-29 86q156 72 381 71q246 0 394 -148t148 -384q0 -262 -150.5 -422t-379.5 -160q-113 0 -199 38t-135 93.5t-78.5 126t-40 126t-10.5 106.5zM209 442q0 -51 12 -107t47 -123t114 -109t189 -42 q94 0 172 36t124 95.5t73 122t35 127.5h-766z" />
<glyph unicode="&#x1e80;" horiz-adv-x="1947" d="M25 1491h110l236 -856q102 -362 135 -500h4q31 129 152 500l274 856h106l240 -854q104 -369 129 -502h4q27 102 152 498l274 858h113l-494 -1491h-106l-242 854q-98 356 -125 510h-4q-31 -141 -152 -506l-278 -858h-107zM668 1825h168l213 -254h-88z" />
<glyph unicode="&#x1e81;" horiz-adv-x="1732" d="M53 1061h113l194 -619l99 -327h4q31 100 117 327l237 619h107l227 -617q61 -168 113 -329h4q29 109 104 327l211 619h111l-385 -1061h-97l-217 586q-90 240 -127 379h-4q-41 -152 -133 -381l-231 -584h-97zM600 1530h164l201 -309h-84z" />
<glyph unicode="&#x1e82;" horiz-adv-x="1947" d="M25 1491h110l236 -856q102 -362 135 -500h4q31 129 152 500l274 856h106l240 -854q104 -369 129 -502h4q27 102 152 498l274 858h113l-494 -1491h-106l-242 854q-98 356 -125 510h-4q-31 -141 -152 -506l-278 -858h-107zM924 1571l213 254h168l-291 -254h-90z" />
<glyph unicode="&#x1e83;" horiz-adv-x="1732" d="M53 1061h113l194 -619l99 -327h4q31 100 117 327l237 619h107l227 -617q61 -168 113 -329h4q29 109 104 327l211 619h111l-385 -1061h-97l-217 586q-90 240 -127 379h-4q-41 -152 -133 -381l-231 -584h-97zM797 1221l200 309h164l-280 -309h-84z" />
<glyph unicode="&#x1e84;" horiz-adv-x="1947" d="M25 1491h110l236 -856q102 -362 135 -500h4q31 129 152 500l274 856h106l240 -854q104 -369 129 -502h4q27 102 152 498l274 858h113l-494 -1491h-106l-242 854q-98 356 -125 510h-4q-31 -141 -152 -506l-278 -858h-107zM692 1692q0 35 25.5 62.5t60.5 27.5t59.5 -25.5 t24.5 -63.5t-22.5 -64.5t-63.5 -26.5h-2q-37 0 -59.5 26.5t-22.5 63.5zM1090 1692q0 35 25.5 62.5t61 27.5t60.5 -25.5t25 -63.5t-24 -64.5t-64 -26.5h-3q-37 0 -59 26.5t-22 63.5z" />
<glyph unicode="&#x1e85;" horiz-adv-x="1732" d="M53 1061h113l194 -619l99 -327h4q31 100 117 327l237 619h107l227 -617q61 -168 113 -329h4q29 109 104 327l211 619h111l-385 -1061h-97l-217 586q-90 240 -127 379h-4q-41 -152 -133 -381l-231 -584h-97zM584 1376q0 35 25.5 62.5t61.5 27.5t59.5 -26.5t23.5 -64.5 t-22.5 -64.5t-63.5 -26.5h-2q-37 0 -59.5 26.5t-22.5 65.5zM979 1376q0 35 25.5 62.5t61.5 27.5t60.5 -26.5t24.5 -64.5t-23.5 -64.5t-64.5 -26.5h-2q-37 0 -59.5 26.5t-22.5 65.5z" />
<glyph unicode="&#x1ef2;" horiz-adv-x="1196" d="M27 1491h123l276 -465q152 -254 182 -311h4q39 76 187 311l288 465h125l-555 -858v-633h-108v637zM326 1802h168l213 -254h-91z" />
<glyph unicode="&#x1ef3;" horiz-adv-x="1060" d="M20 1061h117l316 -709q57 -127 88 -223h4q57 156 88 231l297 701h117l-377 -858q-115 -262 -198 -396.5t-185 -205.5q-104 -78 -195 -97l-29 90q113 35 195 105q125 104 205 285q12 29 12 43q0 16 -14 49zM264 1530h162l203 -309h-84z" />
<glyph unicode="&#x2000;" horiz-adv-x="985" />
<glyph unicode="&#x2001;" horiz-adv-x="1970" />
<glyph unicode="&#x2002;" horiz-adv-x="985" />
<glyph unicode="&#x2003;" horiz-adv-x="1970" />
<glyph unicode="&#x2004;" horiz-adv-x="655" />
<glyph unicode="&#x2005;" horiz-adv-x="491" />
<glyph unicode="&#x2006;" horiz-adv-x="327" />
<glyph unicode="&#x2007;" horiz-adv-x="327" />
<glyph unicode="&#x2008;" horiz-adv-x="245" />
<glyph unicode="&#x2009;" horiz-adv-x="393" />
<glyph unicode="&#x200a;" horiz-adv-x="108" />
<glyph unicode="&#x2010;" d="M66 578v94h532v-94h-532z" />
<glyph unicode="&#x2011;" d="M66 578v94h532v-94h-532z" />
<glyph unicode="&#x2012;" d="M66 578v94h532v-94h-532z" />
<glyph unicode="&#x2013;" horiz-adv-x="1105" d="M66 514v88h974v-88h-974z" />
<glyph unicode="&#x2014;" horiz-adv-x="2211" d="M66 514v88h2080v-88h-2080z" />
<glyph unicode="&#x2018;" horiz-adv-x="387" d="M94 1047q29 117 86.5 272.5t85.5 206.5l74 12q-27 -72 -62.5 -220.5t-52.5 -248.5z" />
<glyph unicode="&#x2019;" horiz-adv-x="387" d="M94 1047q27 70 64 218t53 251l129 22q-29 -119 -85 -274.5t-85 -206.5z" />
<glyph unicode="&#x201a;" horiz-adv-x="387" d="M47 -279q27 70 62.5 218.5t52.5 250.5l131 23q-29 -119 -86 -274.5t-86 -206.5z" />
<glyph unicode="&#x201c;" horiz-adv-x="649" d="M94 1047q29 117 86.5 272.5t85.5 206.5l74 12q-27 -72 -62.5 -220.5t-52.5 -248.5zM358 1047q29 117 85.5 272.5t84.5 206.5l76 12q-27 -72 -63.5 -220.5t-51.5 -248.5z" />
<glyph unicode="&#x201d;" horiz-adv-x="649" d="M94 1047q27 70 64 218t53 251l129 22q-29 -119 -85 -274.5t-85 -206.5zM358 1047q27 70 64 218t51 251l131 22q-29 -119 -85 -274.5t-85 -206.5z" />
<glyph unicode="&#x201e;" horiz-adv-x="649" d="M47 -279q27 70 62.5 218.5t52.5 250.5l131 23q-29 -119 -86 -274.5t-86 -206.5zM309 -279q27 70 64 218.5t51 250.5l131 23q-29 -119 -85 -274.5t-85 -206.5z" />
<glyph unicode="&#x2020;" horiz-adv-x="1171" d="M121 911v97l422 -9l-11 492h107l-8 -492l420 9v-97l-420 9l8 -1031h-107l11 1031z" />
<glyph unicode="&#x2021;" horiz-adv-x="1171" d="M121 350v96l422 -8v504l-422 -8v96l422 -8l-11 469h107l-8 -469l420 8v-96l-420 8v-504l420 8v-96l-420 8l8 -469h-107l9 469z" />
<glyph unicode="&#x2022;" horiz-adv-x="552" d="M80 591q0 78 56 134q58 57 140 57t140.5 -57t58.5 -139t-58.5 -139.5t-140.5 -57.5h-2q-80 0 -137 57.5t-57 144.5z" />
<glyph unicode="&#x2026;" horiz-adv-x="2211" d="M303 148.5q27 29.5 69 29.5t67.5 -29.5t25.5 -72.5t-26.5 -73t-69.5 -30h-2q-39 0 -66 31q-25 29 -25 66q0 49 27 78.5zM1040.5 148.5q26.5 29.5 68.5 29.5t66.5 -29.5t24.5 -72.5t-25.5 -73t-68.5 -30h-2q-41 0 -67 31q-24 28 -23 66q0 49 26.5 78.5zM1775.5 148.5 q26.5 29.5 68.5 29.5t67.5 -29.5t25.5 -72.5t-26.5 -73t-67.5 -30h-2q-41 0 -67 31q-25 29 -25 66q0 49 26.5 78.5z" />
<glyph unicode="&#x202f;" horiz-adv-x="393" />
<glyph unicode="&#x2030;" horiz-adv-x="2498" d="M66 1012q0 217 99 334.5t232 117.5h2q143 0 227.5 -108.5t84.5 -317.5q0 -221 -92.5 -339.5t-235.5 -118.5q-133 0 -224 109.5t-93 322.5zM162 1022v-20q0 -154 58 -247q62 -99 167 -100q113 0 170 98.5t57 274.5q0 360 -225 361h-2q-100 0 -162.5 -99.5t-62.5 -267.5z M358 -27l891 1491h90l-890 -1491h-91zM993 420q0 219 98.5 336.5t233.5 117.5h2q141 0 225 -108.5t84 -319.5q0 -221 -91 -338.5t-236 -117.5q-131 0 -222.5 109.5t-93.5 320.5zM1087 432v-20q0 -154 60 -248q63 -100 168 -101q113 0 170 98.5t57 276.5q0 360 -225 361h-2 q-100 0 -164 -99.5t-64 -267.5zM1790 420q0 219 98.5 336.5t233.5 117.5h2q141 0 225 -108.5t84 -319.5q0 -221 -92 -338.5t-236 -117.5q-133 0 -223 109.5t-92 320.5zM1884 432v-20q0 -154 60 -248q63 -100 165 -101q113 0 171.5 98.5t58.5 276.5q0 360 -228 361h-2 q-98 0 -161.5 -99.5t-63.5 -267.5z" />
<glyph unicode="&#x2039;" horiz-adv-x="573" d="M66 557l346 408h114l-344 -408l346 -407h-114z" />
<glyph unicode="&#x203a;" horiz-adv-x="573" d="M47 965h115l346 -408l-346 -407h-113l344 407z" />
<glyph unicode="&#x2044;" horiz-adv-x="946" d="M-18 -27l892 1491h91l-891 -1491h-92z" />
<glyph unicode="&#x2215;" horiz-adv-x="946" d="M-18 -27l892 1491h91l-891 -1491h-92z" />
<glyph unicode="&#x205f;" horiz-adv-x="491" />
<glyph unicode="&#x2070;" horiz-adv-x="731" d="M57 1425q0 211 90.5 329t227.5 118q139 0 219 -111.5t80 -318.5q0 -217 -83 -336t-233 -119h-2q-131 0 -215 113.5t-84 324.5zM158 1436q0 -174 55 -274.5t149 -100.5h3q104 0 157 99.5t53 275.5q0 360 -210 360q-92 0 -149.5 -97t-57.5 -263z" />
<glyph unicode="&#x2074;" horiz-adv-x="753" d="M33 1237v63l438 551h102v-536h136v-78h-136v-240h-96v240h-444zM139 1315h338v327q0 39 4 109l-4 2q-35 -61 -65 -100l-273 -336v-2z" />
<glyph unicode="&#x2075;" horiz-adv-x="669" d="M43 1042l29 72q82 -53 202 -53q92 0 158 56.5t66 142.5q0 90 -64.5 146t-200.5 56q-49 0 -139 -12l56 401h430v-82h-359l-35 -233q43 4 86 4q104 0 179 -35q63 -25 105 -86t42 -147q0 -127 -93 -208t-233 -81q-135 0 -229 59z" />
<glyph unicode="&#x2076;" horiz-adv-x="737" d="M57 1354q0 246 158 387q109 96 279 121q76 10 92 10l2 -82q-63 0 -101 -8q-143 -20 -229 -112.5t-98 -215.5h2q82 117 235 117q127 0 206 -79t79 -202q0 -121 -83 -212t-220 -91q-139 0 -230.5 97.5t-91.5 269.5zM156 1325q0 -111 58 -186.5t167 -75.5h2q88 0 143.5 64.5 t55.5 156.5q0 98 -58.5 153.5t-154.5 55.5q-61 0 -115.5 -33t-83.5 -84q-14 -26 -14 -51z" />
<glyph unicode="&#x2077;" horiz-adv-x="643" d="M45 1772v79h567v-69l-413 -785h-101l410 772v3h-463z" />
<glyph unicode="&#x2078;" horiz-adv-x="724" d="M57 1221q0 156 185 225v8q-152 57 -152 188q0 100 80 165t201 65h4q121 0 190.5 -61.5t69.5 -149.5q0 -139 -156 -201v-4q190 -63 191 -219q0 -113 -89 -181.5t-219 -68.5q-133 0 -219 66t-86 168zM158 1235q0 -72 55 -124t147 -52h2q96 0 151.5 48t55.5 116 q0 82 -55 126t-172 68q-88 -16 -136 -66t-48 -116zM186 1653q0 -129 195 -166q160 39 160 166q0 57 -43 102t-131 45h-2q-84 0 -131.5 -44t-47.5 -103z" />
<glyph unicode="&#x2079;" horiz-adv-x="724" d="M57 1565q0 123 88 215t226 92q133 0 215 -95.5t82 -271.5q0 -264 -162 -405q-96 -84 -242 -105q-73 -9 -111 -8h-14v82q8 -1 19 0q33 0 90 4q115 12 203 96q94 90 118 240h-6q-88 -109 -231 -109q-127 0 -201 78t-74 187zM156 1569q0 -82 55 -136.5t141 -54.5 q137 0 205 105q12 14 12 37q0 119 -53 197.5t-158 78.5h-2q-90 0 -145 -67.5t-55 -159.5z" />
<glyph unicode="&#x207d;" horiz-adv-x="372" d="M86 1394q0 300 190 541h82q-186 -229 -186 -542q0 -291 186 -535h-82q-190 236 -190 536z" />
<glyph unicode="&#x207e;" horiz-adv-x="372" d="M18 858q184 240 185 541q0 297 -185 536h80q188 -233 189 -536q0 -299 -189 -541h-80z" />
<glyph unicode="&#x2080;" horiz-adv-x="731" d="M57 102q0 211 90.5 329t227.5 118q139 0 219 -111.5t80 -318.5q0 -217 -83 -336t-233 -119h-2q-131 0 -215 113.5t-84 324.5zM158 113q0 -174 55 -273.5t149 -99.5h3q104 0 157 98.5t53 274.5q0 360 -210 360q-92 0 -149.5 -97t-57.5 -263z" />
<glyph unicode="&#x2081;" horiz-adv-x="475" d="M57 451l174 86h84v-863h-90v775h-4l-143 -70z" />
<glyph unicode="&#x2082;" horiz-adv-x="673" d="M31 -260l162 143q168 150 232 234t64 163.5t-50 135t-156 55.5q-90 0 -195 -76l-33 58q100 96 250 96q147 0 215 -78t68 -164q0 -121 -78 -220t-270 -263l-76 -66v-4h438v-80h-571v66z" />
<glyph unicode="&#x2083;" horiz-adv-x="657" d="M27 -272l34 73q27 -23 90.5 -42t122.5 -19q123 0 178 58q52 56 52 116q0 95 -84 141q-82 45 -193 45h-69v72h73q88 0 160 42t74 128q0 49 -41 90t-123 41q-113 0 -190 -65l-35 69q111 72 231 72q133 0 193.5 -61.5t60.5 -143.5q0 -66 -45 -120t-125 -83v-4 q98 -16 154.5 -76.5t56.5 -142.5q0 -100 -86 -177t-246 -77q-161 1 -243 64z" />
<glyph unicode="&#x2084;" horiz-adv-x="753" d="M33 -23l438 551h102v-536h136v-78h-136v-240h-96v240h-444v63zM139 -6v-2h338v330q0 37 4 108l-4 2q-35 -63 -65 -102z" />
<glyph unicode="&#x2085;" horiz-adv-x="669" d="M43 -281l29 72q82 -51 202 -51q92 0 158 56.5t66 140.5q0 90 -64.5 146t-200.5 56q-49 0 -139 -10l56 399h430v-82h-359l-35 -233q43 4 86 4q104 0 179 -33q63 -27 105 -88t42 -147q0 -125 -93 -207t-233 -82q-135 0 -229 59z" />
<glyph unicode="&#x2086;" horiz-adv-x="737" d="M57 31q0 246 158 387q109 98 279 123q76 8 92 8l2 -82q-63 0 -101 -6q-143 -23 -229 -115t-98 -215h2q82 117 235 117q127 0 206 -79t79 -202q0 -121 -83 -212t-220 -91q-139 0 -230.5 97.5t-91.5 269.5zM156 2q0 -111 58 -185.5t167 -74.5h2q88 0 143.5 63.5t55.5 157.5 q0 96 -58.5 151.5t-154.5 55.5q-61 0 -115.5 -33t-83.5 -84q-14 -26 -14 -51z" />
<glyph unicode="&#x2087;" horiz-adv-x="643" d="M45 449v79h567v-67l-413 -787h-101l410 772v3h-463z" />
<glyph unicode="&#x2088;" horiz-adv-x="724" d="M57 -102q0 156 185 225v8q-152 57 -152 191q0 98 80 162.5t201 64.5h4q121 0 190.5 -61.5t69.5 -149.5q0 -139 -156 -201v-4q190 -61 191 -219q0 -113 -89 -181.5t-219 -68.5q-133 0 -219 67t-86 167zM158 -88q0 -72 55 -124t147 -52h2q96 0 151.5 48t55.5 116 q0 82 -55 127t-172 67q-88 -16 -136 -66t-48 -116zM186 330q0 -129 195 -166q160 39 160 166q0 57 -43 102t-131 45h-2q-84 0 -131.5 -44t-47.5 -103z" />
<glyph unicode="&#x2089;" horiz-adv-x="724" d="M57 242q0 123 88 215t226 92q133 0 215 -95.5t82 -269.5q0 -266 -162 -407q-96 -84 -242 -105q-73 -9 -111 -8h-14v82q8 -1 19 0q33 0 90 4q115 12 203 96q94 90 118 240h-6q-88 -109 -231 -109q-127 0 -201 78t-74 187zM156 246q0 -82 55 -136.5t141 -54.5 q137 0 205 105q12 14 12 37q0 119 -53 197.5t-158 78.5h-2q-90 0 -145 -67.5t-55 -159.5z" />
<glyph unicode="&#x208d;" horiz-adv-x="372" d="M86 71q0 300 190 541h82q-186 -229 -186 -540q0 -293 186 -537h-82q-190 236 -190 536z" />
<glyph unicode="&#x208e;" horiz-adv-x="372" d="M18 -465q184 240 185 541q0 299 -185 536h80q188 -233 189 -536q0 -299 -189 -541h-80z" />
<glyph unicode="&#x20ac;" horiz-adv-x="1171" d="M29 573v82h137v29q0 63 6 123h-143v82h157q41 246 205 403q180 172 436 172q176 0 306 -78l-33 -83q-115 74 -281 73q-205 0 -348 -133q-133 -127 -176 -354h745v-82h-759q-6 -55 -7 -115v-37h766v-82h-759q29 -233 165 -364q145 -143 361 -143q166 0 317 92l29 -78 q-139 -106 -356 -107q-260 0 -432 172q-162 162 -193 428h-143z" />
<glyph unicode="&#x2113;" horiz-adv-x="1126" d="M78 332q131 90 182 135v672q0 223 93 335.5t243 112.5q125 0 195.5 -93t70.5 -243q0 -393 -495 -821v-20q10 -334 276 -334q121 0 210 72.5t144 164.5l66 -53q-78 -145 -186.5 -212.5t-262.5 -67.5q-170 0 -258 107.5t-96 254.5v16q-31 -23 -143 -98zM367 1167v-620 q385 360 385 700q0 252 -189 252q-82 0 -139 -86t-57 -246z" />
<glyph unicode="&#x2116;" horiz-adv-x="2105" d="M188 0v1438h123l520 -856q201 -332 259 -447l4 4q-18 215 -19 578v721h103v-1438h-115l-510 838q-193 313 -266 462l-6 -2q8 -231 8 -561v-737h-101zM1325 1012q0 182 103.5 287.5t248.5 105.5h2q162 0 255.5 -105.5t93.5 -277.5q0 -195 -104.5 -293t-246.5 -98 q-156 0 -254 102.5t-98 278.5zM1389 446v86h577v-86h-577zM1425 1014q0 -139 75 -222t177 -83q109 0 180.5 82.5t71.5 226.5q0 123 -63.5 216t-188.5 93h-2q-121 0 -185.5 -92t-64.5 -221z" />
<glyph unicode="&#x2122;" horiz-adv-x="1404" d="M78 1419v72h524v-72h-221v-530h-82v530h-221zM631 889l53 602h121l156 -389q12 -33 43 -127h4q10 25 24 67l19 56l155 393h121l57 -602h-88l-30 409q-2 47 -6 129h-7q-8 -20 -26.5 -74.5t-26.5 -70.5l-149 -385h-95l-153 397l-49 133h-4q0 -37 -5 -129l-30 -409h-84z" />
<glyph unicode="&#x212e;" horiz-adv-x="1806" d="M78 719q0 307 241.5 525t584.5 218t585 -218t242 -525v-21h-1340q-10 0 -10 -8v-405q0 -20 18 -45q207 -219 508 -220q319 0 531 246h121q-115 -135 -287 -213t-367 -78q-344 0 -585.5 218.5t-241.5 525.5zM381 752q0 -10 10 -11h1026q13 0 13 11v407q0 27 -23 49 q-211 209 -500 209q-295 0 -504 -217q-23 -20 -22 -49v-399z" />
<glyph unicode="&#x2202;" horiz-adv-x="1206" d="M55 424q0 217 152.5 374.5t363.5 157.5q154 0 275 -74.5t168 -162.5h2q4 37 4 115q0 166 -45 300t-119 212.5t-156 118.5t-163 40q-207 0 -340 -98l-43 74q160 119 383 118q236 0 407.5 -209.5t171.5 -572.5q0 -391 -176 -617.5t-432 -226.5q-223 0 -338 134.5 t-115 316.5zM166 434q0 -162 94 -265t254 -103h2q184 0 314.5 154.5t166.5 377.5q-45 111 -160.5 187.5t-265.5 76.5q-166 0 -285.5 -124t-119.5 -304z" />
<glyph unicode="&#x2206;" horiz-adv-x="1282" d="M31 0v76l559 1380h106l555 -1380v-76h-1220zM141 90h998l-361 911q-92 231 -135 349h-4l-115 -299z" />
<glyph unicode="&#x220f;" horiz-adv-x="1417" d="M18 1348v90h1383v-90h-234v-1547h-108v1547h-701v-1547h-108v1547h-232z" />
<glyph unicode="&#x2211;" horiz-adv-x="1161" d="M8 -131l656 747l-625 746v76h1083v-90h-938v-9l607 -721l-633 -720v-7h1048v-90h-1198v68z" />
<glyph unicode="&#x2212;" horiz-adv-x="1316" d="M88 547v88h1141v-88h-1141z" />
<glyph unicode="&#x221a;" horiz-adv-x="1220" d="M74 739l256 111l315 -846q20 -43 37 -104h2q4 20 14.5 61t10.5 43l458 1808h101l-531 -2041h-94l-373 966l-164 -73z" />
<glyph unicode="&#x221e;" horiz-adv-x="1576" d="M88 584q0 125 91 213t220 88q37 0 69 -6.5t64 -24.5l56 -31q23 -12 57.5 -41.5t48 -42t50.5 -50.5l47 -46q78 80 121.5 120t123.5 81t160 41q129 0 212 -84t83 -217q0 -123 -91 -212t-220 -89h-2q-35 0 -67 7t-64 24l-56 30q-23 12 -56 42l-47 42q-13 12 -51 50l-46 46 l-123 -120q-43 -40 -124 -80.5t-161 -40.5q-129 0 -212 84t-83 217zM182 584q0 -90 58.5 -151.5t148.5 -61.5h2q63 0 132 39t107 73.5t99 100.5q-12 14 -54 55t-64.5 60.5t-61.5 46t-76 39t-78 12.5q-90 0 -151.5 -63.5t-61.5 -149.5zM850 584l54 -54l65 -61 q23 -20 61.5 -47t75.5 -39t78 -12h2q90 0 151.5 63.5t61.5 149.5q0 90 -59.5 151.5t-149.5 61.5q-63 0 -133 -39t-108 -72.5t-99 -101.5z" />
<glyph unicode="&#x222b;" horiz-adv-x="641" d="M10 -293l21 78q53 -12 80 -12q59 0 102 43q76 86 76 368q0 154 -12.5 539t-12.5 539q0 297 105 405q68 74 168 74q51 0 88 -17l-23 -75q-37 8 -61 8q-68 0 -103 -43q-78 -88 -78 -361q0 -156 13.5 -538.5t13.5 -536.5q0 -301 -108 -420q-66 -70 -164 -69q-76 0 -105 18z " />
<glyph unicode="&#x2248;" horiz-adv-x="1316" d="M57 780q55 57 145.5 102.5t178.5 45.5q45 0 93 -10.5t72.5 -19.5t68.5 -28l55 -22q14 -6 51 -23.5t61.5 -25.5t65.5 -17.5t82 -9.5q68 0 141.5 37t124.5 86l55 -66q-55 -57 -144 -101t-177 -44q-47 0 -95.5 9t-71.5 19l-68 27q-44 18 -56 25q-12 4 -50 21.5t-62.5 26.5 t-65.5 17.5t-80 8.5q-70 0 -143.5 -36t-124.5 -87zM72 360q55 57 144 101.5t177 44.5q47 0 94.5 -9.5t72 -18.5t68.5 -27.5t56 -24.5q12 -4 50 -21.5t62.5 -26.5t65.5 -17.5t80 -8.5q70 0 143.5 36t124.5 87l56 -65q-55 -57 -145.5 -101.5t-178.5 -44.5q-47 0 -94 9.5 t-71.5 18.5t-68.5 27l-55 23l-52 24q-38 17 -61.5 25t-64.5 17.5t-82 9.5q-68 0 -142.5 -37t-123.5 -86z" />
<glyph unicode="&#x2260;" horiz-adv-x="1316" d="M88 342v90h416l215 332h-631v88h686l189 297h98l-193 -297h361v-88h-416l-213 -332h629v-90h-684l-189 -295h-100l193 295h-361z" />
<glyph unicode="&#x2264;" horiz-adv-x="1316" d="M158 643v84l1003 451v-103l-885 -387v-4l885 -387v-102zM166 0v88h995v-88h-995z" />
<glyph unicode="&#x2265;" horiz-adv-x="1316" d="M158 0v88h995v-88h-995zM158 195v102l884 387v4l-884 387v103l1003 -451v-84z" />
<glyph unicode="&#x25ca;" horiz-adv-x="1105" d="M98 719l406 792h98l406 -792l-406 -793h-98zM203 721l332 -666q14 -23 18 -37h4q4 14 18 37l328 662l-332 665q-14 23 -18 37h-4q-4 -14 -19 -37z" />
<glyph unicode="&#xefed;" d="M248 1692q0 33 25.5 61.5t60.5 28.5t59.5 -29t24.5 -61q0 -35 -24.5 -62.5t-61.5 -27.5h-2q-33 0 -57.5 27.5t-24.5 62.5z" />
<glyph unicode="&#xefee;" d="M68 1835h79q31 -117 187 -117q164 0 182 117h80q-6 -92 -69.5 -152.5t-198.5 -60.5q-131 0 -192.5 60.5t-67.5 152.5z" />
<glyph unicode="&#xeff1;" d="M164 -272q0 117 170 282h96q-166 -166 -166 -260q0 -51 30 -78.5t83 -27.5q55 0 102 22l21 -63q-53 -41 -150 -41q-84 0 -135 44t-51 122z" />
<glyph unicode="&#xeff2;" d="M117 -406l24 78q61 -29 127 -28q45 0 76 20.5t31 56.5q0 80 -178 101l116 178h86l-84 -119q68 -12 112 -54t44 -101q0 -80 -60.5 -122t-154.5 -42q-82 -1 -139 32z" />
<glyph unicode="&#xeff3;" horiz-adv-x="884" d="M242 1730.5q0 77.5 57 133t145 55.5h2q86 0 142.5 -55.5t56.5 -133t-58.5 -131t-142.5 -53.5q-88 0 -145 53.5t-57 131zM332 1731q0 -49 31.5 -86t78.5 -37q49 0 81 36.5t32 90t-31.5 89.5t-81.5 36h-2q-49 0 -78.5 -37t-29.5 -92z" />
<glyph unicode="&#xeff5;" d="M66 1581q-2 82 37.5 138.5t107.5 56.5q43 0 133 -50q76 -37 119 -36q55 0 59 84h76q0 -180 -135 -181q-51 0 -140.5 44t-119.5 44q-49 0 -62 -100h-75z" />
<glyph unicode="&#xeff7;" d="M47 1571l240 254h80l249 -254h-118l-168 174h-4l-168 -174h-111z" />
<glyph unicode="&#xf629;" horiz-adv-x="731" d="M86 426q0 135 81 225t214 107v137h74v-137q94 0 170 -39l-27 -76q-66 41 -164 41q-111 0 -181.5 -69.5t-70.5 -178.5q0 -113 70 -179.5t172 -66.5q98 0 178 37l23 -67q-76 -43 -170 -47v-138h-74v138q-135 16 -217 100q-78 84 -78 213z" />
<glyph unicode="&#xf62a;" horiz-adv-x="694" d="M92 84l35 76q86 -61 197 -62q76 0 127 39t51 101q0 55 -40 92t-124 67q-119 45 -174 98.5t-55 133.5q0 82 55 138t151 69v137h74v-135q100 -2 180 -52l-32 -71q-72 49 -177 49q-80 0 -118.5 -37t-38.5 -88t40 -84t138 -70q111 -45 164 -100t53 -141q0 -76 -58.5 -140.5 t-160.5 -78.5v-138h-74v136q-129 0 -213 61z" />
<glyph unicode="&#xf62b;" horiz-adv-x="405" d="M39 362v76h328v-76h-328z" />
<glyph unicode="&#xf62c;" horiz-adv-x="372" d="M86 395q0 301 190 543h82q-186 -229 -186 -543q0 -291 186 -534h-82q-190 233 -190 534z" />
<glyph unicode="&#xf62d;" horiz-adv-x="372" d="M18 -139q184 242 184.5 539.5t-184.5 537.5h80q188 -236 189 -539q0 -297 -189 -538h-80z" />
<glyph unicode="&#xf62e;" horiz-adv-x="731" d="M86 1018q0 135 81 224t214 108v137h74v-137q94 0 170 -41l-27 -74q-66 39 -164 39q-111 0 -181.5 -69.5t-70.5 -178.5q0 -113 70 -179.5t172 -66.5q98 0 178 39l23 -69q-76 -41 -170 -48v-137h-74v137q-135 16 -217 101q-78 84 -78 215z" />
<glyph unicode="&#xf62f;" horiz-adv-x="694" d="M92 674l35 76q86 -61 197 -62q76 0 127 40t51 99q0 55 -40 93t-124 69q-119 43 -174 96.5t-55 133.5q0 82 55 138t151 70v138h74v-135q100 -2 180 -52l-32 -73q-72 49 -177 49q-80 0 -118.5 -37t-38.5 -87t40 -84t138 -71q111 -45 164 -100t53 -141q0 -76 -58.5 -139.5 t-160.5 -80.5v-137h-74v135q-129 1 -213 62z" />
<glyph unicode="&#xf630;" horiz-adv-x="405" d="M39 952v76h328v-76h-328z" />
<glyph unicode="&#xf631;" horiz-adv-x="372" d="M86 987q0 301 190 541h82q-186 -229 -186 -541q0 -293 186 -536h-82q-190 235 -190 536z" />
<glyph unicode="&#xf632;" horiz-adv-x="372" d="M18 451q184 240 185 540q0 299 -185 537h80q188 -233 189 -537q0 -299 -189 -540h-80z" />
<glyph unicode="&#xf633;" horiz-adv-x="1693" d="M84 686q0 344 226.5 588t604.5 244q311 0 503 -195t192 -489q0 -215 -118 -347.5t-271 -132.5q-72 0 -123 57q-43 47 -43 130q0 17 2 34h-8q-131 -221 -361 -221q-100 0 -176 81t-76 204q0 217 160 367.5t381 150.5q139 0 256 -49l-76 -369q-18 -88 -18 -149 q0 -147 102 -150h8q98 0 175 104q81 108 81 279q0 270 -162.5 441.5t-445.5 171.5q-301 0 -505 -203t-204 -537q0 -276 177.5 -456.5t433.5 -180.5q225 0 368 91l37 -78q-176 -98 -411 -99q-295 0 -502 202t-207 511zM535 637q0 -84 50 -141.5t144 -57.5q121 0 222.5 118 t123.5 241l51 250q-70 27 -161 26q-174 0 -302 -125t-128 -311z" />
<glyph unicode="&#xf634;" d="M184 -406q186 20 187 152q0 80 -84 135l90 27q37 -23 64.5 -65t27.5 -93q0 -104 -81 -157.5t-175 -57.5z" />
<glyph unicode="&#xf638;" horiz-adv-x="1171" d="M90 720q0 359 150 551q152 194 364 193q178 0 299 -121l92 154l84 -55l-116 -176q119 -190 118 -521q0 -379 -135 -575.5t-375 -196.5q-164 0 -284 119l-86 -147l-84 55l110 168q-137 197 -137 552zM203 729v-13q0 -270 84 -444l561 973q-96 131 -262 131 q-168 0 -274.5 -177t-108.5 -470zM340 186q98 -125 240 -125q195 0 292 178.5t97 489.5q0 266 -72 428z" />
<glyph unicode="&#xf639;" horiz-adv-x="1171" d="M90 711q0 367 150.5 560t363.5 193q219 0 348 -182t129 -537q0 -379 -135 -575.5t-375 -196.5h-2q-199 0 -335 188t-144 550zM203 729q0 -17 -1 -33q0 -284 100 -454q105 -180 278 -181h2q193 0 290 178.5t97 489.5q0 303 -94.5 475t-288.5 172q-168 0 -275.5 -178 t-107.5 -469z" />
<glyph unicode="&#xf63a;" horiz-adv-x="1003" d="M8 0v68l141 131q383 354 509 513.5t126 319.5q0 141 -77.5 239.5t-266.5 98.5q-182 0 -338 -137l-45 72q176 160 406 159q117 0 206 -41t136 -105.5t68.5 -128t21.5 -128.5q0 -84 -28.5 -167t-69.5 -152.5t-131.5 -168t-170.5 -174.5l-229 -213l-102 -92v-4h774v-90h-930 z" />
<glyph unicode="&#xf63b;" horiz-adv-x="1005" d="M16 80l43 86q53 -37 149 -68q96 -32 198 -32q119 0 203.5 36.5t123.5 94t53.5 106.5t14.5 94q-2 119 -74 198t-170 109.5t-219 30.5h-109v90h115q154 0 273.5 74t119.5 213q0 106 -72.5 183t-230.5 77q-174 0 -313 -108l-43 79q61 47 162.5 84t203.5 37q209 0 307.5 -101 t98.5 -237q0 -113 -75 -204t-210 -138v-4q154 -29 251 -131t97 -246q0 -174 -134 -302t-390 -128q-115 0 -215.5 32t-157.5 75z" />
<glyph unicode="&#xf63c;" horiz-adv-x="1146" d="M12 420v74l781 944h84v-928h237v-90h-237v-420h-105v420h-760zM143 510h629v618q0 111 4 162l-6 2q-45 -72 -104 -141l-523 -635v-6z" />
<glyph unicode="&#xf63d;" horiz-adv-x="1019" d="M39 76l45 86q139 -96 332 -96q170 0 283 107q112 106 112 256q0 161 -112 266q-110 103 -332 104q-117 0 -232 -19l90 658h676v-95h-592l-67 -462q94 10 153 10q145 0 267 -45q106 -41 182 -144.5t76 -246.5q0 -211 -149.5 -346.5t-362.5 -135.5q-226 1 -369 103z" />
<glyph unicode="&#xf63e;" horiz-adv-x="1179" d="M92 584q0 215 74 384t190 275q170 158 420 203q82 18 164 18l2 -100q-102 0 -178 -14q-238 -45 -387.5 -217t-167.5 -402h4q57 92 165.5 154.5t246.5 62.5q215 0 343 -132t128 -337q0 -197 -132.5 -351.5t-359.5 -154.5q-215 0 -363.5 157t-148.5 454zM203 551 q0 -211 106.5 -349.5t300.5 -138.5h2q166 0 268.5 120t102.5 292q0 180 -107.5 280.5t-277.5 100.5q-111 0 -211 -59.5t-156 -153.5q-28 -53 -28 -92z" />
<glyph unicode="&#xf63f;" horiz-adv-x="905" d="M0 1348v90h907v-86l-706 -1352h-107l701 1343v5h-795z" />
<glyph unicode="&#xf640;" horiz-adv-x="1171" d="M94 365q0 270 320 391v10q-258 96 -258 321q0 162 127 269.5t319 107.5h2q186 0 302 -99t116 -251q0 -236 -272 -344v-8q328 -106 327 -373q0 -188 -146.5 -302t-344.5 -114q-205 0 -348.5 107t-143.5 285zM209 385q-1 -12 -1 -23q0 -117 95 -204q104 -96 279 -97h2 q174 0 278.5 90.5t104.5 217.5q0 152 -101.5 231.5t-316.5 124.5q-166 -35 -253 -126t-87 -214zM260 1098q0 -123 88 -194q90 -73 268 -107q135 35 215 113.5t80 197.5q0 104 -78.5 187t-236.5 83h-4q-154 0 -243 -81t-89 -199z" />
<glyph unicode="&#xf641;" horiz-adv-x="1189" d="M115 948q0 207 140 361.5t366 154.5q203 0 334.5 -155.5t131.5 -454.5q0 -242 -76.5 -415t-197.5 -277q-150 -133 -342 -168q-114 -21 -195 -21h-26v101q20 -3 45 -3q57 0 141 13q203 27 346 182q158 168 197 447l-6 -2q-156 -203 -412 -203q-209 0 -327.5 132 t-118.5 308zM223 952q0 -150 99.5 -250t255.5 -100q125 0 227 54.5t156 140.5q18 35 18 65q0 225 -96.5 368.5t-284.5 143.5h-2q-166 0 -269.5 -124t-103.5 -298z" />
<glyph unicode="&#xf642;" horiz-adv-x="1785" d="M65 867q0 213 97 327q98 117 235 117h2q143 0 227.5 -107.5t84.5 -318.5q0 -221 -92.5 -340t-235.5 -119q-133 0 -224 110q-94 112 -94 331zM162 869v-10q0 -161 59 -258q61 -99 166 -99q113 0 170 98t57 277q0 360 -225 360h-2q-100 0 -161.5 -99.5t-63.5 -268.5z M442 -27l809 1354h92l-811 -1354h-90zM1077 429q0 213 97 328q98 118 235 117h2q141 0 225 -108.5t84 -319.5q0 -221 -91 -338.5t-236 -117.5q-131 0 -223 109q-93 113 -93 330zM1171 432v-10q0 -161 61 -258q62 -100 167 -101q113 0 170 98.5t57 276.5q0 360 -225 361h-2 q-100 0 -163 -99.5t-65 -267.5z" />
<glyph unicode="&#xf643;" horiz-adv-x="1241" d="M111 530q0 260 154.5 408.5t355.5 148.5q205 0 358.5 -144t153.5 -413q0 -258 -155 -407.5t-357 -149.5h-3q-201 0 -354 145.5t-153 411.5zM219 531.5q0 -209.5 110.5 -340t291.5 -130.5h4q178 0 288.5 130.5t110.5 340t-110.5 338.5t-292 129t-292 -129t-110.5 -338.5z " />
<glyph unicode="&#xf644;" horiz-adv-x="1241" d="M213 829l500 232h100v-1061h-102v971h-4l-463 -221z" />
<glyph unicode="&#xf645;" horiz-adv-x="1241" d="M174 0v61l92 56q338 209 478.5 346t140.5 285q0 125 -81 192.5t-206 67.5q-186 0 -369 -142l-36 74q201 158 421 158q166 0 272.5 -92.5t106.5 -255.5q0 -154 -118.5 -284t-368.5 -290l-127 -82v-6q39 2 149 2h555v-90h-909z" />
<glyph unicode="&#xf646;" horiz-adv-x="1241" d="M158 -199l14 84q121 -45 268 -45q199 0 326 90t127 234q0 121 -110.5 190.5t-295.5 69.5q-63 0 -135 -6l-4 88l33 2q199 14 318.5 87t119.5 191q0 213 -287 213q-150 0 -301 -88l-28 74q53 37 149.5 69.5t202.5 32.5q164 0 268.5 -74.5t104.5 -207.5q0 -111 -74 -190.5 t-199 -116.5v-6q150 -20 248 -102.5t98 -221.5q0 -178 -160.5 -297t-396.5 -119q-80 0 -164.5 15.5t-121.5 33.5z" />
<glyph unicode="&#xf647;" horiz-adv-x="1241" d="M88 133v72l741 882h84v-864h240v-90h-240v-381h-102v381h-723zM217 227l2 -4h592v574q0 123 2 149l-6 2q-61 -92 -105 -143z" />
<glyph unicode="&#xf648;" horiz-adv-x="1241" d="M205 -205l18 84q106 -39 256 -39q180 0 307 92.5t127 253.5q0 98 -79 183q-152 154 -584 106l115 586h639l-19 -90h-541l-84 -400q389 27 558 -133q104 -98 104 -243q0 -203 -160 -323t-397 -120q-162 0 -260 43z" />
<glyph unicode="&#xf649;" horiz-adv-x="1241" d="M166 510q0 344 234.5 569.5t625.5 247.5l8 -86q-315 -12 -512.5 -175t-242.5 -415h8q55 84 158.5 145.5t238.5 61.5q184 0 312 -118.5t128 -305.5q0 -213 -141 -337t-309 -124q-221 0 -364.5 148.5t-143.5 388.5zM283 434q0 -139 108.5 -256t276.5 -117h2 q137 0 241.5 97.5t104.5 271.5q0 154 -95.5 247t-256.5 93q-88 0 -167 -38t-120 -79q-55 -55 -74.5 -102t-19.5 -117z" />
<glyph unicode="&#xf64a;" horiz-adv-x="1241" d="M166 971v90h872v-78q-111 -270 -307 -609t-393 -622l-94 35q145 190 366 565t314 615v4h-758z" />
<glyph unicode="&#xf64b;" horiz-adv-x="1241" d="M137 336q0 233 312 358v4q-109 33 -180.5 107t-71.5 180q0 147 127 244.5t303 97.5q172 0 291.5 -93t119.5 -233q0 -195 -270 -305v-4q156 -49 241 -138t85 -200q0 -170 -143.5 -275.5t-336.5 -105.5q-205 0 -341 98.5t-136 264.5zM250 348q0 -129 96 -208t264 -79h2 q160 0 265.5 79t105.5 200q0 225 -408 322q-150 -41 -237.5 -125.5t-87.5 -188.5zM303 995q0 -197 334 -266q131 27 211 95.5t80 176.5q0 111 -90 175.5t-213 64.5h-4q-129 0 -223.5 -66.5t-94.5 -179.5z" />
<glyph unicode="&#xf64c;" horiz-adv-x="1241" d="M145 629q0 190 140.5 324t343.5 134q90 0 172 -28.5t151.5 -88t110.5 -161.5t41 -238q0 -342 -236.5 -573t-634.5 -246l-8 88q305 6 505 161t247 398h-4q-37 -76 -144.5 -136t-240.5 -60q-182 0 -312.5 113.5t-130.5 312.5zM254 637q0 -166 99.5 -255t248.5 -89h2 q119 0 223.5 61.5t143.5 147.5q25 53 24 114q0 174 -111.5 278.5t-262.5 104.5q-141 0 -254 -95t-113 -267z" />
<glyph unicode="&#xf64e;" horiz-adv-x="1241" d="M82 391v82h139q0 8 -1 19.5t-2 17.5t-1 13v12q0 31 6 92h-141v82h151q39 145 142 247q176 176 438 177q156 0 293 -76l-33 -82q-123 70 -280 69q-197 0 -334 -131q-96 -92 -115 -204h674v-82h-686q-6 -51 -6 -74q0 -45 4 -80h688v-82h-678q35 -119 106 -188 q145 -137 345 -137q158 0 294 69l23 -80q-45 -31 -135 -56.5t-193 -25.5q-254 0 -415 162q-104 104 -134 256h-149z" />
<glyph unicode="&#xf64f;" horiz-adv-x="1241" d="M104 -213l27 82q59 -29 143 -29q213 0 250 357l49 444h-233v86h244l14 115q27 227 130 357q102 128 280 128h6q80 0 139 -33l-27 -84q-80 27 -131 27q-133 0 -204.5 -112.5t-90.5 -284.5l-10 -113h322v-86h-332l-45 -393q-27 -242 -114 -369t-257 -127q-97 0 -160 35z " />
<glyph unicode="&#xf650;" horiz-adv-x="1241" d="M158 391v86h211l45 357h-211v86h221l49 380h92l-45 -380h271l47 380h94l-47 -380h200v-86h-211l-45 -357h213v-86h-223l-49 -391h-96l49 391h-270l-47 -391h-97l49 391h-200zM465 477h270l43 357h-270z" />
<glyph unicode="&#xf651;" horiz-adv-x="1241" d="M172 0v68q250 111 250 297q0 55 -10 114h-236v86h219q-16 94 -16 146q0 184 112.5 303t288.5 119q154 0 250 -58l-35 -84q-88 51 -225 51q-143 0 -216 -88t-73 -245q0 -57 19 -144h366v-86h-348q6 -39 6 -84q0 -197 -157 -297v-6h733v-92h-928z" />
<glyph unicode="&#xf652;" horiz-adv-x="1241" d="M166 1106h123l252 -383q51 -78 84 -135h8q14 33 92 141l266 377h121l-385 -531h313v-81h-366v-146h366v-82h-366v-266h-103v266h-366v82h366v146h-366v81h317z" />
<glyph unicode="&#xf653;" horiz-adv-x="1241" d="M266 80l43 80q100 -74 297 -74q117 0 204 54.5t87 142.5q0 82 -59.5 127t-198.5 90q-186 61 -268 124.5t-82 168t90 179.5t229 85v184h86v-184q158 -6 273 -68l-43 -84q-119 66 -269 66q-106 0 -182 -47t-76 -121t56.5 -118t222.5 -97t247 -124t81 -175 q0 -98 -88.5 -183.5t-243.5 -105.5v-178h-84v178q-205 0 -322 80z" />
<glyph unicode="&#xf654;" horiz-adv-x="1241" d="M203 530q0 188 121.5 311.5t310.5 143.5v143h80v-143q154 0 258 -57l-31 -86q-90 53 -256 53q-162 0 -268.5 -97.5t-106.5 -254.5q0 -162 103.5 -255t253.5 -93q156 0 274 59l25 -86q-104 -59 -252 -64v-157h-80v155q-193 14 -312.5 126t-119.5 302z" />
<glyph unicode="&#xf655;" horiz-adv-x="731" d="M57 426q0 213 90.5 330.5t227.5 117.5q139 0 219 -111.5t80 -318.5q0 -217 -83 -335.5t-233 -118.5h-2q-131 0 -215 113.5t-84 322.5zM158 438q0 -174 55 -274.5t149 -100.5h3q104 0 157 98.5t53 276.5q0 360 -210 361q-92 0 -149.5 -97.5t-57.5 -263.5z" />
<glyph unicode="&#xf656;" horiz-adv-x="475" d="M57 776l174 86h84v-862h-90v774h-4l-143 -72z" />
<glyph unicode="&#xf657;" horiz-adv-x="673" d="M31 63l162 146q168 150 232 233.5t64 163.5t-50 135.5t-156 55.5q-90 0 -195 -76l-33 57q100 96 250 96q147 0 215 -77.5t68 -163.5q0 -123 -78 -222.5t-270 -263.5l-76 -63v-4h438v-80h-571v63z" />
<glyph unicode="&#xf658;" horiz-adv-x="657" d="M27 53l34 74q27 -23 90.5 -43.5t122.5 -20.5q123 0 178 60q52 57 52 116q0 95 -84 141q-82 44 -193 44h-69v74h73q88 0 160 42t74 128q0 49 -41 90t-123 41q-113 0 -190 -68l-35 72q111 72 231 71q133 0 193.5 -61t60.5 -143q0 -66 -45 -120t-125 -83v-4 q98 -16 154.5 -76.5t56.5 -142.5q0 -100 -86 -177t-246 -77q-161 0 -243 63z" />
<glyph unicode="&#xf659;" horiz-adv-x="753" d="M33 240v63l438 551h102v-539h136v-75h-136v-240h-96v240h-444zM139 315h338v330q0 39 4 109l-4 2q-35 -61 -65 -101l-273 -336v-4z" />
<glyph unicode="&#xf65a;" horiz-adv-x="669" d="M43 45l29 72q82 -53 202 -54q92 0 158 56.5t66 140.5q0 92 -64.5 148.5t-200.5 56.5q-49 0 -139 -12l56 401h430v-82h-359l-35 -235q43 6 86 6q104 0 179 -35q63 -27 105 -87.5t42 -146.5q0 -127 -93 -208.5t-233 -81.5q-135 0 -229 61z" />
<glyph unicode="&#xf65b;" horiz-adv-x="737" d="M57 356q0 246 158 387q109 96 279 121q76 10 92 10l2 -81q-63 0 -101 -9q-143 -20 -229 -112t-98 -217h2q82 119 235 118q127 0 206 -78.5t79 -201.5q0 -121 -83 -212t-220 -91q-139 0 -230.5 97t-91.5 269zM156 328q0 -111 58 -186.5t167 -75.5h2q88 0 143.5 64.5 t55.5 156.5q0 98 -58.5 153.5t-154.5 55.5q-61 0 -115.5 -33t-83.5 -84q-14 -26 -14 -51z" />
<glyph unicode="&#xf65c;" horiz-adv-x="643" d="M45 774v80h567v-70l-413 -784h-101l410 772v2h-463z" />
<glyph unicode="&#xf65d;" horiz-adv-x="724" d="M57 223q0 156 185 226v6q-152 59 -152 190q0 100 80 164.5t201 64.5h4q121 0 190.5 -61t69.5 -149q0 -139 -156 -201v-4q190 -63 191 -219q0 -113 -89 -181.5t-219 -68.5q-133 0 -219 65.5t-86 167.5zM158 238q0 -72 55 -124.5t147 -52.5h2q96 0 151.5 48.5t55.5 115.5 q0 82 -55 126t-172 69q-88 -16 -136 -66t-48 -116zM186 655q0 -129 195 -166q160 39 160 166q0 57 -43 102.5t-131 45.5h-2q-84 0 -131.5 -44.5t-47.5 -103.5z" />
<glyph unicode="&#xf65e;" horiz-adv-x="724" d="M57 565q0 125 88 217t226 92q133 0 215 -95t82 -271q0 -264 -162 -406q-96 -84 -242 -104q-73 -9 -111 -9q-8 0 -14 1v82q11 -1 27 -2q31 0 82 6q115 12 203 96q94 88 118 240h-6q-88 -109 -231 -109q-127 0 -201 78t-74 184zM156 571q0 -82 55 -136t141 -54 q137 0 205 104q12 14 12 37q0 119 -53 198t-158 79h-2q-90 0 -145 -68t-55 -160z" />
<glyph unicode="&#xf65f;" horiz-adv-x="227" d="M6 -164q51 135 76 303l115 15q-51 -197 -117 -310z" />
<glyph unicode="&#xf660;" horiz-adv-x="227" d="M43 59q0 33 20.5 54.5t51 21.5t51 -21.5t20.5 -54.5q0 -31 -20.5 -53t-52.5 -22h-2q-29 0 -48.5 22t-19.5 53z" />
<glyph unicode="&#xf661;" horiz-adv-x="731" d="M57 1018q0 211 90.5 328.5t227.5 117.5q139 0 219 -111.5t80 -318.5q0 -215 -83 -334.5t-233 -119.5h-2q-131 0 -215 113.5t-84 324.5zM158 1028q0 -174 55 -273.5t149 -99.5h3q104 0 157 98.5t53 274.5q0 360 -210 361q-92 0 -149.5 -97.5t-57.5 -263.5z" />
<glyph unicode="&#xf662;" horiz-adv-x="475" d="M57 1366l174 88h84v-864h-90v774h-4l-143 -70z" />
<glyph unicode="&#xf663;" horiz-adv-x="673" d="M31 655l162 144q168 150 232 233.5t64 163.5t-50 135t-156 55q-90 0 -195 -75l-33 59q100 94 250 94q147 0 215 -77.5t68 -163.5q0 -121 -78 -220.5t-270 -263.5l-76 -65v-4h438v-80h-571v65z" />
<glyph unicode="&#xf664;" horiz-adv-x="657" d="M27 643l34 74q27 -23 90.5 -42.5t122.5 -19.5q123 0 178 59q52 56 52 115q0 98 -84 143q-82 44 -193 44h-69v71h73q88 0 160 42t74 131q0 47 -41 88t-123 41q-113 0 -190 -66l-35 70q111 72 231 71q133 0 193.5 -60.5t60.5 -141.5q0 -68 -45 -122.5t-125 -82.5v-4 q98 -14 154.5 -76t56.5 -143q0 -98 -86 -176t-246 -78q-161 0 -243 63z" />
<glyph unicode="&#xf665;" horiz-adv-x="753" d="M33 829v64l438 551h102v-537h136v-78h-136v-239h-96v239h-444zM139 907h338v330q0 37 4 109l-4 2q-35 -63 -65 -103l-273 -336v-2z" />
<glyph unicode="&#xf666;" horiz-adv-x="669" d="M43 635l29 74q82 -53 202 -54q92 0 158 56.5t66 140.5q0 90 -64.5 146.5t-200.5 56.5q-49 0 -139 -11l56 400h430v-82h-359l-35 -234q43 4 86 5q104 0 179 -33q63 -27 105 -88.5t42 -147.5q0 -125 -93 -207t-233 -82q-135 1 -229 60z" />
<glyph unicode="&#xf667;" horiz-adv-x="737" d="M57 946q0 246 158 387q109 98 279 123q76 8 92 8l2 -82q-63 0 -101 -6q-143 -23 -229 -115t-98 -214h2q82 117 235 116q127 0 206 -78.5t79 -201.5q0 -119 -83 -211t-220 -92q-139 0 -230.5 97t-91.5 269zM156 918q0 -111 58 -186t167 -75h2q88 0 143.5 63.5t55.5 158.5 q0 96 -58.5 151t-154.5 55q-61 0 -115.5 -32.5t-83.5 -83.5q-14 -26 -14 -51z" />
<glyph unicode="&#xf668;" horiz-adv-x="643" d="M45 1364v80h567v-68l-413 -786h-101l410 772v2h-463z" />
<glyph unicode="&#xf669;" horiz-adv-x="724" d="M57 813q0 156 185 227v7q-152 57 -152 190q0 98 80 162.5t201 64.5h4q121 0 190.5 -60.5t69.5 -150.5q0 -139 -156 -200v-4q190 -61 191 -220q0 -113 -89 -181t-219 -68q-133 0 -219 66.5t-86 166.5zM158 827q0 -72 55 -123t147 -51h2q96 0 151.5 47.5t55.5 116.5 q0 80 -55 125t-172 70q-88 -18 -136 -68.5t-48 -116.5zM186 1245q0 -129 195 -166q160 39 160 166q0 57 -43 102.5t-131 45.5h-2q-84 0 -131.5 -44.5t-47.5 -103.5z" />
<glyph unicode="&#xf66a;" horiz-adv-x="724" d="M57 1157q0 123 88 215t226 92q133 0 215 -95t82 -269q0 -266 -162 -408q-96 -84 -242 -104q-73 -9 -111 -9q-8 0 -14 1v82q8 -1 19 -1q33 0 90 5q115 14 203 98q94 88 118 237h-6q-88 -109 -231 -108q-127 0 -201 77.5t-74 186.5zM156 1161q0 -82 55 -136t141 -54 q137 0 205 104q12 14 12 37q0 121 -53 199t-158 78h-2q-90 0 -145 -68t-55 -160z" />
<glyph unicode="&#xf66b;" horiz-adv-x="227" d="M6 426q51 135 76 303l115 14q-51 -195 -117 -307z" />
<glyph unicode="&#xf66c;" horiz-adv-x="227" d="M43 651q0 33 20.5 53.5t51 20.5t51 -20.5t20.5 -53.5t-20.5 -54.5t-52.5 -21.5h-2q-29 0 -48.5 21.5t-19.5 54.5z" />
<glyph unicode="&#xf6ae;" horiz-adv-x="595" d="M143 717q0 297 93.5 513t244.5 402h105q-166 -193 -252 -410.5t-86 -506.5q0 -276 87 -486.5t251 -414.5h-105q-338 397 -338 903z" />
<glyph unicode="&#xf6af;" horiz-adv-x="595" d="M10 -186q164 197 252 412.5t88 498.5t-87 496t-253 411h105q338 -395 338 -909q0 -297 -91.5 -510t-246.5 -399h-105z" />
<glyph unicode="&#xf6b0;" horiz-adv-x="595" d="M199 -160v1766h409v-84h-309v-1598h309v-84h-409z" />
<glyph unicode="&#xf6b1;" horiz-adv-x="595" d="M-10 -76h309v1598h-309v84h407v-1766h-407v84z" />
<glyph unicode="&#xf6b2;" horiz-adv-x="595" d="M49 766h10q109 0 147 44q40 46 40 128q0 63 -23 188q-25 113 -24 185q0 147 92 221t244 74h28v-84h-41q-119 0 -171 -55.5t-52 -168.5q0 -59 21.5 -174.5t21.5 -175.5q0 -80 -38 -139t-103 -80v-4q63 -18 102 -81.5t39 -141.5q0 -59 -20 -174q-23 -119 -23 -178 q0 -225 223 -226h41v-84h-28q-154 0 -245 77t-91 243q0 70 24 176q23 119 23 178q0 172 -188 172h-9v80z" />
<glyph unicode="&#xf6b3;" horiz-adv-x="595" d="M33 1522v84h28q154 0 245 -74t91 -221q0 -61 -20 -185q-25 -113 -25 -188q0 -82 40 -128q38 -44 147 -44h10v-80h-9q-188 0 -188 -172q0 -68 25 -178q20 -115 20 -176q0 -166 -90 -243t-246 -77h-28v84h43q223 0 223 226q0 59 -23 178q-23 115 -22 174q0 78 40 141.5 t101 81.5v4q-63 20 -102 79.5t-39 139.5q0 59 22.5 175t22.5 175q0 113 -52 168.5t-171 55.5h-43z" />
<glyph unicode="&#xf6b4;" horiz-adv-x="475" d="M170 1473.5q27 29.5 70 29.5h2q39 0 64.5 -29.5t25.5 -72.5t-26.5 -73t-67.5 -30t-69 31q-26 29 -26 66q0 49 27 78.5zM170 0l23 1079h90l22 -1079h-135z" />
<glyph unicode="&#xf6b5;" horiz-adv-x="905" d="M164 287q0 94 46 180t152 201q156 174 157 321q0 9 -1 19l-4 79h98l9 -67q3 -22 2 -44q0 -166 -164 -345q-178 -190 -178 -336q0 -104 66.5 -170t195.5 -66q150 0 252 82l41 -80q-61 -45 -149.5 -71.5t-164.5 -26.5q-174 0 -266 96.5t-92 227.5zM491.5 1473.5 q26.5 29.5 67.5 29.5h2q41 0 66.5 -29.5t25.5 -72.5t-26.5 -73t-69.5 -30q-39 0 -67 31q-26 29 -25 66q0 49 26.5 78.5z" />
<glyph unicode="&#xf6b6;" horiz-adv-x="905" d="M66 723l346 407h114l-344 -407l346 -408h-114zM397 723l346 407h115l-344 -407l346 -408h-115z" />
<glyph unicode="&#xf6b7;" horiz-adv-x="905" d="M47 1130h115l346 -407l-346 -408h-113l344 408zM379 1130h115l346 -407l-346 -408h-113l344 408z" />
<glyph unicode="&#xf6b8;" horiz-adv-x="573" d="M66 723l346 407h114l-344 -407l346 -408h-114z" />
<glyph unicode="&#xf6b9;" horiz-adv-x="573" d="M47 1130h115l346 -407l-346 -408h-113l344 408z" />
<glyph unicode="&#xf6ba;" d="M66 743v95h532v-95h-532z" />
<glyph unicode="&#xf6bb;" horiz-adv-x="1105" d="M66 680v88h974v-88h-974z" />
<glyph unicode="&#xf6bc;" horiz-adv-x="2211" d="M66 680v88h2080v-88h-2080z" />
<glyph unicode="&#xf6bd;" horiz-adv-x="387" d="M127 834.5q27 29.5 69 29.5t66.5 -29.5t24.5 -72.5t-27 -73t-67 -30h-3q-41 0 -66 31q-24 28 -24 66q0 49 27 78.5z" />
<glyph unicode="&#xf6c3;" d="M184 -406q186 20 187 152q0 80 -84 135l90 27q37 -23 64.5 -65t27.5 -93q0 -104 -81 -157.5t-175 -57.5z" />
<glyph unicode="&#xf6c9;" d="M281 1571l213 254h168l-293 -254h-88z" />
<glyph unicode="&#xf6ca;" d="M47 1825h119l170 -172h4l166 172h110l-239 -254h-80z" />
<glyph unicode="&#xf6cb;" d="M49 1692q0 35 25.5 62.5t60.5 27.5t59.5 -25.5t24.5 -63.5t-23.5 -64.5t-62.5 -26.5h-2q-39 0 -60.5 26.5t-21.5 63.5zM446 1692q0 35 26 62.5t61.5 27.5t59 -25.5t23.5 -63.5t-22.5 -64.5t-63.5 -26.5h-2q-37 0 -59.5 26.5t-22.5 63.5z" />
<glyph unicode="&#xf6cc;" d="M-6 1691.5q0 34.5 25.5 62.5t60.5 28t59.5 -25.5t24.5 -64.5t-24.5 -64.5t-63.5 -25.5h-2q-37 0 -58.5 27.5t-21.5 62zM164 1571l186 254h168l-266 -254h-88zM500 1691.5q0 34.5 25.5 62.5t60.5 28t59.5 -25.5t24.5 -64.5t-24.5 -64.5t-63.5 -25.5h-2q-35 0 -57.5 27.5 t-22.5 62z" />
<glyph unicode="&#xf6cd;" d="M-6 1691.5q0 34.5 25.5 62.5t60.5 28t59.5 -25.5t24.5 -64.5t-24.5 -64.5t-63.5 -25.5h-2q-37 0 -58.5 27.5t-21.5 62zM143 1825h168l187 -254h-88zM500 1691.5q0 34.5 25.5 62.5t60.5 28t59.5 -25.5t24.5 -64.5t-24.5 -64.5t-63.5 -25.5h-2q-35 0 -57.5 27.5t-22.5 62z " />
<glyph unicode="&#xf6ce;" d="M2 1825h168l213 -254h-88z" />
<glyph unicode="&#xf6cf;" d="M147 1571l203 254h152l-271 -254h-84zM436 1571l201 254h154l-271 -254h-84z" />
<glyph unicode="&#xf6d0;" d="M72 1620v88h524v-88h-524z" />
<glyph unicode="&#xf6d1;" d="M68 1847h102q6 -31 13 -49t23.5 -45t48.5 -38t79 -11t78.5 11t47 35t22.5 45.5t12 51.5h102q-10 -225 -268 -225q-131 0 -192.5 62.5t-67.5 162.5z" />
<glyph unicode="&#xf6d2;" d="M68 1622q6 92 69.5 152.5t198.5 60.5q131 0 192.5 -60.5t67.5 -152.5h-102q-8 29 -14.5 43t-23 40t-48 37t-78.5 11t-79 -11t-47.5 -33.5t-22.5 -41t-11 -45.5h-102z" />
<glyph unicode="&#xf6d3;" d="M-37 1825h168l211 -254h-88zM299 1825h168l213 -254h-90z" />
<glyph unicode="&#xf6d4;" horiz-adv-x="665" d="M53 1501h103q4 -74 49 -127t123 -53q84 0 129 50t53 130h100q-2 -119 -80.5 -188.5t-205.5 -69.5q-145 0 -207 78t-64 180z" />
<glyph unicode="&#xf6d5;" d="M53 1253q2 121 81 190.5t206 69.5q145 0 206.5 -77.5t63.5 -182.5h-102q-8 78 -51 130.5t-121 52.5q-84 0 -129 -51.5t-53 -131.5h-101z" />
<glyph unicode="&#xf6d6;" d="M63 1509h164l203 -311h-86zM365 1509h163l201 -311h-84z" />
<glyph unicode="&#xf6d7;" horiz-adv-x="665" d="M-2 1382.5q0 34.5 25.5 62.5t60.5 28t59.5 -27t24.5 -64q0 -39 -24.5 -64.5t-63.5 -25.5h-2q-35 0 -57.5 28t-22.5 62.5zM166 1243l201 309h163l-280 -309h-84zM473 1382.5q0 34.5 25.5 62.5t61.5 28t59.5 -27t23.5 -64q0 -39 -23.5 -64.5t-64.5 -25.5h-2q-35 0 -57.5 28 t-22.5 62.5z" />
<glyph unicode="&#xf6d8;" horiz-adv-x="665" d="M16 1382.5q0 34.5 25 62.5t60.5 28t60 -27t24.5 -64q0 -39 -24.5 -64.5t-63.5 -25.5h-4q-35 0 -56.5 28t-21.5 62.5zM123 1552h164l202 -309h-83zM467 1382.5q0 34.5 25.5 62.5t60.5 28t59.5 -27t24.5 -64q0 -39 -24.5 -64.5t-63.5 -25.5h-2q-37 0 -58.5 28t-21.5 62.5z " />
<glyph unicode="&#xf6dc;" horiz-adv-x="686" d="M82 1282l268 156h103v-1438h-105v1331h-6l-233 -135z" />
<glyph unicode="&#xf6df;" horiz-adv-x="731" d="M86 102q0 135 81 224.5t214 107.5v137h74v-137q94 0 170 -41l-27 -74q-66 39 -164 39q-111 0 -181.5 -69.5t-70.5 -177.5q0 -113 70 -179.5t172 -66.5q98 0 178 37l23 -68q-76 -43 -170 -47v-137h-74v137q-135 16 -217 100q-78 84 -78 215z" />
<glyph unicode="&#xf6e0;" horiz-adv-x="731" d="M86 1425q0 133 81 223.5t214 108.5v135h74v-135q94 0 170 -41l-27 -76q-66 41 -164 41q-111 0 -181.5 -69.5t-70.5 -177.5q0 -113 70 -179.5t172 -66.5q98 0 178 37l23 -68q-76 -43 -170 -47v-137h-74v137q-135 16 -217 100q-78 84 -78 215z" />
<glyph unicode="&#xf6e1;" horiz-adv-x="227" d="M6 -489q51 135 76 303l115 14q-51 -195 -117 -307z" />
<glyph unicode="&#xf6e2;" horiz-adv-x="227" d="M6 834q51 135 76 303l115 14q-51 -195 -117 -309z" />
<glyph unicode="&#xf6e3;" horiz-adv-x="694" d="M92 -242l35 76q86 -61 197 -61q76 0 127 40t51 99q0 55 -40 93t-124 69q-119 43 -174 96t-55 133q0 82 55 138.5t151 68.5v137h74v-133q100 -4 180 -51l-32 -74q-72 49 -177 49q-80 0 -118.5 -36.5t-38.5 -87t40 -84t138 -70.5q111 -45 164 -100.5t53 -141.5 q0 -76 -58.5 -139.5t-160.5 -79.5v-137h-74v135q-129 0 -213 61z" />
<glyph unicode="&#xf6e4;" horiz-adv-x="694" d="M92 1081l35 76q86 -61 197 -61q76 0 127 39t51 100q0 55 -40 92t-124 68q-119 45 -174 98t-55 133q0 82 55 138.5t151 68.5v137h74v-135q100 -2 180 -49l-32 -74q-72 49 -177 49q-80 0 -118.5 -36.5t-38.5 -88t40 -84t138 -69.5q111 -45 164 -100.5t53 -141.5 q0 -76 -58.5 -139.5t-160.5 -79.5v-137h-74v135q-129 0 -213 61z" />
<glyph unicode="&#xf6e5;" horiz-adv-x="405" d="M39 37v76h328v-76h-328z" />
<glyph unicode="&#xf6e6;" horiz-adv-x="405" d="M39 1360v76h328v-76h-328z" />
<glyph unicode="&#xf6e7;" horiz-adv-x="227" d="M43 -266q0 35 20.5 55.5t51 20.5t51 -20.5t20.5 -55.5q0 -31 -20.5 -52.5t-52.5 -21.5h-2q-29 0 -48.5 21.5t-19.5 52.5z" />
<glyph unicode="&#xf6e8;" horiz-adv-x="227" d="M43 1057q0 33 20.5 54.5t51 21.5t51 -21.5t20.5 -54.5q0 -31 -20.5 -52.5t-52.5 -21.5h-2q-29 0 -48.5 21.5t-19.5 52.5z" />
<glyph unicode="&#xf730;" horiz-adv-x="1241" d="M111 530q0 260 154.5 408.5t355.5 148.5q205 0 358.5 -144t153.5 -413q0 -258 -155 -407.5t-357 -149.5h-3q-201 0 -354 145.5t-153 411.5zM219 531.5q0 -209.5 110.5 -340t291.5 -130.5h4q178 0 288.5 130.5t110.5 340t-110.5 338.5t-292 129t-292 -129t-110.5 -338.5z " />
<glyph unicode="&#xf731;" horiz-adv-x="804" d="M66 903l374 158h103v-1061h-105v971h-4l-344 -150z" />
<glyph unicode="&#xf732;" horiz-adv-x="1036" d="M61 0v61l93 56q338 209 478 346t140 285q0 125 -81 192.5t-206 67.5q-186 0 -368 -142l-37 74q201 158 422 158q166 0 272.5 -92.5t106.5 -255.5q0 -154 -119 -284t-369 -290l-127 -82v-6q39 2 150 2h555v-90h-910z" />
<glyph unicode="&#xf733;" horiz-adv-x="978" d="M35 -199l16 84q119 -45 268 -45q199 0 326 90t127 234q0 121 -110.5 190.5t-296.5 69.5q-61 0 -136 -6l-4 88l33 2q201 14 319.5 87t118.5 191q0 213 -284 213q-152 0 -301 -88l-29 74q53 37 149.5 69.5t202.5 32.5q164 0 267.5 -74.5t103.5 -207.5q0 -111 -73 -190.5 t-200 -116.5v-6q152 -20 250.5 -102.5t98.5 -221.5q0 -178 -162 -297t-395 -119q-80 0 -165 15.5t-124 33.5z" />
<glyph unicode="&#xf734;" horiz-adv-x="1142" d="M39 133v72l741 882h84v-864h240v-90h-240v-381h-100v381h-725zM168 227l2 -4h594v574q0 123 2 149l-8 2q-61 -92 -103 -143z" />
<glyph unicode="&#xf735;" horiz-adv-x="1028" d="M106 -205l17 84q106 -39 258 -39q178 0 305 92.5t127 253.5q0 98 -78 183q-154 154 -585 106l116 586h639l-20 -90h-541l-84 -400q391 27 559 -133q102 -98 103 -243q0 -203 -159 -323t-398 -120q-163 0 -259 43z" />
<glyph unicode="&#xf736;" horiz-adv-x="1218" d="M137 510q0 344 234.5 569.5t625.5 247.5l9 -86q-315 -12 -513 -175t-243 -415h8q55 84 158.5 145.5t238.5 61.5q184 0 312.5 -118.5t128.5 -305.5q0 -213 -141.5 -337t-309.5 -124q-221 0 -364.5 148.5t-143.5 388.5zM254 434q0 -139 108.5 -256t276.5 -117h2 q137 0 241.5 97.5t104.5 271.5q0 154 -95 247t-257 93q-88 0 -167 -38t-120 -79q-55 -55 -74.5 -102t-19.5 -117z" />
<glyph unicode="&#xf737;" horiz-adv-x="946" d="M29 971v90h872v-78q-111 -270 -307.5 -609t-392.5 -622l-95 35q145 190 366.5 565t313.5 615v4h-757z" />
<glyph unicode="&#xf738;" horiz-adv-x="1175" d="M111 336q0 233 311 358v4q-109 33 -180.5 107t-71.5 180q0 147 127 244.5t303 97.5q172 0 292 -93t120 -233q0 -195 -271 -305v-4q156 -49 241 -138t85 -200q0 -170 -143.5 -275.5t-335.5 -105.5q-205 0 -341 98.5t-136 264.5zM223 348q0 -129 96.5 -208t264.5 -79h2 q160 0 265 79t105 200q0 225 -407 322q-150 -41 -238 -125.5t-88 -188.5zM276 995q0 -197 334 -266q131 27 211 95.5t80 176.5q0 111 -90 175.5t-213 64.5h-2q-131 0 -225.5 -66.5t-94.5 -179.5z" />
<glyph unicode="&#xf739;" horiz-adv-x="1218" d="M123 629q0 190 141.5 324t341.5 134q90 0 172 -28.5t151.5 -88t110.5 -161.5t41 -238q0 -342 -236.5 -573t-631.5 -246l-10 88q305 6 504.5 161t248.5 398h-6q-37 -76 -144.5 -136t-240.5 -60q-182 0 -312 113.5t-130 312.5zM231 637q0 -166 100.5 -255t248.5 -89h2 q119 0 223 61.5t143 147.5q25 53 25 114q0 174 -111.5 278.5t-261.5 104.5q-141 0 -255 -95t-114 -267z" />
</font>
</defs>
</svg>
